<?xml version="1.0" encoding="UTF-8"?>
<svg id="Layer_2" data-name="Layer 2" xmlns="http://www.w3.org/2000/svg" viewBox="0 0 76.97 72.74">
  <defs>
    <style>
      .cls-1 {
        fill: #fff;
      }
    </style>
  </defs>
  <g id="Layer_1-2" data-name="Layer 1">
    <g>
      <path class="cls-1" d="m47.74,3.42c0,.23-.01.45-.04.68-.02.14-.03.27-.05.39-.03.21-.09.42-.16.62-.04.1-.08.19-.14.28,13.49,3.84,23.4,16.28,23.4,30.99,0,.16,0,.33-.01.49l2,.36c.01-.28.01-.56.01-.85,0-15.71-10.59-28.94-25.01-32.96ZM6.34,37.02l-2.01-.28c.16,15.12,10.13,27.9,23.85,32.25.01-.23.03-.45.06-.67.02-.14.04-.26.06-.39.05-.23.11-.43.19-.62.04-.1.09-.19.15-.28-12.74-4.12-22.03-15.98-22.3-30.01Z"/>
      <g>
        <path class="cls-1" d="m7.22,28.19c.36.05.66.17.91.35.25.18.45.41.59.68.15.28.24.58.29.93.05.34.05.7,0,1.07l-.58,4.08-8.44-1.19.64-4.51c.04-.29.14-.55.3-.77s.35-.4.58-.54c.22-.14.47-.23.74-.29.27-.05.54-.06.8-.03.41.06.78.22,1.11.47.33.26.56.6.67,1.02.21-.46.52-.81.93-1.04.41-.23.89-.3,1.44-.23Zm-5.59,4.47l2.13.3.31-2.19c.04-.28-.02-.53-.18-.75-.16-.22-.41-.36-.74-.4-.33-.05-.59,0-.81.16-.21.15-.34.36-.38.62l-.32,2.26Zm5.05-2.86c-.15-.02-.3-.02-.44.02-.15.03-.28.08-.39.16-.12.07-.21.16-.29.27s-.12.24-.14.38l-.36,2.52,2.22.31.34-2.44c.02-.15.01-.29-.02-.43s-.1-.26-.18-.37c-.09-.11-.19-.2-.32-.28-.13-.07-.26-.12-.42-.14Z"/>
        <path class="cls-1" d="m10.89,28.17c.09-.11.16-.22.23-.34.07-.11.11-.21.15-.29.04-.1.05-.19.05-.29,0-.1-.04-.2-.11-.3-.07-.1-.17-.22-.31-.35-.14-.13-.32-.28-.53-.45l-6.76.02.6-1.54,5.18.2-4.01-3.19.55-1.41,6.05,5.21c.35.3.59.68.72,1.12.13.45.09.92-.11,1.43-.05.12-.1.24-.17.35-.07.12-.15.23-.25.35l-1.3-.51Z"/>
        <path class="cls-1" d="m13.96,18.56c-.03.23-.09.51-.17.82-.08.32-.21.62-.4.91-.12.19-.25.35-.4.49-.15.14-.32.24-.5.3s-.38.08-.59.05c-.21-.03-.44-.12-.68-.26l-3.07-1.91-.44.7-1.05-.65.44-.7-1.73-1.08.85-1.37,1.73,1.08.7-1.12,1.05.65-.7,1.12,2.61,1.62c.19.12.35.15.49.1s.25-.15.34-.29c.09-.14.15-.3.19-.46.04-.17.06-.3.08-.4l1.25.4Z"/>
        <path class="cls-1" d="m16.55,16.21c-.34.37-.71.65-1.11.84-.4.18-.81.28-1.22.3-.41.01-.82-.06-1.21-.21s-.75-.37-1.07-.66c-.33-.3-.59-.64-.78-1.02-.19-.38-.3-.78-.33-1.19-.03-.41.03-.83.18-1.26.15-.42.4-.82.74-1.2.35-.38.72-.66,1.12-.84.4-.18.81-.27,1.22-.28.41,0,.81.06,1.2.22.39.16.74.38,1.05.66.08.07.15.14.22.21.07.07.12.13.16.18l-3.28,3.59c.2.15.4.25.61.31.21.06.41.08.61.06.2-.02.4-.08.58-.17.18-.09.34-.22.48-.37.22-.24.36-.51.44-.83.08-.31.06-.6-.06-.85l1.21-.76c.2.5.24,1.03.12,1.62-.12.58-.41,1.13-.89,1.65Zm-1.7-3.76c-.38-.29-.77-.42-1.19-.38-.42.04-.77.22-1.07.54-.15.16-.25.33-.33.52s-.1.38-.1.58c0,.2.04.4.12.59.08.2.2.38.36.55l2.2-2.41Z"/>
        <path class="cls-1" d="m22.05,3.91l1.29-.82,1.16,6.72-1.11.71-2.39-1.75.58,2.9-1.11.71-5.58-3.9,1.28-.81,4.14,3.02-.45-2.13-2.39-1.71,1.09-.7,1.59,1.28-.47-1.99,1.09-.7.54,2.88,1.73,1.31-.99-5.03Z"/>
        <path class="cls-1" d="m28.63,8.21c-.29.09-.58.13-.86.11-.28-.02-.54-.08-.78-.2-.24-.11-.44-.27-.62-.47-.18-.2-.31-.43-.39-.71-.09-.28-.11-.56-.06-.84.05-.28.16-.54.33-.78.17-.24.4-.46.68-.65.28-.19.61-.35.99-.47.27-.08.54-.14.81-.18.27-.03.52-.04.74-.02l-.11-.34c-.12-.4-.33-.67-.63-.81-.29-.14-.66-.15-1.1,0-.32.1-.62.26-.88.47-.27.21-.53.48-.78.8l-.78-.83c.61-.75,1.36-1.27,2.25-1.55.86-.27,1.6-.27,2.21,0,.61.27,1.04.81,1.29,1.61l.59,1.87c.05.16.11.27.19.32s.18.06.32.03l.41,1.3c-.24.14-.46.23-.65.29-.29.09-.53.1-.73.02-.2-.08-.35-.22-.45-.42l-.14-.32c-.16.44-.4.8-.72,1.11-.32.3-.7.52-1.14.66Zm.08-1.26c.26-.08.49-.21.7-.37.2-.16.35-.34.43-.54.13-.18.17-.35.12-.51l-.22-.69c-.21-.01-.42,0-.65.02-.23.03-.44.07-.64.13-.4.12-.69.32-.89.57-.2.26-.25.53-.16.8.08.26.25.44.5.55.25.11.52.12.81.03Z"/>
        <path class="cls-1" d="m34.79,6.64l-2.9-6.04,1.65-.16,2.06,4.81,1.13-5.11,1.51-.14-1.71,6.48-1.73.17Z"/>
        <path class="cls-1" d="m42.07,6.75c-.5-.06-.94-.2-1.33-.41-.38-.22-.7-.49-.96-.82s-.43-.69-.54-1.1c-.11-.41-.14-.83-.09-1.25.05-.45.18-.86.37-1.23.2-.38.46-.7.78-.96s.7-.46,1.12-.59c.43-.13.9-.16,1.41-.1.51.06.95.2,1.33.42.38.22.7.5.94.82.25.33.42.69.52,1.1.1.41.13.82.08,1.24-.01.1-.03.2-.04.3-.01.09-.03.17-.06.23l-4.83-.56c0,.25.03.47.1.68.07.2.18.38.31.53.13.15.29.28.48.37.18.09.38.15.58.18.32.04.63,0,.93-.13.3-.12.52-.3.65-.55l1.33.54c-.29.45-.7.8-1.24,1.05-.54.25-1.16.33-1.86.25Zm2.06-3.58c.01-.47-.12-.87-.39-1.19-.27-.32-.63-.5-1.07-.55-.21-.03-.42-.01-.61.04-.2.05-.37.14-.53.26-.16.12-.3.27-.41.45-.11.18-.19.38-.23.61l3.24.38Z"/>
      </g>
      <g>
        <path class="cls-1" d="m69.54,45.66c-.35-.06-.65-.19-.9-.38-.24-.19-.43-.42-.57-.71s-.22-.59-.26-.94-.02-.7.04-1.07l.72-4.05,8.39,1.49-.8,4.49c-.05.29-.16.54-.33.76s-.37.39-.6.52c-.23.13-.48.22-.75.26-.27.04-.54.04-.8,0-.41-.07-.78-.24-1.1-.51s-.53-.61-.64-1.04c-.23.46-.55.79-.96,1-.42.21-.9.27-1.45.17Zm.6-1.59c.15.03.3.03.44,0,.15-.03.28-.08.4-.14s.22-.16.3-.26.13-.23.16-.37l.45-2.5-2.21-.39-.43,2.42c-.03.15-.02.29,0,.43.03.14.09.27.17.38.08.11.18.21.31.29.12.08.26.13.41.16Zm5.14-2.68l-2.11-.38-.39,2.17c-.05.28,0,.53.16.75.16.23.4.37.73.43.32.06.59.01.82-.13.22-.14.35-.35.4-.61l.4-2.24Z"/>
        <path class="cls-1" d="m65.87,45.56c-.09.11-.17.22-.24.33s-.12.2-.16.29c-.04.1-.06.19-.06.29s.03.2.1.3c.06.11.16.23.29.36.13.14.3.29.51.47l6.76.22-.66,1.52-5.17-.39,3.89,3.34-.6,1.39-5.86-5.42c-.34-.31-.57-.7-.68-1.15s-.06-.92.16-1.42c.05-.12.11-.23.18-.35.07-.11.16-.23.26-.34l1.28.55Z"/>
        <path class="cls-1" d="m62.47,55.05c.04-.23.11-.51.2-.82.09-.31.24-.61.43-.9.12-.19.26-.34.42-.48.16-.13.33-.22.51-.28s.38-.06.6-.03.43.13.67.29l3,2.01.46-.69,1.03.69-.46.69,1.69,1.14-.9,1.33-1.69-1.14-.74,1.1-1.03-.69.74-1.1-2.55-1.71c-.19-.12-.35-.16-.49-.12-.14.04-.26.14-.35.28s-.16.29-.2.46c-.04.16-.07.3-.09.4l-1.24-.44Z"/>
        <path class="cls-1" d="m59.8,57.3c.35-.36.73-.62,1.14-.8s.82-.26,1.23-.25.81.08,1.2.25c.39.16.74.4,1.05.7.32.31.57.66.74,1.05.18.39.27.79.28,1.2.01.42-.06.83-.22,1.25-.16.42-.42.81-.78,1.17s-.74.63-1.15.8c-.41.17-.82.25-1.23.24-.41,0-.81-.09-1.19-.26s-.73-.4-1.03-.7c-.07-.07-.14-.14-.21-.21s-.12-.13-.15-.19l3.4-3.47c-.19-.16-.39-.27-.6-.33-.2-.07-.41-.09-.61-.08-.2.01-.4.06-.58.15-.19.09-.35.2-.5.35-.22.23-.38.5-.47.81-.09.31-.08.59.03.85l-1.24.72c-.18-.5-.2-1.04-.07-1.62.14-.58.45-1.12.94-1.62Zm1.56,3.82c.37.3.76.44,1.17.42.42-.02.78-.19,1.09-.5.15-.15.27-.33.34-.51s.12-.38.12-.58c0-.2-.03-.4-.1-.6s-.19-.39-.34-.56l-2.29,2.33Z"/>
        <path class="cls-1" d="m53.87,69.41l-1.31.77-.92-6.75,1.14-.67,2.33,1.83-.48-2.92,1.14-.67,5.44,4.09-1.3.77-4.04-3.17.37,2.15,2.33,1.79-1.12.66-1.55-1.33.4,2.01-1.12.66-.44-2.9-1.69-1.38.81,5.07Z"/>
        <path class="cls-1" d="m47.45,64.87c.29-.08.58-.11.86-.08.28.03.54.1.77.22.23.12.43.29.6.49.17.2.29.44.37.72.08.29.09.57.03.84-.06.28-.18.53-.36.77s-.42.44-.71.62c-.29.18-.62.33-1,.43-.27.07-.54.12-.81.15-.27.02-.52.02-.74,0l.1.35c.11.4.31.68.6.83s.65.17,1.1.04c.32-.09.62-.23.9-.43.28-.2.55-.46.81-.77l.75.85c-.64.73-1.41,1.22-2.31,1.47-.87.24-1.61.21-2.21-.08s-1.01-.85-1.23-1.66l-.52-1.89c-.04-.16-.11-.27-.18-.32-.08-.05-.18-.07-.31-.04l-.36-1.32c.25-.13.47-.22.66-.27.29-.08.54-.08.73.01.19.09.34.23.44.44l.13.33c.17-.43.43-.79.76-1.08.33-.29.72-.5,1.16-.62Zm-.13,1.25c-.26.07-.5.19-.71.34-.21.16-.36.33-.45.52-.13.18-.18.35-.13.51l.19.69c.2.02.42.02.65,0,.23-.02.44-.05.64-.11.4-.11.7-.29.91-.54.2-.25.27-.52.19-.79-.07-.26-.23-.45-.48-.57-.25-.12-.52-.14-.81-.06Z"/>
        <path class="cls-1" d="m41.21,66.22l2.69,6.14-1.65.1-1.89-4.88-1.31,5.07-1.51.09,1.94-6.42,1.74-.1Z"/>
        <path class="cls-1" d="m33.96,65.86c.5.08.94.23,1.31.46.38.23.69.51.93.85.24.34.41.71.5,1.12.1.41.11.83.05,1.26-.07.44-.21.85-.42,1.22-.21.37-.48.68-.81.93-.33.25-.71.44-1.15.55-.43.11-.9.13-1.41.05-.51-.08-.95-.23-1.32-.47-.37-.24-.68-.52-.91-.86-.24-.33-.4-.71-.49-1.12-.09-.41-.1-.83-.04-1.24.02-.1.03-.2.05-.29.02-.09.04-.17.07-.23l4.8.73c.01-.25-.01-.48-.08-.68-.07-.2-.16-.38-.29-.54s-.28-.29-.46-.39c-.18-.1-.37-.17-.58-.2-.32-.05-.63-.02-.93.09-.3.11-.53.29-.67.52l-1.31-.59c.3-.44.73-.77,1.28-1,.55-.23,1.17-.29,1.87-.18Zm-2.18,3.5c-.03.47.08.87.35,1.2.26.33.61.52,1.04.59.21.03.42.02.62-.02s.38-.13.54-.24.3-.26.42-.43c.12-.18.21-.38.26-.6l-3.23-.49Z"/>
      </g>
      <path class="cls-1" d="m57.32,27.87l-7.28,12.06c-3.69-6.17-11.4-19.44-15.03-25.76h-2.47c-5.33,9.08-12.73,21.65-18.06,30.72h5.27l7.29-12.06c3.83,6.43,11.27,19.22,15.02,25.75h2.48l6.62-11.26,11.43-19.45h-5.27Zm-13.91,23.32c-3.5-5.9-10.18-17.33-13.58-23.27l3.83-6.35c3.51,5.9,10.19,17.33,13.59,23.27l-3.84,6.35Z"/>
    </g>
  </g>
</svg>