<?xml version="1.0" encoding="UTF-8"?><svg id="uuid-1647cacf-0f73-425e-84fb-d31931ac0a7d" xmlns="http://www.w3.org/2000/svg" viewBox="0 0 512 512"><path d="M454.39,417.79c-46.95,57.49-118.38,94.21-198.39,94.21-122.07,0-224.17-85.45-249.79-199.79,.05-.26,.1-.48,.14-.67,.06-.31,.09-.63,.1-.95,.9-44,23.5-92.35,44.62-124.85,17.28-26.6,47.65-54.48,67.83-66.84,15.56-9.54,34.64-16.46,48.98-18.08,4.7-.35,9.09-.3,12.83,.34,8.49,2,11.56,8.46,4.19,20.99-.03,.05-.06,.11-.09,.16-.27,.56-.51,1.1-.71,1.63-.19,.5-.35,.99-.48,1.46-4.59,17.02,32.63,12.77,73.11,22.47,1.12,.27,2.24,.55,3.37,.84,1.13,.29,2.26,.6,3.39,.91,2.26,.63,4.53,1.31,6.79,2.05,1.13,.36,2.26,.74,3.38,1.14,1.13,.4,2.26,.81,3.38,1.23,.56,.21,1.13,.43,1.69,.65,1.12,.44,2.24,.9,3.35,1.37,1.12,.48,2.23,.97,3.33,1.47,1.11,.51,2.21,1.03,3.31,1.57,5.48,2.71,10.84,5.86,15.95,9.56,1.53,1.11,3.05,2.27,4.54,3.48,.49,.4,.99,.81,1.48,1.22,.98,.83,1.95,1.69,2.91,2.56,11.99,10.95,22.11,25.64,28.77,45.54-13.71-34.26-47.21-58.46-86.37-58.46-15.52,0-30.14,3.8-43,10.52-88.14,34.79-59.87,111.77-102.1,117.3-12.96,.96-22.02-23.13-31.54-10.15-7.14,9.73,26.29,65.51,32.18,73.75,29.76,41.68,76.39,55.75,125.37,61.44,39.12,4.51,108.15-12.19,141.01,12.73,26.28,19.91,3.82,42.77,51.05,8.68,9.49-6.85,17.91-13.28,25.42-19.48Z" style="fill:#71acbc;"/><path d="M511.08,277.66c-4.33,51.6-23.95,98.85-54.33,137.19-.78,.99-1.57,1.97-2.36,2.94-7.51,6.2-15.93,12.63-25.42,19.48-47.23,34.09-24.77,11.23-51.05-8.68-32.86-24.92-101.89-8.22-141.01-12.73-48.98-5.69-95.61-19.76-125.37-61.44-5.89-8.24-39.32-64.02-32.18-73.75,9.52-12.98,18.58,11.11,31.54,10.15,42.23-5.53,13.96-82.51,102.1-117.3-7.89,4.13-15.12,9.34-21.47,15.46-17.59,16.92-28.53,40.69-28.53,67.02,0,36.28,20.78,67.71,51.08,83.03,16.53,9.62,37.03,13.81,60.58,9.56,34.49-4.37,115.08-34.08,119.6-5.4,1.7,10.74-6.01,18.08,9.88,15.81,15.19-2.16,32.35-17.92,43.97-26.85,18.72-14.41,43.89-33.26,62.97-54.49Z" style="fill:#f4f4f4;"/><path d="M512,256c0,7.3-.32,14.52-.92,21.66-19.08,21.23-44.25,40.08-62.97,54.49-11.62,8.93-28.78,24.69-43.97,26.85-15.89,2.27-8.18-5.07-9.88-15.81-4.52-28.68-85.11,1.03-119.6,5.4-23.55,4.25-44.05,.06-60.58-9.56-30.3-15.32-51.08-46.75-51.08-83.03,0-26.33,10.94-50.1,28.53-67.02,6.35-6.12,13.58-11.33,21.47-15.46,12.86-6.72,27.48-10.52,43-10.52,39.16,0,72.66,24.2,86.37,58.46,.57,1.44,1.12,2.89,1.62,4.37,3.25,9.46,5.01,19.61,5.01,30.17,0,36.94-21.54,68.85-52.74,83.86,.6,.71,1.58,1.12,2.64,.88,51.9-11.58,96.34-72.81,82.17-128.98-2.04-11.61-9.16-30.42-4.58-42.15,7.05-18.13,22.63-1.36,31.27-2.61,1.73-.25,2.78-2.06,2.11-3.67C365.24,55.7,201.59,2.15,95.25,56.77,139.2,21.27,195.11,0,256,0c141.38,0,256,114.62,256,256Z" style="fill:#777;"/><path d="M95.25,56.77c106.34-54.62,269.99-1.07,314.62,106.56,.67,1.61-.38,3.42-2.11,3.67-8.64,1.25-24.22-15.52-31.27,2.61-4.58,11.73,2.54,30.54,4.58,42.15,14.17,56.17-30.27,117.4-82.17,128.98-1.06,.24-2.04-.17-2.64-.88,31.2-15.01,52.74-46.92,52.74-83.86,0-10.56-1.76-20.71-5.01-30.17-.5-1.48-1.05-2.93-1.62-4.37-6.66-19.9-16.78-34.59-28.77-45.54-.96-.88-1.93-1.73-2.91-2.56-.49-.41-.99-.82-1.48-1.22-1.49-1.21-3.01-2.37-4.54-3.48-5.11-3.7-10.47-6.85-15.95-9.56-1.1-.54-2.2-1.07-3.31-1.57-1.1-.51-2.21-1-3.33-1.47-1.11-.47-2.23-.93-3.35-1.37-.56-.22-1.13-.44-1.69-.65-1.12-.43-2.25-.84-3.38-1.23-1.12-.4-2.25-.78-3.38-1.14-2.26-.74-4.53-1.42-6.79-2.05-1.13-.31-2.26-.62-3.39-.91-1.13-.29-2.25-.57-3.37-.84-40.48-9.7-77.7-5.45-73.11-22.47,.13-.47,.29-.95,.48-1.46,.2-.53,.44-1.07,.71-1.63,.03-.05,.06-.11,.09-.16,7.37-12.53,4.3-18.99-4.19-20.99-3.74-.64-8.13-.69-12.83-.34-14.34,1.62-33.42,8.54-48.98,18.08-20.18,12.36-50.55,40.24-67.83,66.84-.69,1.06-1.38,2.14-2.07,3.23C28.5,221.39,7.32,268.03,6.45,310.59c-.01,.32-.04,.64-.1,.95-.04,.19-.09,.41-.14,.67v.04c-4.07-18.1-6.21-36.92-6.21-56.25C0,175.72,36.95,104.08,94.77,57.14l.48-.37Z" style="fill:#368ca3;"/></svg>