<?xml version="1.0" encoding="UTF-8"?><svg id="uuid-a0e0d612-c3a8-4a11-9e7b-0a68f266b903" xmlns="http://www.w3.org/2000/svg" xmlns:xlink="http://www.w3.org/1999/xlink" viewBox="0 0 512 512"><defs><clipPath id="uuid-c70c54c8-bf8c-4269-8286-73667bbbb157"><circle id="uuid-56517069-5f4d-45c1-a9be-e315707852f2" cx="256" cy="256" r="256" style="fill:none;"/></clipPath><clipPath id="uuid-42774e51-558d-410f-b16d-03c3a5fd75c5"><circle cx="256" cy="256" r="256" style="fill:none;"/></clipPath></defs><g id="uuid-5dab947a-8b3d-44bb-b5ab-c4b20c3548a4"><g style="clip-path:url(#uuid-c70c54c8-bf8c-4269-8286-73667bbbb157);"><circle id="uuid-19f6545d-1c7a-43d8-89f4-26e1bbd6030d" cx="257" cy="256" r="257" style="fill:#777;"/><g id="uuid-f93e4430-e1c3-4119-8ecb-cfeeb3be98e4"><g style="clip-path:url(#uuid-42774e51-558d-410f-b16d-03c3a5fd75c5);"><path d="M256,517C19.5,512.06-102,261,116.49,114.52c7.26-4.87,94.78-34.04,72.65,10.28-7.49,12.28,31.51,9.44,38.31,10.68,65.65,8.64,98.63,28.07,121.61,83.96,1.83,5.93-7.16,9.13-9.44,3.29-36.43-83.92-139.37-65.72-182.44,2.34-4.64,7.34-7.82,17.3-10.89,26.93-5.57,26.28-29.15,61.92-55.65,35.81-29.66-25.77,19.6,62.38,22.96,64.69,75.32,111.57,245.47,9.91,283.67,98.31,16.47-6.15,37.9-26.36,55.03-36.93,4.49-1.42,8.35,4.43,5.19,8-49.82,60.44-123.26,95.11-201.5,95.11Z" style="fill:#71acbc;"/></g></g><path id="uuid-3d305599-5b4f-41f2-924d-2358df425442" d="M446.11,334.15c-11.62,8.94-28.78,24.69-43.97,26.85-15.88,2.28-8.18-5.07-9.88-15.81-4.52-28.68-85.11,1.04-119.6,5.4-102.91,18.56-154.91-122.59-65.06-175.31-80.03,35.05-55.84,111.93-98.7,117.54-12.96,.96-22.02-23.13-31.54-10.15-7.15,9.73,26.29,65.51,32.18,73.75,29.76,41.68,76.39,55.75,125.37,61.44,39.13,4.51,108.15-12.19,141.02,12.73,26.28,19.91,3.82,42.77,51.05,8.68,71.03-51.27,83.4-79.36,83.97-161.68-19.27,22.08-45.5,41.68-64.84,56.56Z" style="fill:#f4f4f4;"/><path id="uuid-93c967f2-1661-458e-903f-741713ea1ab9" d="M295.84,337.08c-.86,2.01,.93,4.13,3.06,3.66,51.9-11.59,96.34-72.81,82.17-128.98-2.04-11.62-9.16-30.42-4.58-42.15,7.05-18.12,22.63-1.35,31.27-2.61,1.73-.25,2.78-2.06,2.11-3.67C361.05,45.61,182.02-11.52,79.17,70.91c-.07,.06-.14,.12-.21,.18C43.01,105.45,17.35,150.42,6.39,198.94c-7.93,34.92-8.48,71.5-1.58,106.64,.36,1.86,.75,3.71,1.16,5.56,.1,.23,.46,.18,.46-.09,.75-44.13,23.44-92.7,44.63-125.31,17.28-26.6,47.65-54.47,67.83-66.84,34.1-20.9,85.11-29.25,66,3.25-.04,.07-.08,.14-.11,.21-17.83,37.1,123.56-9.94,158.42,101.69,.19,.61,.16,1.27-.09,1.86l-47.28,111.18Z" style="fill:#368ca3;"/><circle id="uuid-6380fe94-50c4-49fb-8b01-ebe32c2d1806" cx="256" cy="256" r="93" style="fill:#777;"/></g></g></svg>