<?xml version="1.0" encoding="UTF-8"?><svg id="uuid-0b075a7b-9fde-4506-8139-f0c2ab4c1e6d" xmlns="http://www.w3.org/2000/svg" xmlns:xlink="http://www.w3.org/1999/xlink" viewBox="0 0 3779.02 2705.06"><defs><clipPath id="uuid-1db3429b-5405-475f-81e3-bdade0c6ca32"><rect width="3779.02" height="2705.06" style="fill:none;"/></clipPath></defs><g id="uuid-dcab455c-3660-4511-9fb9-cadd6beefe98"><g style="clip-path:url(#uuid-1db3429b-5405-475f-81e3-bdade0c6ca32);"><g><circle cx="43.39" cy="43.39" r="43.39"/><circle cx="227.77" cy="43.39" r="43.39"/><circle cx="412.14" cy="43.39" r="43.39"/><circle cx="596.52" cy="43.39" r="43.39"/><circle cx="780.89" cy="43.39" r="43.39"/><circle cx="965.27" cy="43.39" r="43.39"/><circle cx="1149.64" cy="43.39" r="43.39"/><circle cx="1334.02" cy="43.39" r="43.39"/><circle cx="1518.39" cy="43.39" r="43.39"/><circle cx="1702.77" cy="43.39" r="43.39"/><circle cx="1887.14" cy="43.39" r="43.39"/><circle cx="2071.52" cy="43.39" r="43.39"/><circle cx="2255.89" cy="43.39" r="43.39"/><circle cx="2440.27" cy="43.39" r="43.39"/><circle cx="2624.64" cy="43.39" r="43.39"/><circle cx="2809.02" cy="43.39" r="43.39"/><circle cx="2993.39" cy="43.39" r="43.39"/><circle cx="3177.77" cy="43.39" r="43.39"/><circle cx="3362.14" cy="43.39" r="43.39"/><circle cx="3546.52" cy="43.39" r="43.39"/><circle cx="3730.89" cy="43.39" r="43.39"/><circle cx="43.39" cy="197.09" r="43.39"/><circle cx="227.77" cy="197.09" r="43.39"/><circle cx="412.14" cy="197.09" r="43.39"/><circle cx="596.52" cy="197.09" r="43.39"/><circle cx="780.89" cy="197.09" r="43.39"/><circle cx="965.27" cy="197.09" r="43.39"/><circle cx="1149.64" cy="197.09" r="43.39"/><circle cx="1334.02" cy="197.09" r="43.39"/><circle cx="1518.39" cy="197.09" r="43.39"/><circle cx="1702.77" cy="197.09" r="43.39"/><circle cx="1887.14" cy="197.09" r="43.39"/><circle cx="2071.52" cy="197.09" r="43.39"/><circle cx="2255.89" cy="197.09" r="43.39"/><circle cx="2440.27" cy="197.09" r="43.39"/><circle cx="2624.64" cy="197.09" r="43.39"/><circle cx="2809.02" cy="197.09" r="43.39"/><circle cx="2993.39" cy="197.09" r="43.39"/><circle cx="3177.77" cy="197.09" r="43.39"/><circle cx="3362.14" cy="197.09" r="43.39"/><circle cx="3546.52" cy="197.09" r="43.39"/><circle cx="3730.89" cy="197.09" r="43.39"/><circle cx="43.39" cy="350.78" r="43.39"/><circle cx="227.77" cy="350.78" r="43.39"/><circle cx="412.14" cy="350.78" r="43.39"/><circle cx="596.52" cy="350.78" r="43.39"/><circle cx="780.89" cy="350.78" r="43.39"/><circle cx="965.27" cy="350.78" r="43.39"/><circle cx="1149.64" cy="350.78" r="43.39"/><circle cx="1334.02" cy="350.78" r="43.39"/><circle cx="1518.39" cy="350.78" r="43.39"/><circle cx="1702.77" cy="350.78" r="43.39"/><circle cx="1887.14" cy="350.78" r="43.39"/><circle cx="2071.52" cy="350.78" r="43.39"/><circle cx="2255.89" cy="350.78" r="43.39"/><circle cx="2440.27" cy="350.78" r="43.39"/><circle cx="2624.64" cy="350.78" r="43.39"/><circle cx="2809.02" cy="350.78" r="43.39"/><circle cx="2993.39" cy="350.78" r="43.39"/><circle cx="3177.77" cy="350.78" r="43.39"/><circle cx="3362.14" cy="350.78" r="43.39"/><circle cx="3546.52" cy="350.78" r="43.39"/><circle cx="3730.89" cy="350.78" r="43.39"/><circle cx="43.39" cy="504.47" r="43.39"/><circle cx="227.77" cy="504.47" r="43.39"/><circle cx="412.14" cy="504.47" r="43.39"/><circle cx="596.52" cy="504.47" r="43.39"/><circle cx="780.89" cy="504.47" r="43.39"/><circle cx="965.27" cy="504.47" r="43.39"/><circle cx="1149.64" cy="504.47" r="43.39"/><circle cx="1334.02" cy="504.47" r="43.39"/><circle cx="1518.39" cy="504.47" r="43.39"/><circle cx="1702.77" cy="504.47" r="43.39"/><circle cx="1887.14" cy="504.47" r="43.39"/><circle cx="2071.52" cy="504.47" r="43.39"/><circle cx="2255.89" cy="504.47" r="43.39"/><circle cx="2440.27" cy="504.47" r="43.39"/><circle cx="2624.64" cy="504.47" r="43.39"/><circle cx="2809.02" cy="504.47" r="43.39"/><circle cx="2993.39" cy="504.47" r="43.39"/><circle cx="3177.77" cy="504.47" r="43.39"/><circle cx="3362.14" cy="504.47" r="43.39"/><circle cx="3546.52" cy="504.47" r="43.39"/><circle cx="3730.89" cy="504.47" r="43.39"/><circle cx="43.39" cy="658.17" r="43.39"/><circle cx="227.77" cy="658.17" r="43.39"/><circle cx="412.14" cy="658.17" r="43.39"/><circle cx="596.52" cy="658.17" r="43.39"/><circle cx="780.89" cy="658.17" r="43.39"/><circle cx="965.27" cy="658.17" r="43.39"/><circle cx="1149.64" cy="658.17" r="43.39"/><circle cx="1334.02" cy="658.17" r="43.39"/><circle cx="1518.39" cy="658.17" r="43.39"/><circle cx="1702.77" cy="658.17" r="43.39"/><circle cx="1887.14" cy="658.17" r="43.39"/><circle cx="2071.52" cy="658.17" r="43.39"/><circle cx="2255.89" cy="658.17" r="43.39"/><circle cx="2440.27" cy="658.17" r="43.39"/><circle cx="2624.64" cy="658.17" r="43.39"/><circle cx="2809.02" cy="658.17" r="43.39"/><circle cx="2993.39" cy="658.17" r="43.39"/><circle cx="3177.77" cy="658.17" r="43.39"/><circle cx="3362.14" cy="658.17" r="43.39"/><circle cx="3546.52" cy="658.17" r="43.39"/><circle cx="3730.89" cy="658.17" r="43.39"/><circle cx="43.39" cy="811.86" r="43.39"/><circle cx="227.77" cy="811.86" r="43.39"/><circle cx="412.14" cy="811.86" r="43.39"/><circle cx="596.52" cy="811.86" r="43.39"/><circle cx="780.89" cy="811.86" r="43.39"/><circle cx="965.27" cy="811.86" r="43.39"/><circle cx="1149.64" cy="811.86" r="43.39"/><circle cx="1334.02" cy="811.86" r="43.39"/><circle cx="1518.39" cy="811.86" r="43.39"/><circle cx="1702.77" cy="811.86" r="43.39"/><circle cx="1887.14" cy="811.86" r="43.39"/><circle cx="2071.52" cy="811.86" r="43.39"/><circle cx="2255.89" cy="811.86" r="43.39"/><circle cx="2440.27" cy="811.86" r="43.39"/><circle cx="2624.64" cy="811.86" r="43.39"/><circle cx="2809.02" cy="811.86" r="43.39"/><circle cx="2993.39" cy="811.86" r="43.39"/><circle cx="3177.77" cy="811.86" r="43.39"/><circle cx="3362.14" cy="811.86" r="43.39"/><circle cx="3546.52" cy="811.86" r="43.39"/><circle cx="3730.89" cy="811.86" r="43.39"/><circle cx="43.39" cy="965.56" r="43.39"/><circle cx="227.77" cy="965.56" r="43.39"/><circle cx="412.14" cy="965.56" r="43.39"/><circle cx="596.52" cy="965.56" r="43.39"/><circle cx="780.89" cy="965.56" r="43.39"/><circle cx="965.27" cy="965.56" r="43.39"/><circle cx="1149.64" cy="965.56" r="43.39"/><circle cx="1334.02" cy="965.56" r="43.39"/><circle cx="1518.39" cy="965.56" r="43.39"/><circle cx="1702.77" cy="965.56" r="43.39"/><circle cx="1887.14" cy="965.56" r="43.39"/><circle cx="2071.52" cy="965.56" r="43.39"/><circle cx="2255.89" cy="965.56" r="43.39"/><circle cx="2440.27" cy="965.56" r="43.39"/><circle cx="2624.64" cy="965.56" r="43.39"/><circle cx="2809.02" cy="965.56" r="43.39"/><circle cx="2993.39" cy="965.56" r="43.39"/><circle cx="3177.77" cy="965.56" r="43.39"/><circle cx="3362.14" cy="965.56" r="43.39"/><circle cx="3546.52" cy="965.56" r="43.39"/><circle cx="3730.89" cy="965.56" r="43.39"/><circle cx="43.39" cy="1119.25" r="43.39"/><circle cx="227.77" cy="1119.25" r="43.39"/><circle cx="412.14" cy="1119.25" r="43.39"/><circle cx="596.52" cy="1119.25" r="43.39"/><circle cx="780.89" cy="1119.25" r="43.39"/><circle cx="965.27" cy="1119.25" r="43.39"/><circle cx="1149.64" cy="1119.25" r="43.39"/><circle cx="1334.02" cy="1119.25" r="43.39"/><circle cx="1518.39" cy="1119.25" r="43.39"/><circle cx="1702.77" cy="1119.25" r="43.39"/><circle cx="1887.14" cy="1119.25" r="43.39"/><circle cx="2071.52" cy="1119.25" r="43.39"/><circle cx="2255.89" cy="1119.25" r="43.39"/><circle cx="2440.27" cy="1119.25" r="43.39"/><circle cx="2624.64" cy="1119.25" r="43.39"/><circle cx="2809.02" cy="1119.25" r="43.39"/><circle cx="2993.39" cy="1119.25" r="43.39"/><circle cx="3177.77" cy="1119.25" r="43.39"/><circle cx="3362.14" cy="1119.25" r="43.39"/><circle cx="3546.52" cy="1119.25" r="43.39"/><circle cx="3730.89" cy="1119.25" r="43.39"/><circle cx="43.39" cy="1272.94" r="43.39"/><circle cx="227.77" cy="1272.94" r="43.39"/><circle cx="412.14" cy="1272.94" r="43.39"/><circle cx="596.52" cy="1272.94" r="43.39"/><circle cx="780.89" cy="1272.94" r="43.39"/><circle cx="965.27" cy="1272.94" r="43.39"/><circle cx="1149.64" cy="1272.94" r="43.39"/><circle cx="1334.02" cy="1272.94" r="43.39"/><circle cx="1518.39" cy="1272.94" r="43.39"/><circle cx="1702.77" cy="1272.94" r="43.39"/><circle cx="1887.14" cy="1272.94" r="43.39"/><circle cx="2071.52" cy="1272.94" r="43.39"/><circle cx="2255.89" cy="1272.94" r="43.39"/><circle cx="2440.27" cy="1272.94" r="43.39"/><circle cx="2624.64" cy="1272.94" r="43.39"/><circle cx="2809.02" cy="1272.94" r="43.39"/><circle cx="2993.39" cy="1272.94" r="43.39"/><circle cx="3177.77" cy="1272.94" r="43.39"/><circle cx="3362.14" cy="1272.94" r="43.39"/><circle cx="3546.52" cy="1272.94" r="43.39"/><circle cx="3730.89" cy="1272.94" r="43.39"/><circle cx="43.39" cy="1426.64" r="43.39"/><circle cx="227.77" cy="1426.64" r="43.39"/><circle cx="412.14" cy="1426.64" r="43.39"/><circle cx="596.52" cy="1426.64" r="43.39"/><circle cx="780.89" cy="1426.64" r="43.39"/><circle cx="965.27" cy="1426.64" r="43.39"/><circle cx="1149.64" cy="1426.64" r="43.39"/><circle cx="1334.02" cy="1426.64" r="43.39"/><circle cx="1518.39" cy="1426.64" r="43.39"/><circle cx="1702.77" cy="1426.64" r="43.39"/><circle cx="1887.14" cy="1426.64" r="43.39"/><circle cx="2071.52" cy="1426.64" r="43.39"/><circle cx="2255.89" cy="1426.64" r="43.39"/><circle cx="2440.27" cy="1426.64" r="43.39"/><circle cx="2624.64" cy="1426.64" r="43.39"/><circle cx="2809.02" cy="1426.64" r="43.39"/><circle cx="2993.39" cy="1426.64" r="43.39"/><circle cx="3177.77" cy="1426.64" r="43.39"/><circle cx="3362.14" cy="1426.64" r="43.39"/><circle cx="3546.52" cy="1426.64" r="43.39"/><circle cx="3730.89" cy="1426.64" r="43.39"/><circle cx="43.39" cy="1580.33" r="43.39"/><circle cx="227.77" cy="1580.33" r="43.39"/><circle cx="412.14" cy="1580.33" r="43.39"/><circle cx="596.52" cy="1580.33" r="43.39"/><circle cx="780.89" cy="1580.33" r="43.39"/><circle cx="965.27" cy="1580.33" r="43.39"/><circle cx="1149.64" cy="1580.33" r="43.39"/><circle cx="1334.02" cy="1580.33" r="43.39"/><circle cx="1518.39" cy="1580.33" r="43.39"/><circle cx="1702.77" cy="1580.33" r="43.39"/><circle cx="1887.14" cy="1580.33" r="43.39"/><circle cx="2071.52" cy="1580.33" r="43.39"/><circle cx="2255.89" cy="1580.33" r="43.39"/><circle cx="2440.27" cy="1580.33" r="43.39"/><circle cx="2624.64" cy="1580.33" r="43.39"/><circle cx="2809.02" cy="1580.33" r="43.39"/><circle cx="2993.39" cy="1580.33" r="43.39"/><circle cx="3177.77" cy="1580.33" r="43.39"/><circle cx="3362.14" cy="1580.33" r="43.39"/><circle cx="3546.52" cy="1580.33" r="43.39"/><circle cx="3730.89" cy="1580.33" r="43.39"/><circle cx="43.39" cy="1734.03" r="43.39"/><circle cx="227.77" cy="1734.03" r="43.39"/><circle cx="412.14" cy="1734.03" r="43.39"/><circle cx="596.52" cy="1734.03" r="43.39"/><circle cx="780.89" cy="1734.03" r="43.39"/><circle cx="965.27" cy="1734.03" r="43.39"/><circle cx="1149.64" cy="1734.03" r="43.39"/><circle cx="1334.02" cy="1734.03" r="43.39"/><circle cx="1518.39" cy="1734.03" r="43.39"/><circle cx="1702.77" cy="1734.03" r="43.39"/><circle cx="1887.14" cy="1734.03" r="43.39"/><circle cx="2071.52" cy="1734.03" r="43.39"/><circle cx="2255.89" cy="1734.03" r="43.39"/><circle cx="2440.27" cy="1734.03" r="43.39"/><circle cx="2624.64" cy="1734.03" r="43.39"/><circle cx="2809.02" cy="1734.03" r="43.39"/><circle cx="2993.39" cy="1734.03" r="43.39"/><circle cx="3177.77" cy="1734.03" r="43.39"/><circle cx="3362.14" cy="1734.03" r="43.39"/><circle cx="3546.52" cy="1734.03" r="43.39"/><circle cx="3730.89" cy="1734.03" r="43.39"/><circle cx="43.39" cy="1887.72" r="43.39"/><circle cx="227.77" cy="1887.72" r="43.39"/><circle cx="412.14" cy="1887.72" r="43.39"/><circle cx="596.52" cy="1887.72" r="43.39"/><circle cx="780.89" cy="1887.72" r="43.39"/><circle cx="965.27" cy="1887.72" r="43.39"/><circle cx="1149.64" cy="1887.72" r="43.39"/><circle cx="1334.02" cy="1887.72" r="43.39"/><circle cx="1518.39" cy="1887.72" r="43.39"/><circle cx="1702.77" cy="1887.72" r="43.39"/><circle cx="1887.14" cy="1887.72" r="43.39"/><circle cx="2071.52" cy="1887.72" r="43.39"/><circle cx="2255.89" cy="1887.72" r="43.39"/><circle cx="2440.27" cy="1887.72" r="43.39"/><circle cx="2624.64" cy="1887.72" r="43.39"/><circle cx="2809.02" cy="1887.72" r="43.39"/><circle cx="2993.39" cy="1887.72" r="43.39"/><circle cx="3177.77" cy="1887.72" r="43.39"/><circle cx="3362.14" cy="1887.72" r="43.39"/><circle cx="3546.52" cy="1887.72" r="43.39"/><circle cx="3730.89" cy="1887.72" r="43.39"/><circle cx="43.39" cy="2041.41" r="43.39"/><circle cx="227.77" cy="2041.41" r="43.39"/><circle cx="412.14" cy="2041.41" r="43.39"/><circle cx="596.52" cy="2041.41" r="43.39"/><circle cx="780.89" cy="2041.41" r="43.39"/><circle cx="965.27" cy="2041.41" r="43.39"/><circle cx="1149.64" cy="2041.41" r="43.39"/><circle cx="1334.02" cy="2041.41" r="43.39"/><circle cx="1518.39" cy="2041.41" r="43.39"/><circle cx="1702.77" cy="2041.41" r="43.39"/><circle cx="1887.14" cy="2041.41" r="43.39"/><circle cx="2071.52" cy="2041.41" r="43.39"/><circle cx="2255.89" cy="2041.41" r="43.39"/><circle cx="2440.27" cy="2041.41" r="43.39"/><circle cx="2624.64" cy="2041.41" r="43.39"/><circle cx="2809.02" cy="2041.41" r="43.39"/><circle cx="2993.39" cy="2041.41" r="43.39"/><circle cx="3177.77" cy="2041.41" r="43.39"/><circle cx="3362.14" cy="2041.41" r="43.39"/><circle cx="3546.52" cy="2041.41" r="43.39"/><circle cx="3730.89" cy="2041.41" r="43.39"/><circle cx="43.39" cy="2195.11" r="43.39"/><circle cx="227.77" cy="2195.11" r="43.39"/><circle cx="412.14" cy="2195.11" r="43.39"/><circle cx="596.52" cy="2195.11" r="43.39"/><circle cx="780.89" cy="2195.11" r="43.39"/><circle cx="965.27" cy="2195.11" r="43.39"/><circle cx="1149.64" cy="2195.11" r="43.39"/><circle cx="1334.02" cy="2195.11" r="43.39"/><circle cx="1518.39" cy="2195.11" r="43.39"/><circle cx="1702.77" cy="2195.11" r="43.39"/><circle cx="1887.14" cy="2195.11" r="43.39"/><circle cx="2071.52" cy="2195.11" r="43.39"/><circle cx="2255.89" cy="2195.11" r="43.39"/><circle cx="2440.27" cy="2195.11" r="43.39"/><circle cx="2624.64" cy="2195.11" r="43.39"/><circle cx="2809.02" cy="2195.11" r="43.39"/><circle cx="2993.39" cy="2195.11" r="43.39"/><circle cx="3177.77" cy="2195.11" r="43.39"/><circle cx="3362.14" cy="2195.11" r="43.39"/><circle cx="3546.52" cy="2195.11" r="43.39"/><circle cx="3730.89" cy="2195.11" r="43.39"/><circle cx="43.39" cy="2348.8" r="43.39"/><circle cx="227.77" cy="2348.8" r="43.39"/><circle cx="412.14" cy="2348.8" r="43.39"/><circle cx="596.52" cy="2348.8" r="43.39"/><circle cx="780.89" cy="2348.8" r="43.39"/><circle cx="965.27" cy="2348.8" r="43.39"/><circle cx="1149.64" cy="2348.8" r="43.39"/><circle cx="1334.02" cy="2348.8" r="43.39"/><circle cx="1518.39" cy="2348.8" r="43.39"/><circle cx="1702.77" cy="2348.8" r="43.39"/><circle cx="1887.14" cy="2348.8" r="43.39"/><circle cx="2071.52" cy="2348.8" r="43.39"/><circle cx="2255.89" cy="2348.8" r="43.39"/><circle cx="2440.27" cy="2348.8" r="43.39"/><circle cx="2624.64" cy="2348.8" r="43.39"/><circle cx="2809.02" cy="2348.8" r="43.39"/><circle cx="2993.39" cy="2348.8" r="43.39"/><circle cx="3177.77" cy="2348.8" r="43.39"/><circle cx="3362.14" cy="2348.8" r="43.39"/><circle cx="3546.52" cy="2348.8" r="43.39"/><circle cx="3730.89" cy="2348.8" r="43.39"/><circle cx="43.39" cy="2502.49" r="43.39"/><circle cx="227.77" cy="2502.49" r="43.39"/><circle cx="412.14" cy="2502.49" r="43.39"/><circle cx="596.52" cy="2502.49" r="43.39"/><circle cx="780.89" cy="2502.49" r="43.39"/><circle cx="965.27" cy="2502.49" r="43.39"/><circle cx="1149.64" cy="2502.49" r="43.39"/><circle cx="1334.02" cy="2502.49" r="43.39"/><circle cx="1518.39" cy="2502.49" r="43.39"/><circle cx="1702.77" cy="2502.49" r="43.39"/><circle cx="1887.14" cy="2502.49" r="43.39"/><circle cx="2071.52" cy="2502.49" r="43.39"/><circle cx="2255.89" cy="2502.49" r="43.39"/><circle cx="2440.27" cy="2502.49" r="43.39"/><circle cx="2624.64" cy="2502.49" r="43.39"/><circle cx="2809.02" cy="2502.49" r="43.39"/><circle cx="2993.39" cy="2502.49" r="43.39"/><circle cx="3177.77" cy="2502.49" r="43.39"/><circle cx="3362.14" cy="2502.49" r="43.39"/><circle cx="3546.52" cy="2502.49" r="43.39"/><circle cx="3730.89" cy="2502.49" r="43.39"/><circle cx="43.39" cy="2656.19" r="43.39"/><circle cx="227.77" cy="2656.19" r="43.39"/><circle cx="412.14" cy="2656.19" r="43.39"/><circle cx="596.52" cy="2656.19" r="43.39"/><circle cx="780.89" cy="2656.19" r="43.39"/><circle cx="965.27" cy="2656.19" r="43.39"/><circle cx="1149.64" cy="2656.19" r="43.39"/><circle cx="1334.02" cy="2656.19" r="43.39"/><circle cx="1518.39" cy="2656.19" r="43.39"/><circle cx="1702.77" cy="2656.19" r="43.39"/><circle cx="1887.14" cy="2656.19" r="43.39"/><circle cx="2071.52" cy="2656.19" r="43.39"/><circle cx="2255.89" cy="2656.19" r="43.39"/><circle cx="2440.27" cy="2656.19" r="43.39"/><circle cx="2624.64" cy="2656.19" r="43.39"/><circle cx="2809.02" cy="2656.19" r="43.39"/><circle cx="2993.39" cy="2656.19" r="43.39"/><circle cx="3177.77" cy="2656.19" r="43.39"/><circle cx="3362.14" cy="2656.19" r="43.39"/><circle cx="3546.52" cy="2656.19" r="43.39"/><circle cx="3730.89" cy="2656.19" r="43.39"/></g></g></g></svg>