<?xml version="1.0" encoding="UTF-8"?><svg id="uuid-52989c7a-e170-43d6-9061-1251ff581782" xmlns="http://www.w3.org/2000/svg" viewBox="0 0 1070.19 633.21"><g id="uuid-4ae70d94-1f5b-4331-abe2-535ff5c35104"><g><g><path d="M4.4,104.78V.73H43.23c8.6,0,16.12,1.37,22.57,4.1,6.45,2.74,11.84,6.45,16.19,11.14,4.35,4.69,7.62,10.18,9.82,16.49s3.3,13.02,3.3,20.15c0,7.91-1.22,15.07-3.66,21.47-2.44,6.4-5.94,11.87-10.48,16.41-4.54,4.54-10.02,8.06-16.41,10.55-6.4,2.49-13.51,3.74-21.32,3.74H4.4ZM70.63,52.61c0-4.59-.61-8.77-1.83-12.53-1.22-3.76-3-7.01-5.35-9.75-2.34-2.73-5.23-4.84-8.65-6.3-3.42-1.47-7.28-2.2-11.58-2.2h-14.8v61.84h14.8c4.4,0,8.3-.78,11.72-2.34,3.42-1.56,6.28-3.74,8.57-6.52,2.29-2.78,4.05-6.06,5.28-9.82,1.22-3.76,1.83-7.89,1.83-12.38Z"/><path d="M109.47,104.78V.73h24.03V104.78h-24.03Z"/><path d="M220.84,94.67c-3.71,3.71-7.64,6.45-11.8,8.21-4.15,1.76-8.67,2.64-13.56,2.64-6.55,0-12.73-1.47-18.54-4.4-5.81-2.93-10.89-6.84-15.24-11.72-4.35-4.88-7.79-10.57-10.33-17.07-2.54-6.5-3.81-13.26-3.81-20.3s1.27-13.87,3.81-20.22c2.54-6.35,6.06-11.87,10.55-16.56,4.49-4.69,9.77-8.4,15.83-11.14,6.06-2.73,12.6-4.1,19.64-4.1,9.18,0,17.24,2.03,24.18,6.08,6.94,4.06,12.11,9.6,15.54,16.63l-18.03,13.48c-2.15-4.69-5.25-8.33-9.31-10.92-4.06-2.59-8.43-3.88-13.12-3.88-3.71,0-7.06,.81-10.04,2.42-2.98,1.61-5.57,3.86-7.77,6.74-2.2,2.88-3.88,6.23-5.06,10.04-1.17,3.81-1.76,7.91-1.76,12.31s.63,8.65,1.9,12.46c1.27,3.81,3.03,7.11,5.28,9.89,2.25,2.78,4.93,4.96,8.06,6.52,3.13,1.56,6.54,2.34,10.26,2.34,4.3,0,8.4-1.05,12.31-3.15,3.91-2.1,7.57-5.3,10.99-9.6v-3.52h-20.08v-17.44h40.01v54.37h-19.93v-10.11Z"/><path d="M256.74,104.78V.73h24.03V104.78h-24.03Z"/><path d="M379.98,21.83h-31.65V104.78h-24.03V21.83h-31.8V.73h87.49V21.83Z"/><path d="M372.21,104.78L412.22,.73h19.49l39.86,104.04h-25.5l-8.06-23.3h-32.39l-7.91,23.3h-25.5Zm49.68-78.55l-12.46,38.69h24.47l-12.02-38.69Z"/><path d="M481.09,104.78V.73h24.03V83.68h50.41v21.1h-74.44Z"/></g><g><path d="M86.46,280.63v-62.28l-22.57,45.28h-12.9l-22.57-45.28v62.28H4.4v-104.04H30.48l26.96,54.37,27.11-54.37h25.94v104.04h-24.03Z" style="fill:none; stroke:#368ba3; stroke-width:4px;"/><path d="M120.16,280.63l40.01-104.04h19.49l39.86,104.04h-25.5l-8.06-23.3h-32.39l-7.91,23.3h-25.5Zm49.68-78.55l-12.46,38.69h24.47l-12.02-38.69Z" style="fill:none; stroke:#368ba3; stroke-width:4px;"/><path d="M229.04,280.63v-104.04h46.89c4.88,0,9.4,1.03,13.55,3.08,4.15,2.05,7.74,4.74,10.77,8.06,3.03,3.32,5.4,7.08,7.11,11.28,1.71,4.2,2.56,8.45,2.56,12.75,0,3.22-.39,6.33-1.17,9.31-.78,2.98-1.91,5.79-3.37,8.43-1.47,2.64-3.25,5.01-5.35,7.11-2.1,2.1-4.47,3.88-7.11,5.35l23.89,38.69h-27.11l-20.96-33.56h-15.68v33.56h-24.03Zm24.03-54.51h21.98c2.83,0,5.28-1.34,7.33-4.03,2.05-2.69,3.08-6.13,3.08-10.33s-1.17-7.72-3.52-10.26c-2.34-2.54-4.89-3.81-7.62-3.81h-21.25v28.43Z" style="fill:none; stroke:#368ba3; stroke-width:4px;"/><path d="M328.69,280.63v-104.04h24.03v46.89l40.15-46.89h24.91l-38.98,46.45,41.62,57.59h-25.35l-30.48-44.11-11.87,12.9v31.21h-24.03Z" style="fill:none; stroke:#368ba3; stroke-width:4px;"/><path d="M501.02,259.53v21.1h-73.12v-104.04h71.81v21.1h-47.77v20.22h41.03v19.49h-41.03v22.13h49.09Z" style="fill:none; stroke:#368ba3; stroke-width:4px;"/><path d="M595.25,197.69h-31.65v82.94h-24.03v-82.94h-31.8v-21.1h87.49v21.1Z" style="fill:none; stroke:#368ba3; stroke-width:4px;"/><path d="M607.12,280.63v-104.04h24.03v104.04h-24.03Z" style="fill:none; stroke:#368ba3; stroke-width:4px;"/><path d="M675.11,221.13v59.5h-24.03v-104.04h18.76l48.5,61.11v-61.11h24.03v104.04h-19.34l-47.92-59.5Z" style="fill:none; stroke:#368ba3; stroke-width:4px;"/><path d="M829.71,270.52c-3.71,3.71-7.65,6.45-11.8,8.21-4.15,1.76-8.67,2.64-13.55,2.64-6.55,0-12.73-1.46-18.54-4.4-5.81-2.93-10.89-6.84-15.24-11.72-4.35-4.88-7.79-10.57-10.33-17.07-2.54-6.5-3.81-13.26-3.81-20.3s1.27-13.87,3.81-20.22c2.54-6.35,6.06-11.87,10.55-16.56,4.49-4.69,9.77-8.4,15.83-11.14,6.06-2.73,12.6-4.1,19.64-4.1,9.18,0,17.24,2.03,24.18,6.08,6.94,4.06,12.11,9.6,15.53,16.63l-18.03,13.48c-2.15-4.69-5.25-8.33-9.3-10.92-4.06-2.59-8.43-3.88-13.12-3.88-3.71,0-7.06,.81-10.04,2.42-2.98,1.61-5.57,3.86-7.77,6.74-2.2,2.88-3.88,6.23-5.06,10.04-1.17,3.81-1.76,7.91-1.76,12.31s.63,8.65,1.91,12.46c1.27,3.81,3.03,7.11,5.28,9.89,2.25,2.78,4.93,4.96,8.06,6.52,3.12,1.56,6.54,2.34,10.26,2.34,4.3,0,8.4-1.05,12.31-3.15,3.91-2.1,7.57-5.3,10.99-9.6v-3.52h-20.08v-17.44h40.01v54.37h-19.93v-10.11Z" style="fill:none; stroke:#368ba3; stroke-width:4px;"/></g><path d="M70.93,456.48l-6.89-7.18c-4.3,2.83-8.84,4.98-13.63,6.45-4.79,1.46-9.67,2.2-14.65,2.2-5.67,0-10.72-.91-15.17-2.71-4.45-1.81-8.18-4.2-11.21-7.18-3.03-2.98-5.35-6.38-6.96-10.18-1.61-3.81-2.42-7.77-2.42-11.87,0-3.13,.44-6.03,1.32-8.72,.88-2.69,2.07-5.15,3.59-7.4,1.51-2.25,3.25-4.35,5.2-6.3,1.95-1.95,4.05-3.76,6.3-5.42-1.76-2.15-3.27-4.1-4.54-5.86-1.27-1.76-2.3-3.49-3.08-5.2-.78-1.71-1.34-3.37-1.69-4.98-.34-1.61-.51-3.34-.51-5.2,0-4,.73-7.59,2.2-10.77,1.47-3.17,3.52-5.88,6.15-8.13,2.64-2.25,5.76-3.96,9.38-5.13,3.61-1.17,7.52-1.76,11.72-1.76,3.61,0,7.18,.46,10.7,1.39,3.52,.93,6.62,2.4,9.31,4.4,2.69,2,4.86,4.5,6.52,7.47,1.66,2.98,2.49,6.52,2.49,10.62,0,5.57-1.47,10.48-4.4,14.73-2.93,4.25-6.74,8.13-11.43,11.65l16.27,17.29c1.27-2.93,2.27-6.13,3-9.6,.73-3.47,1.1-7.25,1.1-11.36h19.05c-.1,7.23-.98,13.75-2.64,19.56-1.66,5.81-3.91,11.06-6.74,15.75l22.42,23.45h-30.77Zm-32.68-16.85c4.49,0,8.89-1.32,13.19-3.96l-20.66-21.98c-2.54,1.96-4.54,3.91-6.01,5.86-1.47,1.96-2.2,4.15-2.2,6.59,0,1.56,.34,3.15,1.03,4.76,.68,1.61,1.69,3.05,3,4.32,1.32,1.27,2.95,2.32,4.91,3.15,1.95,.83,4.2,1.25,6.74,1.25Zm-10.4-63.6c0,1.56,.49,3,1.47,4.32,.98,1.32,2.73,3.25,5.28,5.79,3.03-1.95,5.28-3.71,6.74-5.28,1.47-1.56,2.2-3.42,2.2-5.57s-.68-3.86-2.05-5.13c-1.37-1.27-3.18-1.9-5.42-1.9-2.54,0-4.54,.73-6.01,2.2-1.47,1.47-2.2,3.32-2.2,5.57Z"/><g><path d="M208.53,382.91c-.39-.39-1.47-1.12-3.22-2.2-1.76-1.07-3.96-2.2-6.59-3.37-2.64-1.17-5.52-2.2-8.65-3.08-3.13-.88-6.25-1.32-9.38-1.32-4.1,0-7.25,.73-9.45,2.2-2.2,1.47-3.3,3.62-3.3,6.45,0,1.76,.49,3.22,1.47,4.4,.98,1.17,2.37,2.22,4.18,3.15,1.81,.93,4.05,1.78,6.74,2.56,2.69,.78,5.79,1.66,9.31,2.64,4.98,1.37,9.48,2.86,13.48,4.47,4,1.61,7.42,3.62,10.26,6.01,2.83,2.4,5,5.3,6.52,8.72,1.51,3.42,2.27,7.52,2.27,12.31,0,5.86-1.1,10.82-3.3,14.87-2.2,4.05-5.11,7.33-8.72,9.82-3.62,2.49-7.79,4.3-12.53,5.42-4.74,1.12-9.6,1.68-14.58,1.68-3.81,0-7.69-.29-11.65-.88-3.96-.59-7.84-1.44-11.65-2.56-3.81-1.12-7.52-2.47-11.14-4.03-3.62-1.56-6.94-3.37-9.96-5.42l10.55-20.96c.49,.49,1.81,1.42,3.96,2.78,2.15,1.37,4.79,2.74,7.91,4.1,3.13,1.37,6.64,2.59,10.55,3.66,3.91,1.08,7.86,1.61,11.87,1.61,8.5,0,12.75-2.59,12.75-7.77,0-1.95-.64-3.57-1.9-4.84-1.27-1.27-3.03-2.42-5.28-3.44-2.25-1.03-4.89-1.98-7.91-2.86-3.03-.88-6.35-1.85-9.96-2.93-4.79-1.47-8.94-3.05-12.46-4.76-3.52-1.71-6.45-3.69-8.79-5.93-2.34-2.25-4.08-4.84-5.2-7.77-1.12-2.93-1.69-6.35-1.69-10.26,0-5.47,1.03-10.31,3.08-14.51,2.05-4.2,4.84-7.74,8.35-10.62,3.52-2.88,7.59-5.06,12.24-6.52,4.64-1.47,9.55-2.2,14.73-2.2,3.71,0,7.33,.34,10.84,1.03,3.52,.68,6.86,1.56,10.04,2.64,3.17,1.08,6.18,2.3,9.01,3.66,2.83,1.37,5.37,2.74,7.62,4.1l-10.4,19.93Z" style="fill:none; stroke:#368ba3; stroke-width:4px;"/><path d="M279.89,457.36c-7.43,0-14.17-1.51-20.22-4.54-6.06-3.03-11.26-7.01-15.61-11.94-4.35-4.93-7.72-10.57-10.11-16.93-2.39-6.35-3.59-12.9-3.59-19.64s1.25-13.43,3.74-19.78c2.49-6.35,5.96-11.94,10.4-16.78,4.44-4.84,9.72-8.69,15.83-11.58,6.1-2.88,12.77-4.32,20-4.32s14.16,1.52,20.22,4.54c6.06,3.03,11.26,7.03,15.61,12.02,4.35,4.98,7.69,10.65,10.04,17,2.34,6.35,3.52,12.8,3.52,19.34s-1.25,13.43-3.74,19.78c-2.49,6.35-5.93,11.94-10.33,16.78s-9.65,8.72-15.75,11.65c-6.11,2.93-12.77,4.4-20,4.4Zm-25.06-52.75c0,4.01,.56,7.89,1.69,11.65,1.12,3.76,2.73,7.11,4.84,10.04,2.1,2.93,4.74,5.28,7.91,7.03,3.17,1.76,6.81,2.64,10.92,2.64s7.86-.93,10.99-2.78c3.13-1.86,5.74-4.27,7.84-7.25,2.1-2.98,3.66-6.35,4.69-10.11,1.03-3.76,1.54-7.6,1.54-11.5s-.56-7.89-1.69-11.65c-1.12-3.76-2.76-7.08-4.91-9.96-2.15-2.88-4.79-5.18-7.91-6.89-3.13-1.71-6.69-2.56-10.7-2.56-4.2,0-7.87,.9-10.99,2.71-3.13,1.81-5.74,4.18-7.84,7.11-2.1,2.93-3.69,6.28-4.76,10.04-1.08,3.76-1.61,7.6-1.61,11.5Z" style="fill:none; stroke:#368ba3; stroke-width:4px;"/><path d="M343.78,456.48v-104.04h70.63v21.1h-46.6v22.42h38.39v19.49h-38.39v41.03h-24.03Z" style="fill:none; stroke:#368ba3; stroke-width:4px;"/><path d="M505.86,373.54h-31.65v82.94h-24.03v-82.94h-31.8v-21.1h87.49v21.1Z" style="fill:none; stroke:#368ba3; stroke-width:4px;"/><path d="M552.31,352.58h22.27l10.4,33.27,10.7-33.27h22.13l-17.44,48.36,10.55,27.99,26.23-76.5h26.08l-41.47,104.04h-20.22l-16.41-40.74-16.56,40.74h-20.08l-41.47-104.04h25.94l26.38,76.5,10.26-27.99-17.29-48.36Z" style="fill:none; stroke:#368ba3; stroke-width:4px;"/><path d="M654.01,456.48l40.01-104.04h19.49l39.86,104.04h-25.5l-8.06-23.3h-32.39l-7.91,23.3h-25.5Zm49.68-78.55l-12.46,38.69h24.47l-12.02-38.69Z" style="fill:none; stroke:#368ba3; stroke-width:4px;"/><path d="M762.89,456.48v-104.04h46.89c4.88,0,9.4,1.03,13.55,3.08,4.15,2.05,7.74,4.74,10.77,8.06,3.03,3.32,5.4,7.08,7.11,11.28,1.71,4.2,2.56,8.45,2.56,12.75,0,3.22-.39,6.33-1.17,9.31-.78,2.98-1.91,5.79-3.37,8.43-1.47,2.64-3.25,5.01-5.35,7.11-2.1,2.1-4.47,3.88-7.11,5.35l23.89,38.69h-27.11l-20.96-33.56h-15.68v33.56h-24.03Zm24.03-54.51h21.98c2.83,0,5.28-1.34,7.33-4.03,2.05-2.69,3.08-6.13,3.08-10.33s-1.17-7.72-3.52-10.26c-2.34-2.54-4.89-3.81-7.62-3.81h-21.25v28.43Z" style="fill:none; stroke:#368ba3; stroke-width:4px;"/><path d="M935.66,435.38v21.1h-73.12v-104.04h71.81v21.1h-47.77v20.22h41.03v19.49h-41.03v22.13h49.09Z" style="fill:none; stroke:#368ba3; stroke-width:4px;"/></g><g><path d="M4.4,632.33v-104.04H43.23c8.6,0,16.12,1.37,22.57,4.1,6.45,2.74,11.84,6.45,16.19,11.14,4.35,4.69,7.62,10.18,9.82,16.49s3.3,13.02,3.3,20.15c0,7.91-1.22,15.07-3.66,21.47-2.44,6.4-5.94,11.87-10.48,16.41-4.54,4.54-10.02,8.06-16.41,10.55-6.4,2.49-13.51,3.74-21.32,3.74H4.4Zm66.24-52.17c0-4.59-.61-8.77-1.83-12.53-1.22-3.76-3-7.01-5.35-9.75-2.34-2.73-5.23-4.84-8.65-6.3-3.42-1.47-7.28-2.2-11.58-2.2h-14.8v61.84h14.8c4.4,0,8.3-.78,11.72-2.34,3.42-1.56,6.28-3.74,8.57-6.52,2.29-2.78,4.05-6.06,5.28-9.82,1.22-3.76,1.83-7.89,1.83-12.38Z"/><path d="M182.59,611.23v21.1H109.47v-104.04h71.81v21.1h-47.77v20.22h41.03v19.49h-41.03v22.13h49.09Z"/><path d="M212.34,528.28l24.62,73.86,24.18-73.86h25.35l-39.57,104.04h-20.08l-39.86-104.04h25.35Z"/><path d="M369.14,611.23v21.1h-73.12v-104.04h71.81v21.1h-47.77v20.22h41.03v19.49h-41.03v22.13h49.09Z"/><path d="M384.08,632.33v-104.04h24.03v82.94h50.41v21.1h-74.44Z"/><path d="M510.84,633.21c-7.43,0-14.17-1.51-20.22-4.54-6.06-3.03-11.26-7.01-15.61-11.94-4.35-4.93-7.72-10.57-10.11-16.93-2.39-6.35-3.59-12.9-3.59-19.64s1.25-13.43,3.74-19.78c2.49-6.35,5.96-11.94,10.4-16.78,4.44-4.84,9.72-8.69,15.83-11.58,6.1-2.88,12.77-4.32,20-4.32s14.16,1.52,20.22,4.54c6.06,3.03,11.26,7.03,15.61,12.02,4.35,4.98,7.69,10.65,10.04,17,2.34,6.35,3.52,12.8,3.52,19.34s-1.25,13.43-3.74,19.78c-2.49,6.35-5.93,11.94-10.33,16.78s-9.65,8.72-15.75,11.65c-6.11,2.93-12.77,4.4-20,4.4Zm-25.06-52.75c0,4.01,.56,7.89,1.69,11.65,1.12,3.76,2.73,7.11,4.84,10.04,2.1,2.93,4.74,5.28,7.91,7.03,3.17,1.76,6.81,2.64,10.92,2.64s7.86-.93,10.99-2.78c3.13-1.86,5.74-4.27,7.84-7.25,2.1-2.98,3.66-6.35,4.69-10.11,1.03-3.76,1.54-7.6,1.54-11.5s-.56-7.89-1.69-11.65c-1.12-3.76-2.76-7.08-4.91-9.96-2.15-2.88-4.79-5.18-7.91-6.89-3.13-1.71-6.69-2.56-10.7-2.56-4.2,0-7.87,.9-10.99,2.71-3.13,1.81-5.74,4.18-7.84,7.11-2.1,2.93-3.69,6.28-4.76,10.04-1.08,3.76-1.61,7.6-1.61,11.5Z"/><path d="M574.73,632.33v-104.04h44.4c4.98,0,9.55,1.03,13.7,3.08,4.15,2.05,7.72,4.74,10.7,8.06,2.98,3.32,5.32,7.08,7.03,11.28,1.71,4.2,2.56,8.45,2.56,12.75,0,4.59-.81,8.99-2.42,13.19-1.61,4.2-3.86,7.96-6.74,11.28-2.88,3.32-6.38,5.96-10.48,7.91-4.1,1.96-8.65,2.93-13.63,2.93h-21.1v33.56h-24.03Zm24.03-54.51h19.64c2.83,0,5.28-1.22,7.33-3.66,2.05-2.44,3.08-6.01,3.08-10.7,0-2.44-.32-4.54-.95-6.3-.64-1.76-1.49-3.22-2.56-4.4-1.08-1.17-2.3-2.03-3.66-2.56-1.37-.54-2.74-.81-4.1-.81h-18.76v28.43Z"/><path d="M747.65,632.33v-62.28l-22.57,45.28h-12.9l-22.57-45.28v62.28h-24.03v-104.04h26.08l26.96,54.37,27.11-54.37h25.94v104.04h-24.03Z"/><path d="M864.74,611.23v21.1h-73.12v-104.04h71.81v21.1h-47.77v20.22h41.03v19.49h-41.03v22.13h49.09Z"/><path d="M903.72,572.83v59.5h-24.03v-104.04h18.76l48.5,61.11v-61.11h24.03v104.04h-19.34l-47.92-59.5Z"/><path d="M1070.19,549.39h-31.65v82.94h-24.03v-82.94h-31.8v-21.1h87.49v21.1Z"/></g></g></g></svg>