<?xml version="1.0" encoding="UTF-8"?><svg id="uuid-5cd52ecb-91c7-4d8f-a884-c101a2ad6d51" xmlns="http://www.w3.org/2000/svg" xmlns:xlink="http://www.w3.org/1999/xlink" viewBox="0 0 5539.64 2244.35"><defs><clipPath id="uuid-d9a5b155-780d-49f9-8358-092a3d336b80"><rect y="0" width="5539.64" height="2244.35" style="fill:none;"/></clipPath></defs><g id="uuid-3b0d594d-a619-49f2-a14a-9034dd0d1f86"><g style="clip-path:url(#uuid-d9a5b155-780d-49f9-8358-092a3d336b80);"><g><path d="M1848.05,107.46c-44.15,0-66.21-25.77-87.54-50.7-20.88-24.4-40.61-47.44-80.46-47.44s-59.58,23.04-80.46,47.44c-21.33,24.93-43.4,50.7-87.54,50.7s-66.21-25.77-87.54-50.7c-20.88-24.4-40.61-47.44-80.46-47.44s-59.58,23.04-80.46,47.44c-21.34,24.93-43.4,50.7-87.54,50.7s-66.21-25.77-87.54-50.7c-20.88-24.4-40.61-47.44-80.46-47.44s-59.58,23.04-80.46,47.44c-21.33,24.93-43.4,50.7-87.54,50.7s-66.21-25.77-87.54-50.7c-20.88-24.4-40.61-47.44-80.46-47.44s-59.58,23.04-80.46,47.44c-21.34,24.93-43.4,50.7-87.54,50.7s-66.21-25.77-87.54-50.7c-20.88-24.4-40.61-47.44-80.46-47.44s-59.58,23.04-80.46,47.44c-21.33,24.93-43.4,50.7-87.54,50.7s-66.21-25.77-87.54-50.7C59.58,32.37,39.86,9.32,0,9.32V0C44.15,0,66.21,25.77,87.54,50.7c20.88,24.4,40.61,47.44,80.46,47.44s59.58-23.04,80.46-47.44C269.8,25.77,291.86,0,336.01,0s66.21,25.77,87.54,50.7c20.88,24.4,40.61,47.44,80.46,47.44s59.58-23.04,80.46-47.44C605.8,25.77,627.87,0,672.01,0s66.21,25.77,87.54,50.7c20.88,24.4,40.61,47.44,80.46,47.44s59.58-23.04,80.46-47.44C941.81,25.77,963.87,0,1008.02,0s66.21,25.77,87.54,50.7c20.88,24.4,40.61,47.44,80.46,47.44s59.58-23.04,80.46-47.44C1277.82,25.77,1299.88,0,1344.03,0s66.21,25.77,87.54,50.7c20.88,24.4,40.61,47.44,80.46,47.44s59.58-23.04,80.46-47.44C1613.83,25.77,1635.89,0,1680.04,0s66.21,25.77,87.55,50.7c20.88,24.4,40.61,47.44,80.46,47.44s59.58-23.04,80.46-47.44C1949.85,25.77,1971.91,0,2016.06,0V9.32c-39.86,0-59.58,23.04-80.46,47.44-21.33,24.93-43.4,50.7-87.54,50.7Z"/><path d="M3869.01,107.46c-44.15,0-66.21-25.77-87.54-50.7-20.88-24.4-40.61-47.44-80.46-47.44s-59.58,23.04-80.46,47.44c-21.33,24.93-43.4,50.7-87.54,50.7s-66.21-25.77-87.54-50.7c-20.88-24.4-40.61-47.44-80.46-47.44s-59.58,23.04-80.46,47.44c-21.34,24.93-43.4,50.7-87.54,50.7s-66.21-25.77-87.54-50.7c-20.88-24.4-40.61-47.44-80.46-47.44s-59.58,23.04-80.46,47.44c-21.33,24.93-43.4,50.7-87.54,50.7s-66.21-25.77-87.54-50.7c-20.88-24.4-40.61-47.44-80.46-47.44s-59.58,23.04-80.46,47.44c-21.34,24.93-43.4,50.7-87.54,50.7s-66.21-25.77-87.54-50.7c-20.88-24.4-40.61-47.44-80.46-47.44s-59.58,23.04-80.46,47.44c-21.33,24.93-43.4,50.7-87.54,50.7s-66.21-25.77-87.54-50.7c-20.88-24.4-40.61-47.44-80.46-47.44V0C2065.11,0,2087.17,25.77,2108.51,50.7c20.88,24.4,40.61,47.44,80.46,47.44s59.58-23.04,80.46-47.44C2290.76,25.77,2312.82,0,2356.97,0s66.21,25.77,87.54,50.7c20.88,24.4,40.61,47.44,80.46,47.44s59.58-23.04,80.46-47.44C2626.77,25.77,2648.83,0,2692.98,0s66.21,25.77,87.54,50.7c20.88,24.4,40.61,47.44,80.46,47.44s59.58-23.04,80.46-47.44C2962.78,25.77,2984.84,0,3028.98,0s66.21,25.77,87.54,50.7c20.88,24.4,40.61,47.44,80.46,47.44s59.58-23.04,80.46-47.44C3298.79,25.77,3320.85,0,3364.99,0s66.21,25.77,87.54,50.7c20.88,24.4,40.61,47.44,80.46,47.44s59.58-23.04,80.46-47.44C3634.8,25.77,3656.86,0,3701,0s66.21,25.77,87.55,50.7c20.88,24.4,40.61,47.44,80.46,47.44s59.58-23.04,80.46-47.44C3970.81,25.77,3992.87,0,4037.02,0V9.32c-39.86,0-59.58,23.04-80.46,47.44-21.33,24.93-43.4,50.7-87.54,50.7Z"/><path d="M5889.97,107.46c-44.15,0-66.21-25.77-87.54-50.7-20.88-24.4-40.61-47.44-80.46-47.44s-59.58,23.04-80.46,47.44c-21.33,24.93-43.4,50.7-87.54,50.7s-66.21-25.77-87.54-50.7c-20.88-24.4-40.61-47.44-80.46-47.44s-59.58,23.04-80.46,47.44c-21.34,24.93-43.4,50.7-87.54,50.7s-66.21-25.77-87.54-50.7c-20.88-24.4-40.61-47.44-80.46-47.44s-59.58,23.04-80.46,47.44c-21.33,24.93-43.4,50.7-87.54,50.7s-66.21-25.77-87.54-50.7c-20.88-24.4-40.61-47.44-80.46-47.44s-59.58,23.04-80.46,47.44c-21.34,24.93-43.4,50.7-87.54,50.7s-66.21-25.77-87.54-50.7c-20.88-24.4-40.61-47.44-80.46-47.44s-59.58,23.04-80.46,47.44c-21.33,24.93-43.4,50.7-87.54,50.7s-66.21-25.77-87.54-50.7c-20.88-24.4-40.61-47.44-80.46-47.44V0C4086.07,0,4108.13,25.77,4129.47,50.7c20.88,24.4,40.61,47.44,80.46,47.44s59.58-23.04,80.46-47.44C4311.72,25.77,4333.79,0,4377.93,0s66.21,25.77,87.54,50.7c20.88,24.4,40.61,47.44,80.46,47.44s59.58-23.04,80.46-47.44C4647.73,25.77,4669.79,0,4713.94,0s66.21,25.77,87.54,50.7c20.88,24.4,40.61,47.44,80.46,47.44s59.58-23.04,80.46-47.44C4983.74,25.77,5005.8,0,5049.95,0s66.21,25.77,87.54,50.7c20.88,24.4,40.61,47.44,80.46,47.44s59.58-23.04,80.46-47.44C5319.75,25.77,5341.81,0,5385.96,0s66.21,25.77,87.54,50.7c20.88,24.4,40.61,47.44,80.46,47.44s59.58-23.04,80.46-47.44C5655.76,25.77,5677.82,0,5721.97,0s66.21,25.77,87.55,50.7c20.88,24.4,40.61,47.44,80.46,47.44s59.58-23.04,80.46-47.44C5991.77,25.77,6013.83,0,6057.98,0V9.32c-39.86,0-59.58,23.04-80.46,47.44-21.33,24.93-43.4,50.7-87.54,50.7Z"/><path d="M1848.05,219.83c-44.15,0-66.21-25.77-87.54-50.7-20.88-24.4-40.61-47.44-80.46-47.44s-59.58,23.04-80.46,47.44c-21.33,24.93-43.4,50.7-87.54,50.7s-66.21-25.77-87.54-50.7c-20.88-24.4-40.61-47.44-80.46-47.44s-59.58,23.04-80.46,47.44c-21.34,24.93-43.4,50.7-87.54,50.7s-66.21-25.77-87.54-50.7c-20.88-24.4-40.61-47.44-80.46-47.44s-59.58,23.04-80.46,47.44c-21.33,24.93-43.4,50.7-87.54,50.7s-66.21-25.77-87.54-50.7c-20.88-24.4-40.61-47.44-80.46-47.44s-59.58,23.04-80.46,47.44c-21.34,24.93-43.4,50.7-87.54,50.7s-66.21-25.77-87.54-50.7c-20.88-24.4-40.61-47.44-80.46-47.44s-59.58,23.04-80.46,47.44c-21.33,24.93-43.4,50.7-87.54,50.7s-66.21-25.77-87.54-50.7C59.58,144.74,39.86,121.69,0,121.69v-9.32c44.15,0,66.21,25.77,87.54,50.7,20.88,24.4,40.61,47.44,80.46,47.44s59.58-23.04,80.46-47.44c21.33-24.93,43.4-50.7,87.54-50.7s66.21,25.77,87.54,50.7c20.88,24.4,40.61,47.44,80.46,47.44s59.58-23.04,80.46-47.44c21.34-24.93,43.4-50.7,87.54-50.7s66.21,25.77,87.54,50.7c20.88,24.4,40.61,47.44,80.46,47.44s59.58-23.04,80.46-47.44c21.33-24.93,43.4-50.7,87.54-50.7s66.21,25.77,87.54,50.7c20.88,24.4,40.61,47.44,80.46,47.44s59.58-23.04,80.46-47.44c21.33-24.93,43.4-50.7,87.54-50.7s66.21,25.77,87.54,50.7c20.88,24.4,40.61,47.44,80.46,47.44s59.58-23.04,80.46-47.44c21.34-24.93,43.4-50.7,87.54-50.7s66.21,25.77,87.55,50.7c20.88,24.4,40.61,47.44,80.46,47.44s59.58-23.04,80.46-47.44c21.34-24.93,43.4-50.7,87.55-50.7v9.32c-39.86,0-59.58,23.04-80.46,47.44-21.33,24.93-43.4,50.7-87.54,50.7Z"/><path d="M3869.01,219.83c-44.15,0-66.21-25.77-87.54-50.7-20.88-24.4-40.61-47.44-80.46-47.44s-59.58,23.04-80.46,47.44c-21.33,24.93-43.4,50.7-87.54,50.7s-66.21-25.77-87.54-50.7c-20.88-24.4-40.61-47.44-80.46-47.44s-59.58,23.04-80.46,47.44c-21.34,24.93-43.4,50.7-87.54,50.7s-66.21-25.77-87.54-50.7c-20.88-24.4-40.61-47.44-80.46-47.44s-59.58,23.04-80.46,47.44c-21.33,24.93-43.4,50.7-87.54,50.7s-66.21-25.77-87.54-50.7c-20.88-24.4-40.61-47.44-80.46-47.44s-59.58,23.04-80.46,47.44c-21.34,24.93-43.4,50.7-87.54,50.7s-66.21-25.77-87.54-50.7c-20.88-24.4-40.61-47.44-80.46-47.44s-59.58,23.04-80.46,47.44c-21.33,24.93-43.4,50.7-87.54,50.7s-66.21-25.77-87.54-50.7c-20.88-24.4-40.61-47.44-80.46-47.44v-9.32c44.15,0,66.21,25.77,87.54,50.7,20.88,24.4,40.61,47.44,80.46,47.44s59.58-23.04,80.46-47.44c21.33-24.93,43.4-50.7,87.54-50.7s66.21,25.77,87.54,50.7c20.88,24.4,40.61,47.44,80.46,47.44s59.58-23.04,80.46-47.44c21.34-24.93,43.4-50.7,87.54-50.7s66.21,25.77,87.54,50.7c20.88,24.4,40.61,47.44,80.46,47.44s59.58-23.04,80.46-47.44c21.33-24.93,43.4-50.7,87.54-50.7s66.21,25.77,87.54,50.7c20.88,24.4,40.61,47.44,80.46,47.44s59.58-23.04,80.46-47.44c21.33-24.93,43.4-50.7,87.54-50.7s66.21,25.77,87.54,50.7c20.88,24.4,40.61,47.44,80.46,47.44s59.58-23.04,80.46-47.44c21.34-24.93,43.4-50.7,87.54-50.7s66.21,25.77,87.55,50.7c20.88,24.4,40.61,47.44,80.46,47.44s59.58-23.04,80.46-47.44c21.34-24.93,43.4-50.7,87.55-50.7v9.32c-39.86,0-59.58,23.04-80.46,47.44-21.33,24.93-43.4,50.7-87.54,50.7Z"/><path d="M5889.97,219.83c-44.15,0-66.21-25.77-87.54-50.7-20.88-24.4-40.61-47.44-80.46-47.44s-59.58,23.04-80.46,47.44c-21.33,24.93-43.4,50.7-87.54,50.7s-66.21-25.77-87.54-50.7c-20.88-24.4-40.61-47.44-80.46-47.44s-59.58,23.04-80.46,47.44c-21.34,24.93-43.4,50.7-87.54,50.7s-66.21-25.77-87.54-50.7c-20.88-24.4-40.61-47.44-80.46-47.44s-59.58,23.04-80.46,47.44c-21.33,24.93-43.4,50.7-87.54,50.7s-66.21-25.77-87.54-50.7c-20.88-24.4-40.61-47.44-80.46-47.44s-59.58,23.04-80.46,47.44c-21.34,24.93-43.4,50.7-87.54,50.7s-66.21-25.77-87.54-50.7c-20.88-24.4-40.61-47.44-80.46-47.44s-59.58,23.04-80.46,47.44c-21.33,24.93-43.4,50.7-87.54,50.7s-66.21-25.77-87.54-50.7c-20.88-24.4-40.61-47.44-80.46-47.44v-9.32c44.15,0,66.21,25.77,87.54,50.7,20.88,24.4,40.61,47.44,80.46,47.44s59.58-23.04,80.46-47.44c21.33-24.93,43.4-50.7,87.54-50.7s66.21,25.77,87.54,50.7c20.88,24.4,40.61,47.44,80.46,47.44s59.58-23.04,80.46-47.44c21.34-24.93,43.4-50.7,87.54-50.7s66.21,25.77,87.54,50.7c20.88,24.4,40.61,47.44,80.46,47.44s59.58-23.04,80.46-47.44c21.33-24.93,43.4-50.7,87.54-50.7s66.21,25.77,87.54,50.7c20.88,24.4,40.61,47.44,80.46,47.44s59.58-23.04,80.46-47.44c21.33-24.93,43.4-50.7,87.54-50.7s66.21,25.77,87.54,50.7c20.88,24.4,40.61,47.44,80.46,47.44s59.58-23.04,80.46-47.44c21.34-24.93,43.4-50.7,87.54-50.7s66.21,25.77,87.55,50.7c20.88,24.4,40.61,47.44,80.46,47.44s59.58-23.04,80.46-47.44c21.34-24.93,43.4-50.7,87.55-50.7v9.32c-39.86,0-59.58,23.04-80.46,47.44-21.33,24.93-43.4,50.7-87.54,50.7Z"/><path d="M1848.05,332.2c-44.15,0-66.21-25.77-87.54-50.7-20.88-24.4-40.61-47.44-80.46-47.44s-59.58,23.04-80.46,47.44c-21.33,24.93-43.4,50.7-87.54,50.7s-66.21-25.77-87.54-50.7c-20.88-24.4-40.61-47.44-80.46-47.44s-59.58,23.04-80.46,47.44c-21.34,24.93-43.4,50.7-87.54,50.7s-66.21-25.77-87.54-50.7c-20.88-24.4-40.61-47.44-80.46-47.44s-59.58,23.04-80.46,47.44c-21.33,24.93-43.4,50.7-87.54,50.7s-66.21-25.77-87.54-50.7c-20.88-24.4-40.61-47.44-80.46-47.44s-59.58,23.04-80.46,47.44c-21.34,24.93-43.4,50.7-87.54,50.7s-66.21-25.77-87.54-50.7c-20.88-24.4-40.61-47.44-80.46-47.44s-59.58,23.04-80.46,47.44c-21.33,24.93-43.4,50.7-87.54,50.7s-66.21-25.77-87.54-50.7c-20.88-24.4-40.61-47.44-80.46-47.44v-9.32c44.15,0,66.21,25.77,87.54,50.7,20.88,24.4,40.61,47.44,80.46,47.44s59.58-23.04,80.46-47.44c21.33-24.93,43.4-50.7,87.54-50.7s66.21,25.77,87.54,50.7c20.88,24.4,40.61,47.44,80.46,47.44s59.58-23.04,80.46-47.44c21.34-24.93,43.4-50.7,87.54-50.7s66.21,25.77,87.54,50.7c20.88,24.4,40.61,47.44,80.46,47.44s59.58-23.04,80.46-47.44c21.33-24.93,43.4-50.7,87.54-50.7s66.21,25.77,87.54,50.7c20.88,24.4,40.61,47.44,80.46,47.44s59.58-23.04,80.46-47.44c21.33-24.93,43.4-50.7,87.54-50.7s66.21,25.77,87.54,50.7c20.88,24.4,40.61,47.44,80.46,47.44s59.58-23.04,80.46-47.44c21.34-24.93,43.4-50.7,87.54-50.7s66.21,25.77,87.55,50.7c20.88,24.4,40.61,47.44,80.46,47.44s59.58-23.04,80.46-47.44c21.34-24.93,43.4-50.7,87.55-50.7v9.32c-39.86,0-59.58,23.04-80.46,47.44-21.33,24.93-43.4,50.7-87.54,50.7Z"/><path d="M3869.01,332.2c-44.15,0-66.21-25.77-87.54-50.7-20.88-24.4-40.61-47.44-80.46-47.44s-59.58,23.04-80.46,47.44c-21.33,24.93-43.4,50.7-87.54,50.7s-66.21-25.77-87.54-50.7c-20.88-24.4-40.61-47.44-80.46-47.44s-59.58,23.04-80.46,47.44c-21.34,24.93-43.4,50.7-87.54,50.7s-66.21-25.77-87.54-50.7c-20.88-24.4-40.61-47.44-80.46-47.44s-59.58,23.04-80.46,47.44c-21.33,24.93-43.4,50.7-87.54,50.7s-66.21-25.77-87.54-50.7c-20.88-24.4-40.61-47.44-80.46-47.44s-59.58,23.04-80.46,47.44c-21.34,24.93-43.4,50.7-87.54,50.7s-66.21-25.77-87.54-50.7c-20.88-24.4-40.61-47.44-80.46-47.44s-59.58,23.04-80.46,47.44c-21.33,24.93-43.4,50.7-87.54,50.7s-66.21-25.77-87.54-50.7c-20.88-24.4-40.61-47.44-80.46-47.44v-9.32c44.15,0,66.21,25.77,87.54,50.7,20.88,24.4,40.61,47.44,80.46,47.44s59.58-23.04,80.46-47.44c21.33-24.93,43.4-50.7,87.54-50.7s66.21,25.77,87.54,50.7c20.88,24.4,40.61,47.44,80.46,47.44s59.58-23.04,80.46-47.44c21.34-24.93,43.4-50.7,87.54-50.7s66.21,25.77,87.54,50.7c20.88,24.4,40.61,47.44,80.46,47.44s59.58-23.04,80.46-47.44c21.33-24.93,43.4-50.7,87.54-50.7s66.21,25.77,87.54,50.7c20.88,24.4,40.61,47.44,80.46,47.44s59.58-23.04,80.46-47.44c21.33-24.93,43.4-50.7,87.54-50.7s66.21,25.77,87.54,50.7c20.88,24.4,40.61,47.44,80.46,47.44s59.58-23.04,80.46-47.44c21.34-24.93,43.4-50.7,87.54-50.7s66.21,25.77,87.55,50.7c20.88,24.4,40.61,47.44,80.46,47.44s59.58-23.04,80.46-47.44c21.34-24.93,43.4-50.7,87.55-50.7v9.32c-39.86,0-59.58,23.04-80.46,47.44-21.33,24.93-43.4,50.7-87.54,50.7Z"/><path d="M5889.97,332.2c-44.15,0-66.21-25.77-87.54-50.7-20.88-24.4-40.61-47.44-80.46-47.44s-59.58,23.04-80.46,47.44c-21.33,24.93-43.4,50.7-87.54,50.7s-66.21-25.77-87.54-50.7c-20.88-24.4-40.61-47.44-80.46-47.44s-59.58,23.04-80.46,47.44c-21.34,24.93-43.4,50.7-87.54,50.7s-66.21-25.77-87.54-50.7c-20.88-24.4-40.61-47.44-80.46-47.44s-59.58,23.04-80.46,47.44c-21.33,24.93-43.4,50.7-87.54,50.7s-66.21-25.77-87.54-50.7c-20.88-24.4-40.61-47.44-80.46-47.44s-59.58,23.04-80.46,47.44c-21.34,24.93-43.4,50.7-87.54,50.7s-66.21-25.77-87.54-50.7c-20.88-24.4-40.61-47.44-80.46-47.44s-59.58,23.04-80.46,47.44c-21.33,24.93-43.4,50.7-87.54,50.7s-66.21-25.77-87.54-50.7c-20.88-24.4-40.61-47.44-80.46-47.44v-9.32c44.15,0,66.21,25.77,87.54,50.7,20.88,24.4,40.61,47.44,80.46,47.44s59.58-23.04,80.46-47.44c21.33-24.93,43.4-50.7,87.54-50.7s66.21,25.77,87.54,50.7c20.88,24.4,40.61,47.44,80.46,47.44s59.58-23.04,80.46-47.44c21.34-24.93,43.4-50.7,87.54-50.7s66.21,25.77,87.54,50.7c20.88,24.4,40.61,47.44,80.46,47.44s59.58-23.04,80.46-47.44c21.33-24.93,43.4-50.7,87.54-50.7s66.21,25.77,87.54,50.7c20.88,24.4,40.61,47.44,80.46,47.44s59.58-23.04,80.46-47.44c21.33-24.93,43.4-50.7,87.54-50.7s66.21,25.77,87.54,50.7c20.88,24.4,40.61,47.44,80.46,47.44s59.58-23.04,80.46-47.44c21.34-24.93,43.4-50.7,87.54-50.7s66.21,25.77,87.55,50.7c20.88,24.4,40.61,47.44,80.46,47.44s59.58-23.04,80.46-47.44c21.34-24.93,43.4-50.7,87.55-50.7v9.32c-39.86,0-59.58,23.04-80.46,47.44-21.33,24.93-43.4,50.7-87.54,50.7Z"/><path d="M1848.05,444.58c-44.15,0-66.21-25.77-87.54-50.7-20.88-24.4-40.61-47.44-80.46-47.44s-59.58,23.04-80.46,47.44c-21.33,24.93-43.4,50.7-87.54,50.7s-66.21-25.77-87.54-50.7c-20.88-24.4-40.61-47.44-80.46-47.44s-59.58,23.04-80.46,47.44c-21.34,24.93-43.4,50.7-87.54,50.7s-66.21-25.77-87.54-50.7c-20.88-24.4-40.61-47.44-80.46-47.44s-59.58,23.04-80.46,47.44c-21.33,24.93-43.4,50.7-87.54,50.7s-66.21-25.77-87.54-50.7c-20.88-24.4-40.61-47.44-80.46-47.44s-59.58,23.04-80.46,47.44c-21.34,24.93-43.4,50.7-87.54,50.7s-66.21-25.77-87.54-50.7c-20.88-24.4-40.61-47.44-80.46-47.44s-59.58,23.04-80.46,47.44c-21.33,24.93-43.4,50.7-87.54,50.7s-66.21-25.77-87.54-50.7c-20.88-24.4-40.61-47.44-80.46-47.44v-9.32c44.15,0,66.21,25.77,87.54,50.7,20.88,24.4,40.61,47.44,80.46,47.44s59.58-23.04,80.46-47.44c21.33-24.93,43.4-50.7,87.54-50.7s66.21,25.77,87.54,50.7c20.88,24.4,40.61,47.44,80.46,47.44s59.58-23.04,80.46-47.44c21.34-24.93,43.4-50.7,87.54-50.7s66.21,25.77,87.54,50.7c20.88,24.4,40.61,47.44,80.46,47.44s59.58-23.04,80.46-47.44c21.33-24.93,43.4-50.7,87.54-50.7s66.21,25.77,87.54,50.7c20.88,24.4,40.61,47.44,80.46,47.44s59.58-23.04,80.46-47.44c21.33-24.93,43.4-50.7,87.54-50.7s66.21,25.77,87.54,50.7c20.88,24.4,40.61,47.44,80.46,47.44s59.58-23.04,80.46-47.44c21.34-24.93,43.4-50.7,87.54-50.7s66.21,25.77,87.55,50.7c20.88,24.4,40.61,47.44,80.46,47.44s59.58-23.04,80.46-47.44c21.34-24.93,43.4-50.7,87.55-50.7v9.32c-39.86,0-59.58,23.04-80.46,47.44-21.33,24.93-43.4,50.7-87.54,50.7Z"/><path d="M3869.01,444.58c-44.15,0-66.21-25.77-87.54-50.7-20.88-24.4-40.61-47.44-80.46-47.44s-59.58,23.04-80.46,47.44c-21.33,24.93-43.4,50.7-87.54,50.7s-66.21-25.77-87.54-50.7c-20.88-24.4-40.61-47.44-80.46-47.44s-59.58,23.04-80.46,47.44c-21.34,24.93-43.4,50.7-87.54,50.7s-66.21-25.77-87.54-50.7c-20.88-24.4-40.61-47.44-80.46-47.44s-59.58,23.04-80.46,47.44c-21.33,24.93-43.4,50.7-87.54,50.7s-66.21-25.77-87.54-50.7c-20.88-24.4-40.61-47.44-80.46-47.44s-59.58,23.04-80.46,47.44c-21.34,24.93-43.4,50.7-87.54,50.7s-66.21-25.77-87.54-50.7c-20.88-24.4-40.61-47.44-80.46-47.44s-59.58,23.04-80.46,47.44c-21.33,24.93-43.4,50.7-87.54,50.7s-66.21-25.77-87.54-50.7c-20.88-24.4-40.61-47.44-80.46-47.44v-9.32c44.15,0,66.21,25.77,87.54,50.7,20.88,24.4,40.61,47.44,80.46,47.44s59.58-23.04,80.46-47.44c21.33-24.93,43.4-50.7,87.54-50.7s66.21,25.77,87.54,50.7c20.88,24.4,40.61,47.44,80.46,47.44s59.58-23.04,80.46-47.44c21.34-24.93,43.4-50.7,87.54-50.7s66.21,25.77,87.54,50.7c20.88,24.4,40.61,47.44,80.46,47.44s59.58-23.04,80.46-47.44c21.33-24.93,43.4-50.7,87.54-50.7s66.21,25.77,87.54,50.7c20.88,24.4,40.61,47.44,80.46,47.44s59.58-23.04,80.46-47.44c21.33-24.93,43.4-50.7,87.54-50.7s66.21,25.77,87.54,50.7c20.88,24.4,40.61,47.44,80.46,47.44s59.58-23.04,80.46-47.44c21.34-24.93,43.4-50.7,87.54-50.7s66.21,25.77,87.55,50.7c20.88,24.4,40.61,47.44,80.46,47.44s59.58-23.04,80.46-47.44c21.34-24.93,43.4-50.7,87.55-50.7v9.32c-39.86,0-59.58,23.04-80.46,47.44-21.33,24.93-43.4,50.7-87.54,50.7Z"/><path d="M5889.97,444.58c-44.15,0-66.21-25.77-87.54-50.7-20.88-24.4-40.61-47.44-80.46-47.44s-59.58,23.04-80.46,47.44c-21.33,24.93-43.4,50.7-87.54,50.7s-66.21-25.77-87.54-50.7c-20.88-24.4-40.61-47.44-80.46-47.44s-59.58,23.04-80.46,47.44c-21.34,24.93-43.4,50.7-87.54,50.7s-66.21-25.77-87.54-50.7c-20.88-24.4-40.61-47.44-80.46-47.44s-59.58,23.04-80.46,47.44c-21.33,24.93-43.4,50.7-87.54,50.7s-66.21-25.77-87.54-50.7c-20.88-24.4-40.61-47.44-80.46-47.44s-59.58,23.04-80.46,47.44c-21.34,24.93-43.4,50.7-87.54,50.7s-66.21-25.77-87.54-50.7c-20.88-24.4-40.61-47.44-80.46-47.44s-59.58,23.04-80.46,47.44c-21.33,24.93-43.4,50.7-87.54,50.7s-66.21-25.77-87.54-50.7c-20.88-24.4-40.61-47.44-80.46-47.44v-9.32c44.15,0,66.21,25.77,87.54,50.7,20.88,24.4,40.61,47.44,80.46,47.44s59.58-23.04,80.46-47.44c21.33-24.93,43.4-50.7,87.54-50.7s66.21,25.77,87.54,50.7c20.88,24.4,40.61,47.44,80.46,47.44s59.58-23.04,80.46-47.44c21.34-24.93,43.4-50.7,87.54-50.7s66.21,25.77,87.54,50.7c20.88,24.4,40.61,47.44,80.46,47.44s59.58-23.04,80.46-47.44c21.33-24.93,43.4-50.7,87.54-50.7s66.21,25.77,87.54,50.7c20.88,24.4,40.61,47.44,80.46,47.44s59.58-23.04,80.46-47.44c21.33-24.93,43.4-50.7,87.54-50.7s66.21,25.77,87.54,50.7c20.88,24.4,40.61,47.44,80.46,47.44s59.58-23.04,80.46-47.44c21.34-24.93,43.4-50.7,87.54-50.7s66.21,25.77,87.55,50.7c20.88,24.4,40.61,47.44,80.46,47.44s59.58-23.04,80.46-47.44c21.34-24.93,43.4-50.7,87.55-50.7v9.32c-39.86,0-59.58,23.04-80.46,47.44-21.33,24.93-43.4,50.7-87.54,50.7Z"/><path d="M1848.05,556.95c-44.15,0-66.21-25.77-87.54-50.7-20.88-24.4-40.61-47.44-80.46-47.44s-59.58,23.04-80.46,47.44c-21.33,24.93-43.4,50.7-87.54,50.7s-66.21-25.77-87.54-50.7c-20.88-24.4-40.61-47.44-80.46-47.44s-59.58,23.04-80.46,47.44c-21.34,24.93-43.4,50.7-87.54,50.7s-66.21-25.77-87.54-50.7c-20.88-24.4-40.61-47.44-80.46-47.44s-59.58,23.04-80.46,47.44c-21.33,24.93-43.4,50.7-87.54,50.7s-66.21-25.77-87.54-50.7c-20.88-24.4-40.61-47.44-80.46-47.44s-59.58,23.04-80.46,47.44c-21.34,24.93-43.4,50.7-87.54,50.7s-66.21-25.77-87.54-50.7c-20.88-24.4-40.61-47.44-80.46-47.44s-59.58,23.04-80.46,47.44c-21.33,24.93-43.4,50.7-87.54,50.7s-66.21-25.77-87.54-50.7c-20.88-24.4-40.61-47.44-80.46-47.44v-9.32c44.15,0,66.21,25.77,87.54,50.7,20.88,24.4,40.61,47.44,80.46,47.44s59.58-23.04,80.46-47.44c21.33-24.93,43.4-50.7,87.54-50.7s66.21,25.77,87.54,50.7c20.88,24.4,40.61,47.44,80.46,47.44s59.58-23.04,80.46-47.44c21.34-24.93,43.4-50.7,87.54-50.7s66.21,25.77,87.54,50.7c20.88,24.4,40.61,47.44,80.46,47.44s59.58-23.04,80.46-47.44c21.33-24.93,43.4-50.7,87.54-50.7s66.21,25.77,87.54,50.7c20.88,24.4,40.61,47.44,80.46,47.44s59.58-23.04,80.46-47.44c21.33-24.93,43.4-50.7,87.54-50.7s66.21,25.77,87.54,50.7c20.88,24.4,40.61,47.44,80.46,47.44s59.58-23.04,80.46-47.44c21.34-24.93,43.4-50.7,87.54-50.7s66.21,25.77,87.55,50.7c20.88,24.4,40.61,47.44,80.46,47.44s59.58-23.04,80.46-47.44c21.34-24.93,43.4-50.7,87.55-50.7v9.32c-39.86,0-59.58,23.04-80.46,47.44-21.33,24.93-43.4,50.7-87.54,50.7Z"/><path d="M3869.01,556.95c-44.15,0-66.21-25.77-87.54-50.7-20.88-24.4-40.61-47.44-80.46-47.44s-59.58,23.04-80.46,47.44c-21.33,24.93-43.4,50.7-87.54,50.7s-66.21-25.77-87.54-50.7c-20.88-24.4-40.61-47.44-80.46-47.44s-59.58,23.04-80.46,47.44c-21.34,24.93-43.4,50.7-87.54,50.7s-66.21-25.77-87.54-50.7c-20.88-24.4-40.61-47.44-80.46-47.44s-59.58,23.04-80.46,47.44c-21.33,24.93-43.4,50.7-87.54,50.7s-66.21-25.77-87.54-50.7c-20.88-24.4-40.61-47.44-80.46-47.44s-59.58,23.04-80.46,47.44c-21.34,24.93-43.4,50.7-87.54,50.7s-66.21-25.77-87.54-50.7c-20.88-24.4-40.61-47.44-80.46-47.44s-59.58,23.04-80.46,47.44c-21.33,24.93-43.4,50.7-87.54,50.7s-66.21-25.77-87.54-50.7c-20.88-24.4-40.61-47.44-80.46-47.44v-9.32c44.15,0,66.21,25.77,87.54,50.7,20.88,24.4,40.61,47.44,80.46,47.44s59.58-23.04,80.46-47.44c21.33-24.93,43.4-50.7,87.54-50.7s66.21,25.77,87.54,50.7c20.88,24.4,40.61,47.44,80.46,47.44s59.58-23.04,80.46-47.44c21.34-24.93,43.4-50.7,87.54-50.7s66.21,25.77,87.54,50.7c20.88,24.4,40.61,47.44,80.46,47.44s59.58-23.04,80.46-47.44c21.33-24.93,43.4-50.7,87.54-50.7s66.21,25.77,87.54,50.7c20.88,24.4,40.61,47.44,80.46,47.44s59.58-23.04,80.46-47.44c21.33-24.93,43.4-50.7,87.54-50.7s66.21,25.77,87.54,50.7c20.88,24.4,40.61,47.44,80.46,47.44s59.58-23.04,80.46-47.44c21.34-24.93,43.4-50.7,87.54-50.7s66.21,25.77,87.55,50.7c20.88,24.4,40.61,47.44,80.46,47.44s59.58-23.04,80.46-47.44c21.34-24.93,43.4-50.7,87.55-50.7v9.32c-39.86,0-59.58,23.04-80.46,47.44-21.33,24.93-43.4,50.7-87.54,50.7Z"/><path d="M5889.97,556.95c-44.15,0-66.21-25.77-87.54-50.7-20.88-24.4-40.61-47.44-80.46-47.44s-59.58,23.04-80.46,47.44c-21.33,24.93-43.4,50.7-87.54,50.7s-66.21-25.77-87.54-50.7c-20.88-24.4-40.61-47.44-80.46-47.44s-59.58,23.04-80.46,47.44c-21.34,24.93-43.4,50.7-87.54,50.7s-66.21-25.77-87.54-50.7c-20.88-24.4-40.61-47.44-80.46-47.44s-59.58,23.04-80.46,47.44c-21.33,24.93-43.4,50.7-87.54,50.7s-66.21-25.77-87.54-50.7c-20.88-24.4-40.61-47.44-80.46-47.44s-59.58,23.04-80.46,47.44c-21.34,24.93-43.4,50.7-87.54,50.7s-66.21-25.77-87.54-50.7c-20.88-24.4-40.61-47.44-80.46-47.44s-59.58,23.04-80.46,47.44c-21.33,24.93-43.4,50.7-87.54,50.7s-66.21-25.77-87.54-50.7c-20.88-24.4-40.61-47.44-80.46-47.44v-9.32c44.15,0,66.21,25.77,87.54,50.7,20.88,24.4,40.61,47.44,80.46,47.44s59.58-23.04,80.46-47.44c21.33-24.93,43.4-50.7,87.54-50.7s66.21,25.77,87.54,50.7c20.88,24.4,40.61,47.44,80.46,47.44s59.58-23.04,80.46-47.44c21.34-24.93,43.4-50.7,87.54-50.7s66.21,25.77,87.54,50.7c20.88,24.4,40.61,47.44,80.46,47.44s59.58-23.04,80.46-47.44c21.33-24.93,43.4-50.7,87.54-50.7s66.21,25.77,87.54,50.7c20.88,24.4,40.61,47.44,80.46,47.44s59.58-23.04,80.46-47.44c21.33-24.93,43.4-50.7,87.54-50.7s66.21,25.77,87.54,50.7c20.88,24.4,40.61,47.44,80.46,47.44s59.58-23.04,80.46-47.44c21.34-24.93,43.4-50.7,87.54-50.7s66.21,25.77,87.55,50.7c20.88,24.4,40.61,47.44,80.46,47.44s59.58-23.04,80.46-47.44c21.34-24.93,43.4-50.7,87.55-50.7v9.32c-39.86,0-59.58,23.04-80.46,47.44-21.33,24.93-43.4,50.7-87.54,50.7Z"/><path d="M1848.05,669.32c-44.15,0-66.21-25.77-87.54-50.7-20.88-24.4-40.61-47.44-80.46-47.44s-59.58,23.04-80.46,47.44c-21.33,24.93-43.4,50.7-87.54,50.7s-66.21-25.77-87.54-50.7c-20.88-24.4-40.61-47.44-80.46-47.44s-59.58,23.04-80.46,47.44c-21.34,24.93-43.4,50.7-87.54,50.7s-66.21-25.77-87.54-50.7c-20.88-24.4-40.61-47.44-80.46-47.44s-59.58,23.04-80.46,47.44c-21.33,24.93-43.4,50.7-87.54,50.7s-66.21-25.77-87.54-50.7c-20.88-24.4-40.61-47.44-80.46-47.44s-59.58,23.04-80.46,47.44c-21.34,24.93-43.4,50.7-87.54,50.7s-66.21-25.77-87.54-50.7c-20.88-24.4-40.61-47.44-80.46-47.44s-59.58,23.04-80.46,47.44c-21.33,24.93-43.4,50.7-87.54,50.7s-66.21-25.77-87.54-50.7c-20.88-24.4-40.61-47.44-80.46-47.44v-9.32c44.15,0,66.21,25.77,87.54,50.7,20.88,24.4,40.61,47.44,80.46,47.44s59.58-23.04,80.46-47.44c21.33-24.93,43.4-50.7,87.54-50.7s66.21,25.77,87.54,50.7c20.88,24.4,40.61,47.44,80.46,47.44s59.58-23.04,80.46-47.44c21.34-24.93,43.4-50.7,87.54-50.7s66.21,25.77,87.54,50.7c20.88,24.4,40.61,47.44,80.46,47.44s59.58-23.04,80.46-47.44c21.33-24.93,43.4-50.7,87.54-50.7s66.21,25.77,87.54,50.7c20.88,24.4,40.61,47.44,80.46,47.44s59.58-23.04,80.46-47.44c21.33-24.93,43.4-50.7,87.54-50.7s66.21,25.77,87.54,50.7c20.88,24.4,40.61,47.44,80.46,47.44s59.58-23.04,80.46-47.44c21.34-24.93,43.4-50.7,87.54-50.7s66.21,25.77,87.55,50.7c20.88,24.4,40.61,47.44,80.46,47.44s59.58-23.04,80.46-47.44c21.34-24.93,43.4-50.7,87.55-50.7v9.32c-39.86,0-59.58,23.04-80.46,47.44-21.33,24.93-43.4,50.7-87.54,50.7Z"/><path d="M3869.01,669.32c-44.15,0-66.21-25.77-87.54-50.7-20.88-24.4-40.61-47.44-80.46-47.44s-59.58,23.04-80.46,47.44c-21.33,24.93-43.4,50.7-87.54,50.7s-66.21-25.77-87.54-50.7c-20.88-24.4-40.61-47.44-80.46-47.44s-59.58,23.04-80.46,47.44c-21.34,24.93-43.4,50.7-87.54,50.7s-66.21-25.77-87.54-50.7c-20.88-24.4-40.61-47.44-80.46-47.44s-59.58,23.04-80.46,47.44c-21.33,24.93-43.4,50.7-87.54,50.7s-66.21-25.77-87.54-50.7c-20.88-24.4-40.61-47.44-80.46-47.44s-59.58,23.04-80.46,47.44c-21.34,24.93-43.4,50.7-87.54,50.7s-66.21-25.77-87.54-50.7c-20.88-24.4-40.61-47.44-80.46-47.44s-59.58,23.04-80.46,47.44c-21.33,24.93-43.4,50.7-87.54,50.7s-66.21-25.77-87.54-50.7c-20.88-24.4-40.61-47.44-80.46-47.44v-9.32c44.15,0,66.21,25.77,87.54,50.7,20.88,24.4,40.61,47.44,80.46,47.44s59.58-23.04,80.46-47.44c21.33-24.93,43.4-50.7,87.54-50.7s66.21,25.77,87.54,50.7c20.88,24.4,40.61,47.44,80.46,47.44s59.58-23.04,80.46-47.44c21.34-24.93,43.4-50.7,87.54-50.7s66.21,25.77,87.54,50.7c20.88,24.4,40.61,47.44,80.46,47.44s59.58-23.04,80.46-47.44c21.33-24.93,43.4-50.7,87.54-50.7s66.21,25.77,87.54,50.7c20.88,24.4,40.61,47.44,80.46,47.44s59.58-23.04,80.46-47.44c21.33-24.93,43.4-50.7,87.54-50.7s66.21,25.77,87.54,50.7c20.88,24.4,40.61,47.44,80.46,47.44s59.58-23.04,80.46-47.44c21.34-24.93,43.4-50.7,87.54-50.7s66.21,25.77,87.55,50.7c20.88,24.4,40.61,47.44,80.46,47.44s59.58-23.04,80.46-47.44c21.34-24.93,43.4-50.7,87.55-50.7v9.32c-39.86,0-59.58,23.04-80.46,47.44-21.33,24.93-43.4,50.7-87.54,50.7Z"/><path d="M5889.97,669.32c-44.15,0-66.21-25.77-87.54-50.7-20.88-24.4-40.61-47.44-80.46-47.44s-59.58,23.04-80.46,47.44c-21.33,24.93-43.4,50.7-87.54,50.7s-66.21-25.77-87.54-50.7c-20.88-24.4-40.61-47.44-80.46-47.44s-59.58,23.04-80.46,47.44c-21.34,24.93-43.4,50.7-87.54,50.7s-66.21-25.77-87.54-50.7c-20.88-24.4-40.61-47.44-80.46-47.44s-59.58,23.04-80.46,47.44c-21.33,24.93-43.4,50.7-87.54,50.7s-66.21-25.77-87.54-50.7c-20.88-24.4-40.61-47.44-80.46-47.44s-59.58,23.04-80.46,47.44c-21.34,24.93-43.4,50.7-87.54,50.7s-66.21-25.77-87.54-50.7c-20.88-24.4-40.61-47.44-80.46-47.44s-59.58,23.04-80.46,47.44c-21.33,24.93-43.4,50.7-87.54,50.7s-66.21-25.77-87.54-50.7c-20.88-24.4-40.61-47.44-80.46-47.44v-9.32c44.15,0,66.21,25.77,87.54,50.7,20.88,24.4,40.61,47.44,80.46,47.44s59.58-23.04,80.46-47.44c21.33-24.93,43.4-50.7,87.54-50.7s66.21,25.77,87.54,50.7c20.88,24.4,40.61,47.44,80.46,47.44s59.58-23.04,80.46-47.44c21.34-24.93,43.4-50.7,87.54-50.7s66.21,25.77,87.54,50.7c20.88,24.4,40.61,47.44,80.46,47.44s59.58-23.04,80.46-47.44c21.33-24.93,43.4-50.7,87.54-50.7s66.21,25.77,87.54,50.7c20.88,24.4,40.61,47.44,80.46,47.44s59.58-23.04,80.46-47.44c21.33-24.93,43.4-50.7,87.54-50.7s66.21,25.77,87.54,50.7c20.88,24.4,40.61,47.44,80.46,47.44s59.58-23.04,80.46-47.44c21.34-24.93,43.4-50.7,87.54-50.7s66.21,25.77,87.55,50.7c20.88,24.4,40.61,47.44,80.46,47.44s59.58-23.04,80.46-47.44c21.34-24.93,43.4-50.7,87.55-50.7v9.32c-39.86,0-59.58,23.04-80.46,47.44-21.33,24.93-43.4,50.7-87.54,50.7Z"/><path d="M1848.05,781.69c-44.15,0-66.21-25.77-87.54-50.7-20.88-24.4-40.61-47.44-80.46-47.44s-59.58,23.04-80.46,47.44c-21.33,24.93-43.4,50.7-87.54,50.7s-66.21-25.77-87.54-50.7c-20.88-24.4-40.61-47.44-80.46-47.44s-59.58,23.04-80.46,47.44c-21.34,24.93-43.4,50.7-87.54,50.7s-66.21-25.77-87.54-50.7c-20.88-24.4-40.61-47.44-80.46-47.44s-59.58,23.04-80.46,47.44c-21.33,24.93-43.4,50.7-87.54,50.7s-66.21-25.77-87.54-50.7c-20.88-24.4-40.61-47.44-80.46-47.44s-59.58,23.04-80.46,47.44c-21.34,24.93-43.4,50.7-87.54,50.7s-66.21-25.77-87.54-50.7c-20.88-24.4-40.61-47.44-80.46-47.44s-59.58,23.04-80.46,47.44c-21.33,24.93-43.4,50.7-87.54,50.7s-66.21-25.77-87.54-50.7c-20.88-24.4-40.61-47.44-80.46-47.44v-9.32c44.15,0,66.21,25.77,87.54,50.7,20.88,24.4,40.61,47.44,80.46,47.44s59.58-23.04,80.46-47.44c21.33-24.93,43.4-50.7,87.54-50.7s66.21,25.77,87.54,50.7c20.88,24.4,40.61,47.44,80.46,47.44s59.58-23.04,80.46-47.44c21.34-24.93,43.4-50.7,87.54-50.7s66.21,25.77,87.54,50.7c20.88,24.4,40.61,47.44,80.46,47.44s59.58-23.04,80.46-47.44c21.33-24.93,43.4-50.7,87.54-50.7s66.21,25.77,87.54,50.7c20.88,24.4,40.61,47.44,80.46,47.44s59.58-23.04,80.46-47.44c21.33-24.93,43.4-50.7,87.54-50.7s66.21,25.77,87.54,50.7c20.88,24.4,40.61,47.44,80.46,47.44s59.58-23.04,80.46-47.44c21.34-24.93,43.4-50.7,87.54-50.7s66.21,25.77,87.55,50.7c20.88,24.4,40.61,47.44,80.46,47.44s59.58-23.04,80.46-47.44c21.34-24.93,43.4-50.7,87.55-50.7v9.32c-39.86,0-59.58,23.04-80.46,47.44-21.33,24.93-43.4,50.7-87.54,50.7Z"/><path d="M3869.01,781.69c-44.15,0-66.21-25.77-87.54-50.7-20.88-24.4-40.61-47.44-80.46-47.44s-59.58,23.04-80.46,47.44c-21.33,24.93-43.4,50.7-87.54,50.7s-66.21-25.77-87.54-50.7c-20.88-24.4-40.61-47.44-80.46-47.44s-59.58,23.04-80.46,47.44c-21.34,24.93-43.4,50.7-87.54,50.7s-66.21-25.77-87.54-50.7c-20.88-24.4-40.61-47.44-80.46-47.44s-59.58,23.04-80.46,47.44c-21.33,24.93-43.4,50.7-87.54,50.7s-66.21-25.77-87.54-50.7c-20.88-24.4-40.61-47.44-80.46-47.44s-59.58,23.04-80.46,47.44c-21.34,24.93-43.4,50.7-87.54,50.7s-66.21-25.77-87.54-50.7c-20.88-24.4-40.61-47.44-80.46-47.44s-59.58,23.04-80.46,47.44c-21.33,24.93-43.4,50.7-87.54,50.7s-66.21-25.77-87.54-50.7c-20.88-24.4-40.61-47.44-80.46-47.44v-9.32c44.15,0,66.21,25.77,87.54,50.7,20.88,24.4,40.61,47.44,80.46,47.44s59.58-23.04,80.46-47.44c21.33-24.93,43.4-50.7,87.54-50.7s66.21,25.77,87.54,50.7c20.88,24.4,40.61,47.44,80.46,47.44s59.58-23.04,80.46-47.44c21.34-24.93,43.4-50.7,87.54-50.7s66.21,25.77,87.54,50.7c20.88,24.4,40.61,47.44,80.46,47.44s59.58-23.04,80.46-47.44c21.33-24.93,43.4-50.7,87.54-50.7s66.21,25.77,87.54,50.7c20.88,24.4,40.61,47.44,80.46,47.44s59.58-23.04,80.46-47.44c21.33-24.93,43.4-50.7,87.54-50.7s66.21,25.77,87.54,50.7c20.88,24.4,40.61,47.44,80.46,47.44s59.58-23.04,80.46-47.44c21.34-24.93,43.4-50.7,87.54-50.7s66.21,25.77,87.55,50.7c20.88,24.4,40.61,47.44,80.46,47.44s59.58-23.04,80.46-47.44c21.34-24.93,43.4-50.7,87.55-50.7v9.32c-39.86,0-59.58,23.04-80.46,47.44-21.33,24.93-43.4,50.7-87.54,50.7Z"/><path d="M5889.97,781.69c-44.15,0-66.21-25.77-87.54-50.7-20.88-24.4-40.61-47.44-80.46-47.44s-59.58,23.04-80.46,47.44c-21.33,24.93-43.4,50.7-87.54,50.7s-66.21-25.77-87.54-50.7c-20.88-24.4-40.61-47.44-80.46-47.44s-59.58,23.04-80.46,47.44c-21.34,24.93-43.4,50.7-87.54,50.7s-66.21-25.77-87.54-50.7c-20.88-24.4-40.61-47.44-80.46-47.44s-59.58,23.04-80.46,47.44c-21.33,24.93-43.4,50.7-87.54,50.7s-66.21-25.77-87.54-50.7c-20.88-24.4-40.61-47.44-80.46-47.44s-59.58,23.04-80.46,47.44c-21.34,24.93-43.4,50.7-87.54,50.7s-66.21-25.77-87.54-50.7c-20.88-24.4-40.61-47.44-80.46-47.44s-59.58,23.04-80.46,47.44c-21.33,24.93-43.4,50.7-87.54,50.7s-66.21-25.77-87.54-50.7c-20.88-24.4-40.61-47.44-80.46-47.44v-9.32c44.15,0,66.21,25.77,87.54,50.7,20.88,24.4,40.61,47.44,80.46,47.44s59.58-23.04,80.46-47.44c21.33-24.93,43.4-50.7,87.54-50.7s66.21,25.77,87.54,50.7c20.88,24.4,40.61,47.44,80.46,47.44s59.58-23.04,80.46-47.44c21.34-24.93,43.4-50.7,87.54-50.7s66.21,25.77,87.54,50.7c20.88,24.4,40.61,47.44,80.46,47.44s59.58-23.04,80.46-47.44c21.33-24.93,43.4-50.7,87.54-50.7s66.21,25.77,87.54,50.7c20.88,24.4,40.61,47.44,80.46,47.44s59.58-23.04,80.46-47.44c21.33-24.93,43.4-50.7,87.54-50.7s66.21,25.77,87.54,50.7c20.88,24.4,40.61,47.44,80.46,47.44s59.58-23.04,80.46-47.44c21.34-24.93,43.4-50.7,87.54-50.7s66.21,25.77,87.55,50.7c20.88,24.4,40.61,47.44,80.46,47.44s59.58-23.04,80.46-47.44c21.34-24.93,43.4-50.7,87.55-50.7v9.32c-39.86,0-59.58,23.04-80.46,47.44-21.33,24.93-43.4,50.7-87.54,50.7Z"/><path d="M1848.05,894.06c-44.15,0-66.21-25.77-87.54-50.7-20.88-24.4-40.61-47.44-80.46-47.44s-59.58,23.04-80.46,47.44c-21.33,24.93-43.4,50.7-87.54,50.7s-66.21-25.77-87.54-50.7c-20.88-24.4-40.61-47.44-80.46-47.44s-59.58,23.04-80.46,47.44c-21.34,24.93-43.4,50.7-87.54,50.7s-66.21-25.77-87.54-50.7c-20.88-24.4-40.61-47.44-80.46-47.44s-59.58,23.04-80.46,47.44c-21.33,24.93-43.4,50.7-87.54,50.7s-66.21-25.77-87.54-50.7c-20.88-24.4-40.61-47.44-80.46-47.44s-59.58,23.04-80.46,47.44c-21.34,24.93-43.4,50.7-87.54,50.7s-66.21-25.77-87.54-50.7c-20.88-24.4-40.61-47.44-80.46-47.44s-59.58,23.04-80.46,47.44c-21.33,24.93-43.4,50.7-87.54,50.7s-66.21-25.77-87.54-50.7c-20.88-24.4-40.61-47.44-80.46-47.44v-9.32c44.15,0,66.21,25.77,87.54,50.7,20.88,24.4,40.61,47.44,80.46,47.44s59.58-23.04,80.46-47.44c21.33-24.93,43.4-50.7,87.54-50.7s66.21,25.77,87.54,50.7c20.88,24.4,40.61,47.44,80.46,47.44s59.58-23.04,80.46-47.44c21.34-24.93,43.4-50.7,87.54-50.7s66.21,25.77,87.54,50.7c20.88,24.4,40.61,47.44,80.46,47.44s59.58-23.04,80.46-47.44c21.33-24.93,43.4-50.7,87.54-50.7s66.21,25.77,87.54,50.7c20.88,24.4,40.61,47.44,80.46,47.44s59.58-23.04,80.46-47.44c21.33-24.93,43.4-50.7,87.54-50.7s66.21,25.77,87.54,50.7c20.88,24.4,40.61,47.44,80.46,47.44s59.58-23.04,80.46-47.44c21.34-24.93,43.4-50.7,87.54-50.7s66.21,25.77,87.55,50.7c20.88,24.4,40.61,47.44,80.46,47.44s59.58-23.04,80.46-47.44c21.34-24.93,43.4-50.7,87.55-50.7v9.32c-39.86,0-59.58,23.04-80.46,47.44-21.33,24.93-43.4,50.7-87.54,50.7Z"/><path d="M3869.01,894.06c-44.15,0-66.21-25.77-87.54-50.7-20.88-24.4-40.61-47.44-80.46-47.44s-59.58,23.04-80.46,47.44c-21.33,24.93-43.4,50.7-87.54,50.7s-66.21-25.77-87.54-50.7c-20.88-24.4-40.61-47.44-80.46-47.44s-59.58,23.04-80.46,47.44c-21.34,24.93-43.4,50.7-87.54,50.7s-66.21-25.77-87.54-50.7c-20.88-24.4-40.61-47.44-80.46-47.44s-59.58,23.04-80.46,47.44c-21.33,24.93-43.4,50.7-87.54,50.7s-66.21-25.77-87.54-50.7c-20.88-24.4-40.61-47.44-80.46-47.44s-59.58,23.04-80.46,47.44c-21.34,24.93-43.4,50.7-87.54,50.7s-66.21-25.77-87.54-50.7c-20.88-24.4-40.61-47.44-80.46-47.44s-59.58,23.04-80.46,47.44c-21.33,24.93-43.4,50.7-87.54,50.7s-66.21-25.77-87.54-50.7c-20.88-24.4-40.61-47.44-80.46-47.44v-9.32c44.15,0,66.21,25.77,87.54,50.7,20.88,24.4,40.61,47.44,80.46,47.44s59.58-23.04,80.46-47.44c21.33-24.93,43.4-50.7,87.54-50.7s66.21,25.77,87.54,50.7c20.88,24.4,40.61,47.44,80.46,47.44s59.58-23.04,80.46-47.44c21.34-24.93,43.4-50.7,87.54-50.7s66.21,25.77,87.54,50.7c20.88,24.4,40.61,47.44,80.46,47.44s59.58-23.04,80.46-47.44c21.33-24.93,43.4-50.7,87.54-50.7s66.21,25.77,87.54,50.7c20.88,24.4,40.61,47.44,80.46,47.44s59.58-23.04,80.46-47.44c21.33-24.93,43.4-50.7,87.54-50.7s66.21,25.77,87.54,50.7c20.88,24.4,40.61,47.44,80.46,47.44s59.58-23.04,80.46-47.44c21.34-24.93,43.4-50.7,87.54-50.7s66.21,25.77,87.55,50.7c20.88,24.4,40.61,47.44,80.46,47.44s59.58-23.04,80.46-47.44c21.34-24.93,43.4-50.7,87.55-50.7v9.32c-39.86,0-59.58,23.04-80.46,47.44-21.33,24.93-43.4,50.7-87.54,50.7Z"/><path d="M5889.97,894.06c-44.15,0-66.21-25.77-87.54-50.7-20.88-24.4-40.61-47.44-80.46-47.44s-59.58,23.04-80.46,47.44c-21.33,24.93-43.4,50.7-87.54,50.7s-66.21-25.77-87.54-50.7c-20.88-24.4-40.61-47.44-80.46-47.44s-59.58,23.04-80.46,47.44c-21.34,24.93-43.4,50.7-87.54,50.7s-66.21-25.77-87.54-50.7c-20.88-24.4-40.61-47.44-80.46-47.44s-59.58,23.04-80.46,47.44c-21.33,24.93-43.4,50.7-87.54,50.7s-66.21-25.77-87.54-50.7c-20.88-24.4-40.61-47.44-80.46-47.44s-59.58,23.04-80.46,47.44c-21.34,24.93-43.4,50.7-87.54,50.7s-66.21-25.77-87.54-50.7c-20.88-24.4-40.61-47.44-80.46-47.44s-59.58,23.04-80.46,47.44c-21.33,24.93-43.4,50.7-87.54,50.7s-66.21-25.77-87.54-50.7c-20.88-24.4-40.61-47.44-80.46-47.44v-9.32c44.15,0,66.21,25.77,87.54,50.7,20.88,24.4,40.61,47.44,80.46,47.44s59.58-23.04,80.46-47.44c21.33-24.93,43.4-50.7,87.54-50.7s66.21,25.77,87.54,50.7c20.88,24.4,40.61,47.44,80.46,47.44s59.58-23.04,80.46-47.44c21.34-24.93,43.4-50.7,87.54-50.7s66.21,25.77,87.54,50.7c20.88,24.4,40.61,47.44,80.46,47.44s59.58-23.04,80.46-47.44c21.33-24.93,43.4-50.7,87.54-50.7s66.21,25.77,87.54,50.7c20.88,24.4,40.61,47.44,80.46,47.44s59.58-23.04,80.46-47.44c21.33-24.93,43.4-50.7,87.54-50.7s66.21,25.77,87.54,50.7c20.88,24.4,40.61,47.44,80.46,47.44s59.58-23.04,80.46-47.44c21.34-24.93,43.4-50.7,87.54-50.7s66.21,25.77,87.55,50.7c20.88,24.4,40.61,47.44,80.46,47.44s59.58-23.04,80.46-47.44c21.34-24.93,43.4-50.7,87.55-50.7v9.32c-39.86,0-59.58,23.04-80.46,47.44-21.33,24.93-43.4,50.7-87.54,50.7Z"/><path d="M1848.05,1006.43c-44.15,0-66.21-25.77-87.54-50.7-20.88-24.4-40.61-47.44-80.46-47.44s-59.58,23.04-80.46,47.44c-21.33,24.93-43.4,50.7-87.54,50.7s-66.21-25.77-87.54-50.7c-20.88-24.4-40.61-47.44-80.46-47.44s-59.58,23.04-80.46,47.44c-21.34,24.93-43.4,50.7-87.54,50.7s-66.21-25.77-87.54-50.7c-20.88-24.4-40.61-47.44-80.46-47.44s-59.58,23.04-80.46,47.44c-21.33,24.93-43.4,50.7-87.54,50.7s-66.21-25.77-87.54-50.7c-20.88-24.4-40.61-47.44-80.46-47.44s-59.58,23.04-80.46,47.44c-21.34,24.93-43.4,50.7-87.54,50.7s-66.21-25.77-87.54-50.7c-20.88-24.4-40.61-47.44-80.46-47.44s-59.58,23.04-80.46,47.44c-21.33,24.93-43.4,50.7-87.54,50.7s-66.21-25.77-87.54-50.7c-20.88-24.4-40.61-47.44-80.46-47.44v-9.32c44.15,0,66.21,25.77,87.54,50.7,20.88,24.4,40.61,47.44,80.46,47.44s59.58-23.04,80.46-47.44c21.33-24.93,43.4-50.7,87.54-50.7s66.21,25.77,87.54,50.7c20.88,24.4,40.61,47.44,80.46,47.44s59.58-23.04,80.46-47.44c21.34-24.93,43.4-50.7,87.54-50.7s66.21,25.77,87.54,50.7c20.88,24.4,40.61,47.44,80.46,47.44s59.58-23.04,80.46-47.44c21.33-24.93,43.4-50.7,87.54-50.7s66.21,25.77,87.54,50.7c20.88,24.4,40.61,47.44,80.46,47.44s59.58-23.04,80.46-47.44c21.33-24.93,43.4-50.7,87.54-50.7s66.21,25.77,87.54,50.7c20.88,24.4,40.61,47.44,80.46,47.44s59.58-23.04,80.46-47.44c21.34-24.93,43.4-50.7,87.54-50.7s66.21,25.77,87.55,50.7c20.88,24.4,40.61,47.44,80.46,47.44s59.58-23.04,80.46-47.44c21.34-24.93,43.4-50.7,87.55-50.7v9.32c-39.86,0-59.58,23.04-80.46,47.44-21.33,24.93-43.4,50.7-87.54,50.7Z"/><path d="M3869.01,1006.43c-44.15,0-66.21-25.77-87.54-50.7-20.88-24.4-40.61-47.44-80.46-47.44s-59.58,23.04-80.46,47.44c-21.33,24.93-43.4,50.7-87.54,50.7s-66.21-25.77-87.54-50.7c-20.88-24.4-40.61-47.44-80.46-47.44s-59.58,23.04-80.46,47.44c-21.34,24.93-43.4,50.7-87.54,50.7s-66.21-25.77-87.54-50.7c-20.88-24.4-40.61-47.44-80.46-47.44s-59.58,23.04-80.46,47.44c-21.33,24.93-43.4,50.7-87.54,50.7s-66.21-25.77-87.54-50.7c-20.88-24.4-40.61-47.44-80.46-47.44s-59.58,23.04-80.46,47.44c-21.34,24.93-43.4,50.7-87.54,50.7s-66.21-25.77-87.54-50.7c-20.88-24.4-40.61-47.44-80.46-47.44s-59.58,23.04-80.46,47.44c-21.33,24.93-43.4,50.7-87.54,50.7s-66.21-25.77-87.54-50.7c-20.88-24.4-40.61-47.44-80.46-47.44v-9.32c44.15,0,66.21,25.77,87.54,50.7,20.88,24.4,40.61,47.44,80.46,47.44s59.58-23.04,80.46-47.44c21.33-24.93,43.4-50.7,87.54-50.7s66.21,25.77,87.54,50.7c20.88,24.4,40.61,47.44,80.46,47.44s59.58-23.04,80.46-47.44c21.34-24.93,43.4-50.7,87.54-50.7s66.21,25.77,87.54,50.7c20.88,24.4,40.61,47.44,80.46,47.44s59.58-23.04,80.46-47.44c21.33-24.93,43.4-50.7,87.54-50.7s66.21,25.77,87.54,50.7c20.88,24.4,40.61,47.44,80.46,47.44s59.58-23.04,80.46-47.44c21.33-24.93,43.4-50.7,87.54-50.7s66.21,25.77,87.54,50.7c20.88,24.4,40.61,47.44,80.46,47.44s59.58-23.04,80.46-47.44c21.34-24.93,43.4-50.7,87.54-50.7s66.21,25.77,87.55,50.7c20.88,24.4,40.61,47.44,80.46,47.44s59.58-23.04,80.46-47.44c21.34-24.93,43.4-50.7,87.55-50.7v9.32c-39.86,0-59.58,23.04-80.46,47.44-21.33,24.93-43.4,50.7-87.54,50.7Z"/><path d="M5889.97,1006.43c-44.15,0-66.21-25.77-87.54-50.7-20.88-24.4-40.61-47.44-80.46-47.44s-59.58,23.04-80.46,47.44c-21.33,24.93-43.4,50.7-87.54,50.7s-66.21-25.77-87.54-50.7c-20.88-24.4-40.61-47.44-80.46-47.44s-59.58,23.04-80.46,47.44c-21.34,24.93-43.4,50.7-87.54,50.7s-66.21-25.77-87.54-50.7c-20.88-24.4-40.61-47.44-80.46-47.44s-59.58,23.04-80.46,47.44c-21.33,24.93-43.4,50.7-87.54,50.7s-66.21-25.77-87.54-50.7c-20.88-24.4-40.61-47.44-80.46-47.44s-59.58,23.04-80.46,47.44c-21.34,24.93-43.4,50.7-87.54,50.7s-66.21-25.77-87.54-50.7c-20.88-24.4-40.61-47.44-80.46-47.44s-59.58,23.04-80.46,47.44c-21.33,24.93-43.4,50.7-87.54,50.7s-66.21-25.77-87.54-50.7c-20.88-24.4-40.61-47.44-80.46-47.44v-9.32c44.15,0,66.21,25.77,87.54,50.7,20.88,24.4,40.61,47.44,80.46,47.44s59.58-23.04,80.46-47.44c21.33-24.93,43.4-50.7,87.54-50.7s66.21,25.77,87.54,50.7c20.88,24.4,40.61,47.44,80.46,47.44s59.58-23.04,80.46-47.44c21.34-24.93,43.4-50.7,87.54-50.7s66.21,25.77,87.54,50.7c20.88,24.4,40.61,47.44,80.46,47.44s59.58-23.04,80.46-47.44c21.33-24.93,43.4-50.7,87.54-50.7s66.21,25.77,87.54,50.7c20.88,24.4,40.61,47.44,80.46,47.44s59.58-23.04,80.46-47.44c21.33-24.93,43.4-50.7,87.54-50.7s66.21,25.77,87.54,50.7c20.88,24.4,40.61,47.44,80.46,47.44s59.58-23.04,80.46-47.44c21.34-24.93,43.4-50.7,87.54-50.7s66.21,25.77,87.55,50.7c20.88,24.4,40.61,47.44,80.46,47.44s59.58-23.04,80.46-47.44c21.34-24.93,43.4-50.7,87.55-50.7v9.32c-39.86,0-59.58,23.04-80.46,47.44-21.33,24.93-43.4,50.7-87.54,50.7Z"/><path d="M1848.05,1118.8c-44.15,0-66.21-25.77-87.54-50.7-20.88-24.4-40.61-47.44-80.46-47.44s-59.58,23.04-80.46,47.44c-21.33,24.93-43.4,50.7-87.54,50.7s-66.21-25.77-87.54-50.7c-20.88-24.4-40.61-47.44-80.46-47.44s-59.58,23.04-80.46,47.44c-21.34,24.93-43.4,50.7-87.54,50.7s-66.21-25.77-87.54-50.7c-20.88-24.4-40.61-47.44-80.46-47.44s-59.58,23.04-80.46,47.44c-21.33,24.93-43.4,50.7-87.54,50.7s-66.21-25.77-87.54-50.7c-20.88-24.4-40.61-47.44-80.46-47.44s-59.58,23.04-80.46,47.44c-21.34,24.93-43.4,50.7-87.54,50.7s-66.21-25.77-87.54-50.7c-20.88-24.4-40.61-47.44-80.46-47.44s-59.58,23.04-80.46,47.44c-21.33,24.93-43.4,50.7-87.54,50.7s-66.21-25.77-87.54-50.7c-20.88-24.4-40.61-47.44-80.46-47.44v-9.32c44.15,0,66.21,25.77,87.54,50.7,20.88,24.4,40.61,47.44,80.46,47.44s59.58-23.04,80.46-47.44c21.33-24.93,43.4-50.7,87.54-50.7s66.21,25.77,87.54,50.7c20.88,24.4,40.61,47.44,80.46,47.44s59.58-23.04,80.46-47.44c21.34-24.93,43.4-50.7,87.54-50.7s66.21,25.77,87.54,50.7c20.88,24.4,40.61,47.44,80.46,47.44s59.58-23.04,80.46-47.44c21.33-24.93,43.4-50.7,87.54-50.7s66.21,25.77,87.54,50.7c20.88,24.4,40.61,47.44,80.46,47.44s59.58-23.04,80.46-47.44c21.33-24.93,43.4-50.7,87.54-50.7s66.21,25.77,87.54,50.7c20.88,24.4,40.61,47.44,80.46,47.44s59.58-23.04,80.46-47.44c21.34-24.93,43.4-50.7,87.54-50.7s66.21,25.77,87.55,50.7c20.88,24.4,40.61,47.44,80.46,47.44s59.58-23.04,80.46-47.44c21.34-24.93,43.4-50.7,87.55-50.7v9.32c-39.86,0-59.58,23.04-80.46,47.44-21.33,24.93-43.4,50.7-87.54,50.7Z"/><path d="M3869.01,1118.8c-44.15,0-66.21-25.77-87.54-50.7-20.88-24.4-40.61-47.44-80.46-47.44s-59.58,23.04-80.46,47.44c-21.33,24.93-43.4,50.7-87.54,50.7s-66.21-25.77-87.54-50.7c-20.88-24.4-40.61-47.44-80.46-47.44s-59.58,23.04-80.46,47.44c-21.34,24.93-43.4,50.7-87.54,50.7s-66.21-25.77-87.54-50.7c-20.88-24.4-40.61-47.44-80.46-47.44s-59.58,23.04-80.46,47.44c-21.33,24.93-43.4,50.7-87.54,50.7s-66.21-25.77-87.54-50.7c-20.88-24.4-40.61-47.44-80.46-47.44s-59.58,23.04-80.46,47.44c-21.34,24.93-43.4,50.7-87.54,50.7s-66.21-25.77-87.54-50.7c-20.88-24.4-40.61-47.44-80.46-47.44s-59.58,23.04-80.46,47.44c-21.33,24.93-43.4,50.7-87.54,50.7s-66.21-25.77-87.54-50.7c-20.88-24.4-40.61-47.44-80.46-47.44v-9.32c44.15,0,66.21,25.77,87.54,50.7,20.88,24.4,40.61,47.44,80.46,47.44s59.58-23.04,80.46-47.44c21.33-24.93,43.4-50.7,87.54-50.7s66.21,25.77,87.54,50.7c20.88,24.4,40.61,47.44,80.46,47.44s59.58-23.04,80.46-47.44c21.34-24.93,43.4-50.7,87.54-50.7s66.21,25.77,87.54,50.7c20.88,24.4,40.61,47.44,80.46,47.44s59.58-23.04,80.46-47.44c21.33-24.93,43.4-50.7,87.54-50.7s66.21,25.77,87.54,50.7c20.88,24.4,40.61,47.44,80.46,47.44s59.58-23.04,80.46-47.44c21.33-24.93,43.4-50.7,87.54-50.7s66.21,25.77,87.54,50.7c20.88,24.4,40.61,47.44,80.46,47.44s59.58-23.04,80.46-47.44c21.34-24.93,43.4-50.7,87.54-50.7s66.21,25.77,87.55,50.7c20.88,24.4,40.61,47.44,80.46,47.44s59.58-23.04,80.46-47.44c21.34-24.93,43.4-50.7,87.55-50.7v9.32c-39.86,0-59.58,23.04-80.46,47.44-21.33,24.93-43.4,50.7-87.54,50.7Z"/><path d="M5889.97,1118.8c-44.15,0-66.21-25.77-87.54-50.7-20.88-24.4-40.61-47.44-80.46-47.44s-59.58,23.04-80.46,47.44c-21.33,24.93-43.4,50.7-87.54,50.7s-66.21-25.77-87.54-50.7c-20.88-24.4-40.61-47.44-80.46-47.44s-59.58,23.04-80.46,47.44c-21.34,24.93-43.4,50.7-87.54,50.7s-66.21-25.77-87.54-50.7c-20.88-24.4-40.61-47.44-80.46-47.44s-59.58,23.04-80.46,47.44c-21.33,24.93-43.4,50.7-87.54,50.7s-66.21-25.77-87.54-50.7c-20.88-24.4-40.61-47.44-80.46-47.44s-59.58,23.04-80.46,47.44c-21.34,24.93-43.4,50.7-87.54,50.7s-66.21-25.77-87.54-50.7c-20.88-24.4-40.61-47.44-80.46-47.44s-59.58,23.04-80.46,47.44c-21.33,24.93-43.4,50.7-87.54,50.7s-66.21-25.77-87.54-50.7c-20.88-24.4-40.61-47.44-80.46-47.44v-9.32c44.15,0,66.21,25.77,87.54,50.7,20.88,24.4,40.61,47.44,80.46,47.44s59.58-23.04,80.46-47.44c21.33-24.93,43.4-50.7,87.54-50.7s66.21,25.77,87.54,50.7c20.88,24.4,40.61,47.44,80.46,47.44s59.58-23.04,80.46-47.44c21.34-24.93,43.4-50.7,87.54-50.7s66.21,25.77,87.54,50.7c20.88,24.4,40.61,47.44,80.46,47.44s59.58-23.04,80.46-47.44c21.33-24.93,43.4-50.7,87.54-50.7s66.21,25.77,87.54,50.7c20.88,24.4,40.61,47.44,80.46,47.44s59.58-23.04,80.46-47.44c21.33-24.93,43.4-50.7,87.54-50.7s66.21,25.77,87.54,50.7c20.88,24.4,40.61,47.44,80.46,47.44s59.58-23.04,80.46-47.44c21.34-24.93,43.4-50.7,87.54-50.7s66.21,25.77,87.55,50.7c20.88,24.4,40.61,47.44,80.46,47.44s59.58-23.04,80.46-47.44c21.34-24.93,43.4-50.7,87.55-50.7v9.32c-39.86,0-59.58,23.04-80.46,47.44-21.33,24.93-43.4,50.7-87.54,50.7Z"/><path d="M1848.05,1231.17c-44.15,0-66.21-25.77-87.54-50.7-20.88-24.4-40.61-47.44-80.46-47.44s-59.58,23.04-80.46,47.44c-21.33,24.93-43.4,50.7-87.54,50.7s-66.21-25.77-87.54-50.7c-20.88-24.4-40.61-47.44-80.46-47.44s-59.58,23.04-80.46,47.44c-21.34,24.93-43.4,50.7-87.54,50.7s-66.21-25.77-87.54-50.7c-20.88-24.4-40.61-47.44-80.46-47.44s-59.58,23.04-80.46,47.44c-21.33,24.93-43.4,50.7-87.54,50.7s-66.21-25.77-87.54-50.7c-20.88-24.4-40.61-47.44-80.46-47.44s-59.58,23.04-80.46,47.44c-21.34,24.93-43.4,50.7-87.54,50.7s-66.21-25.77-87.54-50.7c-20.88-24.4-40.61-47.44-80.46-47.44s-59.58,23.04-80.46,47.44c-21.33,24.93-43.4,50.7-87.54,50.7s-66.21-25.77-87.54-50.7c-20.88-24.4-40.61-47.44-80.46-47.44v-9.32c44.15,0,66.21,25.77,87.54,50.7,20.88,24.4,40.61,47.44,80.46,47.44s59.58-23.04,80.46-47.44c21.33-24.93,43.4-50.7,87.54-50.7s66.21,25.77,87.54,50.7c20.88,24.4,40.61,47.44,80.46,47.44s59.58-23.04,80.46-47.44c21.34-24.93,43.4-50.7,87.54-50.7s66.21,25.77,87.54,50.7c20.88,24.4,40.61,47.44,80.46,47.44s59.58-23.04,80.46-47.44c21.33-24.93,43.4-50.7,87.54-50.7s66.21,25.77,87.54,50.7c20.88,24.4,40.61,47.44,80.46,47.44s59.58-23.04,80.46-47.44c21.33-24.93,43.4-50.7,87.54-50.7s66.21,25.77,87.54,50.7c20.88,24.4,40.61,47.44,80.46,47.44s59.58-23.04,80.46-47.44c21.34-24.93,43.4-50.7,87.54-50.7s66.21,25.77,87.55,50.7c20.88,24.4,40.61,47.44,80.46,47.44s59.58-23.04,80.46-47.44c21.34-24.93,43.4-50.7,87.55-50.7v9.32c-39.86,0-59.58,23.04-80.46,47.44-21.33,24.93-43.4,50.7-87.54,50.7Z"/><path d="M3869.01,1231.17c-44.15,0-66.21-25.77-87.54-50.7-20.88-24.4-40.61-47.44-80.46-47.44s-59.58,23.04-80.46,47.44c-21.33,24.93-43.4,50.7-87.54,50.7s-66.21-25.77-87.54-50.7c-20.88-24.4-40.61-47.44-80.46-47.44s-59.58,23.04-80.46,47.44c-21.34,24.93-43.4,50.7-87.54,50.7s-66.21-25.77-87.54-50.7c-20.88-24.4-40.61-47.44-80.46-47.44s-59.58,23.04-80.46,47.44c-21.33,24.93-43.4,50.7-87.54,50.7s-66.21-25.77-87.54-50.7c-20.88-24.4-40.61-47.44-80.46-47.44s-59.58,23.04-80.46,47.44c-21.34,24.93-43.4,50.7-87.54,50.7s-66.21-25.77-87.54-50.7c-20.88-24.4-40.61-47.44-80.46-47.44s-59.58,23.04-80.46,47.44c-21.33,24.93-43.4,50.7-87.54,50.7s-66.21-25.77-87.54-50.7c-20.88-24.4-40.61-47.44-80.46-47.44v-9.32c44.15,0,66.21,25.77,87.54,50.7,20.88,24.4,40.61,47.44,80.46,47.44s59.58-23.04,80.46-47.44c21.33-24.93,43.4-50.7,87.54-50.7s66.21,25.77,87.54,50.7c20.88,24.4,40.61,47.44,80.46,47.44s59.58-23.04,80.46-47.44c21.34-24.93,43.4-50.7,87.54-50.7s66.21,25.77,87.54,50.7c20.88,24.4,40.61,47.44,80.46,47.44s59.58-23.04,80.46-47.44c21.33-24.93,43.4-50.7,87.54-50.7s66.21,25.77,87.54,50.7c20.88,24.4,40.61,47.44,80.46,47.44s59.58-23.04,80.46-47.44c21.33-24.93,43.4-50.7,87.54-50.7s66.21,25.77,87.54,50.7c20.88,24.4,40.61,47.44,80.46,47.44s59.58-23.04,80.46-47.44c21.34-24.93,43.4-50.7,87.54-50.7s66.21,25.77,87.55,50.7c20.88,24.4,40.61,47.44,80.46,47.44s59.58-23.04,80.46-47.44c21.34-24.93,43.4-50.7,87.55-50.7v9.32c-39.86,0-59.58,23.04-80.46,47.44-21.33,24.93-43.4,50.7-87.54,50.7Z"/><path d="M5889.97,1231.17c-44.15,0-66.21-25.77-87.54-50.7-20.88-24.4-40.61-47.44-80.46-47.44s-59.58,23.04-80.46,47.44c-21.33,24.93-43.4,50.7-87.54,50.7s-66.21-25.77-87.54-50.7c-20.88-24.4-40.61-47.44-80.46-47.44s-59.58,23.04-80.46,47.44c-21.34,24.93-43.4,50.7-87.54,50.7s-66.21-25.77-87.54-50.7c-20.88-24.4-40.61-47.44-80.46-47.44s-59.58,23.04-80.46,47.44c-21.33,24.93-43.4,50.7-87.54,50.7s-66.21-25.77-87.54-50.7c-20.88-24.4-40.61-47.44-80.46-47.44s-59.58,23.04-80.46,47.44c-21.34,24.93-43.4,50.7-87.54,50.7s-66.21-25.77-87.54-50.7c-20.88-24.4-40.61-47.44-80.46-47.44s-59.58,23.04-80.46,47.44c-21.33,24.93-43.4,50.7-87.54,50.7s-66.21-25.77-87.54-50.7c-20.88-24.4-40.61-47.44-80.46-47.44v-9.32c44.15,0,66.21,25.77,87.54,50.7,20.88,24.4,40.61,47.44,80.46,47.44s59.58-23.04,80.46-47.44c21.33-24.93,43.4-50.7,87.54-50.7s66.21,25.77,87.54,50.7c20.88,24.4,40.61,47.44,80.46,47.44s59.58-23.04,80.46-47.44c21.34-24.93,43.4-50.7,87.54-50.7s66.21,25.77,87.54,50.7c20.88,24.4,40.61,47.44,80.46,47.44s59.58-23.04,80.46-47.44c21.33-24.93,43.4-50.7,87.54-50.7s66.21,25.77,87.54,50.7c20.88,24.4,40.61,47.44,80.46,47.44s59.58-23.04,80.46-47.44c21.33-24.93,43.4-50.7,87.54-50.7s66.21,25.77,87.54,50.7c20.88,24.4,40.61,47.44,80.46,47.44s59.58-23.04,80.46-47.44c21.34-24.93,43.4-50.7,87.54-50.7s66.21,25.77,87.55,50.7c20.88,24.4,40.61,47.44,80.46,47.44s59.58-23.04,80.46-47.44c21.34-24.93,43.4-50.7,87.55-50.7v9.32c-39.86,0-59.58,23.04-80.46,47.44-21.33,24.93-43.4,50.7-87.54,50.7Z"/><path d="M1848.05,1343.54c-44.15,0-66.21-25.77-87.54-50.7-20.88-24.4-40.61-47.44-80.46-47.44s-59.58,23.04-80.46,47.44c-21.33,24.93-43.4,50.7-87.54,50.7s-66.21-25.77-87.54-50.7c-20.88-24.4-40.61-47.44-80.46-47.44s-59.58,23.04-80.46,47.44c-21.34,24.93-43.4,50.7-87.54,50.7s-66.21-25.77-87.54-50.7c-20.88-24.4-40.61-47.44-80.46-47.44s-59.58,23.04-80.46,47.44c-21.33,24.93-43.4,50.7-87.54,50.7s-66.21-25.77-87.54-50.7c-20.88-24.4-40.61-47.44-80.46-47.44s-59.58,23.04-80.46,47.44c-21.34,24.93-43.4,50.7-87.54,50.7s-66.21-25.77-87.54-50.7c-20.88-24.4-40.61-47.44-80.46-47.44s-59.58,23.04-80.46,47.44c-21.33,24.93-43.4,50.7-87.54,50.7s-66.21-25.77-87.54-50.7c-20.88-24.4-40.61-47.44-80.46-47.44v-9.32c44.15,0,66.21,25.77,87.54,50.7,20.88,24.4,40.61,47.44,80.46,47.44s59.58-23.04,80.46-47.44c21.33-24.93,43.4-50.7,87.54-50.7s66.21,25.77,87.54,50.7c20.88,24.4,40.61,47.44,80.46,47.44s59.58-23.04,80.46-47.44c21.34-24.93,43.4-50.7,87.54-50.7s66.21,25.77,87.54,50.7c20.88,24.4,40.61,47.44,80.46,47.44s59.58-23.04,80.46-47.44c21.33-24.93,43.4-50.7,87.54-50.7s66.21,25.77,87.54,50.7c20.88,24.4,40.61,47.44,80.46,47.44s59.58-23.04,80.46-47.44c21.33-24.93,43.4-50.7,87.54-50.7s66.21,25.77,87.54,50.7c20.88,24.4,40.61,47.44,80.46,47.44s59.58-23.04,80.46-47.44c21.34-24.93,43.4-50.7,87.54-50.7s66.21,25.77,87.55,50.7c20.88,24.4,40.61,47.44,80.46,47.44s59.58-23.04,80.46-47.44c21.34-24.93,43.4-50.7,87.55-50.7v9.32c-39.86,0-59.58,23.04-80.46,47.44-21.33,24.93-43.4,50.7-87.54,50.7Z"/><path d="M3869.01,1343.54c-44.15,0-66.21-25.77-87.54-50.7-20.88-24.4-40.61-47.44-80.46-47.44s-59.58,23.04-80.46,47.44c-21.33,24.93-43.4,50.7-87.54,50.7s-66.21-25.77-87.54-50.7c-20.88-24.4-40.61-47.44-80.46-47.44s-59.58,23.04-80.46,47.44c-21.34,24.93-43.4,50.7-87.54,50.7s-66.21-25.77-87.54-50.7c-20.88-24.4-40.61-47.44-80.46-47.44s-59.58,23.04-80.46,47.44c-21.33,24.93-43.4,50.7-87.54,50.7s-66.21-25.77-87.54-50.7c-20.88-24.4-40.61-47.44-80.46-47.44s-59.58,23.04-80.46,47.44c-21.34,24.93-43.4,50.7-87.54,50.7s-66.21-25.77-87.54-50.7c-20.88-24.4-40.61-47.44-80.46-47.44s-59.58,23.04-80.46,47.44c-21.33,24.93-43.4,50.7-87.54,50.7s-66.21-25.77-87.54-50.7c-20.88-24.4-40.61-47.44-80.46-47.44v-9.32c44.15,0,66.21,25.77,87.54,50.7,20.88,24.4,40.61,47.44,80.46,47.44s59.58-23.04,80.46-47.44c21.33-24.93,43.4-50.7,87.54-50.7s66.21,25.77,87.54,50.7c20.88,24.4,40.61,47.44,80.46,47.44s59.58-23.04,80.46-47.44c21.34-24.93,43.4-50.7,87.54-50.7s66.21,25.77,87.54,50.7c20.88,24.4,40.61,47.44,80.46,47.44s59.58-23.04,80.46-47.44c21.33-24.93,43.4-50.7,87.54-50.7s66.21,25.77,87.54,50.7c20.88,24.4,40.61,47.44,80.46,47.44s59.58-23.04,80.46-47.44c21.33-24.93,43.4-50.7,87.54-50.7s66.21,25.77,87.54,50.7c20.88,24.4,40.61,47.44,80.46,47.44s59.58-23.04,80.46-47.44c21.34-24.93,43.4-50.7,87.54-50.7s66.21,25.77,87.55,50.7c20.88,24.4,40.61,47.44,80.46,47.44s59.58-23.04,80.46-47.44c21.34-24.93,43.4-50.7,87.55-50.7v9.32c-39.86,0-59.58,23.04-80.46,47.44-21.33,24.93-43.4,50.7-87.54,50.7Z"/><path d="M5889.97,1343.54c-44.15,0-66.21-25.77-87.54-50.7-20.88-24.4-40.61-47.44-80.46-47.44s-59.58,23.04-80.46,47.44c-21.33,24.93-43.4,50.7-87.54,50.7s-66.21-25.77-87.54-50.7c-20.88-24.4-40.61-47.44-80.46-47.44s-59.58,23.04-80.46,47.44c-21.34,24.93-43.4,50.7-87.54,50.7s-66.21-25.77-87.54-50.7c-20.88-24.4-40.61-47.44-80.46-47.44s-59.58,23.04-80.46,47.44c-21.33,24.93-43.4,50.7-87.54,50.7s-66.21-25.77-87.54-50.7c-20.88-24.4-40.61-47.44-80.46-47.44s-59.58,23.04-80.46,47.44c-21.34,24.93-43.4,50.7-87.54,50.7s-66.21-25.77-87.54-50.7c-20.88-24.4-40.61-47.44-80.46-47.44s-59.58,23.04-80.46,47.44c-21.33,24.93-43.4,50.7-87.54,50.7s-66.21-25.77-87.54-50.7c-20.88-24.4-40.61-47.44-80.46-47.44v-9.32c44.15,0,66.21,25.77,87.54,50.7,20.88,24.4,40.61,47.44,80.46,47.44s59.58-23.04,80.46-47.44c21.33-24.93,43.4-50.7,87.54-50.7s66.21,25.77,87.54,50.7c20.88,24.4,40.61,47.44,80.46,47.44s59.58-23.04,80.46-47.44c21.34-24.93,43.4-50.7,87.54-50.7s66.21,25.77,87.54,50.7c20.88,24.4,40.61,47.44,80.46,47.44s59.58-23.04,80.46-47.44c21.33-24.93,43.4-50.7,87.54-50.7s66.21,25.77,87.54,50.7c20.88,24.4,40.61,47.44,80.46,47.44s59.58-23.04,80.46-47.44c21.33-24.93,43.4-50.7,87.54-50.7s66.21,25.77,87.54,50.7c20.88,24.4,40.61,47.44,80.46,47.44s59.58-23.04,80.46-47.44c21.34-24.93,43.4-50.7,87.54-50.7s66.21,25.77,87.55,50.7c20.88,24.4,40.61,47.44,80.46,47.44s59.58-23.04,80.46-47.44c21.34-24.93,43.4-50.7,87.55-50.7v9.32c-39.86,0-59.58,23.04-80.46,47.44-21.33,24.93-43.4,50.7-87.54,50.7Z"/><path d="M1848.05,1455.91c-44.15,0-66.21-25.77-87.54-50.7-20.88-24.4-40.61-47.44-80.46-47.44s-59.58,23.04-80.46,47.44c-21.33,24.93-43.4,50.7-87.54,50.7s-66.21-25.77-87.54-50.7c-20.88-24.4-40.61-47.44-80.46-47.44s-59.58,23.04-80.46,47.44c-21.34,24.93-43.4,50.7-87.54,50.7s-66.21-25.77-87.54-50.7c-20.88-24.4-40.61-47.44-80.46-47.44s-59.58,23.04-80.46,47.44c-21.33,24.93-43.4,50.7-87.54,50.7s-66.21-25.77-87.54-50.7c-20.88-24.4-40.61-47.44-80.46-47.44s-59.58,23.04-80.46,47.44c-21.34,24.93-43.4,50.7-87.54,50.7s-66.21-25.77-87.54-50.7c-20.88-24.4-40.61-47.44-80.46-47.44s-59.58,23.04-80.46,47.44c-21.33,24.93-43.4,50.7-87.54,50.7s-66.21-25.77-87.54-50.7c-20.88-24.4-40.61-47.44-80.46-47.44v-9.32c44.15,0,66.21,25.77,87.54,50.7,20.88,24.4,40.61,47.44,80.46,47.44s59.58-23.04,80.46-47.44c21.33-24.93,43.4-50.7,87.54-50.7s66.21,25.77,87.54,50.7c20.88,24.4,40.61,47.44,80.46,47.44s59.58-23.04,80.46-47.44c21.34-24.93,43.4-50.7,87.54-50.7s66.21,25.77,87.54,50.7c20.88,24.4,40.61,47.44,80.46,47.44s59.58-23.04,80.46-47.44c21.33-24.93,43.4-50.7,87.54-50.7s66.21,25.77,87.54,50.7c20.88,24.4,40.61,47.44,80.46,47.44s59.58-23.04,80.46-47.44c21.33-24.93,43.4-50.7,87.54-50.7s66.21,25.77,87.54,50.7c20.88,24.4,40.61,47.44,80.46,47.44s59.58-23.04,80.46-47.44c21.34-24.93,43.4-50.7,87.54-50.7s66.21,25.77,87.55,50.7c20.88,24.4,40.61,47.44,80.46,47.44s59.58-23.04,80.46-47.44c21.34-24.93,43.4-50.7,87.55-50.7v9.32c-39.86,0-59.58,23.04-80.46,47.44-21.33,24.93-43.4,50.7-87.54,50.7Z"/><path d="M3869.01,1455.91c-44.15,0-66.21-25.77-87.54-50.7-20.88-24.4-40.61-47.44-80.46-47.44s-59.58,23.04-80.46,47.44c-21.33,24.93-43.4,50.7-87.54,50.7s-66.21-25.77-87.54-50.7c-20.88-24.4-40.61-47.44-80.46-47.44s-59.58,23.04-80.46,47.44c-21.34,24.93-43.4,50.7-87.54,50.7s-66.21-25.77-87.54-50.7c-20.88-24.4-40.61-47.44-80.46-47.44s-59.58,23.04-80.46,47.44c-21.33,24.93-43.4,50.7-87.54,50.7s-66.21-25.77-87.54-50.7c-20.88-24.4-40.61-47.44-80.46-47.44s-59.58,23.04-80.46,47.44c-21.34,24.93-43.4,50.7-87.54,50.7s-66.21-25.77-87.54-50.7c-20.88-24.4-40.61-47.44-80.46-47.44s-59.58,23.04-80.46,47.44c-21.33,24.93-43.4,50.7-87.54,50.7s-66.21-25.77-87.54-50.7c-20.88-24.4-40.61-47.44-80.46-47.44v-9.32c44.15,0,66.21,25.77,87.54,50.7,20.88,24.4,40.61,47.44,80.46,47.44s59.58-23.04,80.46-47.44c21.33-24.93,43.4-50.7,87.54-50.7s66.21,25.77,87.54,50.7c20.88,24.4,40.61,47.44,80.46,47.44s59.58-23.04,80.46-47.44c21.34-24.93,43.4-50.7,87.54-50.7s66.21,25.77,87.54,50.7c20.88,24.4,40.61,47.44,80.46,47.44s59.58-23.04,80.46-47.44c21.33-24.93,43.4-50.7,87.54-50.7s66.21,25.77,87.54,50.7c20.88,24.4,40.61,47.44,80.46,47.44s59.58-23.04,80.46-47.44c21.33-24.93,43.4-50.7,87.54-50.7s66.21,25.77,87.54,50.7c20.88,24.4,40.61,47.44,80.46,47.44s59.58-23.04,80.46-47.44c21.34-24.93,43.4-50.7,87.54-50.7s66.21,25.77,87.55,50.7c20.88,24.4,40.61,47.44,80.46,47.44s59.58-23.04,80.46-47.44c21.34-24.93,43.4-50.7,87.55-50.7v9.32c-39.86,0-59.58,23.04-80.46,47.44-21.33,24.93-43.4,50.7-87.54,50.7Z"/><path d="M5889.97,1455.91c-44.15,0-66.21-25.77-87.54-50.7-20.88-24.4-40.61-47.44-80.46-47.44s-59.58,23.04-80.46,47.44c-21.33,24.93-43.4,50.7-87.54,50.7s-66.21-25.77-87.54-50.7c-20.88-24.4-40.61-47.44-80.46-47.44s-59.58,23.04-80.46,47.44c-21.34,24.93-43.4,50.7-87.54,50.7s-66.21-25.77-87.54-50.7c-20.88-24.4-40.61-47.44-80.46-47.44s-59.58,23.04-80.46,47.44c-21.33,24.93-43.4,50.7-87.54,50.7s-66.21-25.77-87.54-50.7c-20.88-24.4-40.61-47.44-80.46-47.44s-59.58,23.04-80.46,47.44c-21.34,24.93-43.4,50.7-87.54,50.7s-66.21-25.77-87.54-50.7c-20.88-24.4-40.61-47.44-80.46-47.44s-59.58,23.04-80.46,47.44c-21.33,24.93-43.4,50.7-87.54,50.7s-66.21-25.77-87.54-50.7c-20.88-24.4-40.61-47.44-80.46-47.44v-9.32c44.15,0,66.21,25.77,87.54,50.7,20.88,24.4,40.61,47.44,80.46,47.44s59.58-23.04,80.46-47.44c21.33-24.93,43.4-50.7,87.54-50.7s66.21,25.77,87.54,50.7c20.88,24.4,40.61,47.44,80.46,47.44s59.58-23.04,80.46-47.44c21.34-24.93,43.4-50.7,87.54-50.7s66.21,25.77,87.54,50.7c20.88,24.4,40.61,47.44,80.46,47.44s59.58-23.04,80.46-47.44c21.33-24.93,43.4-50.7,87.54-50.7s66.21,25.77,87.54,50.7c20.88,24.4,40.61,47.44,80.46,47.44s59.58-23.04,80.46-47.44c21.33-24.93,43.4-50.7,87.54-50.7s66.21,25.77,87.54,50.7c20.88,24.4,40.61,47.44,80.46,47.44s59.58-23.04,80.46-47.44c21.34-24.93,43.4-50.7,87.54-50.7s66.21,25.77,87.55,50.7c20.88,24.4,40.61,47.44,80.46,47.44s59.58-23.04,80.46-47.44c21.34-24.93,43.4-50.7,87.55-50.7v9.32c-39.86,0-59.58,23.04-80.46,47.44-21.33,24.93-43.4,50.7-87.54,50.7Z"/><path d="M1848.05,1568.28c-44.15,0-66.21-25.77-87.54-50.7-20.88-24.4-40.61-47.44-80.46-47.44s-59.58,23.04-80.46,47.44c-21.33,24.93-43.4,50.7-87.54,50.7s-66.21-25.77-87.54-50.7c-20.88-24.4-40.61-47.44-80.46-47.44s-59.58,23.04-80.46,47.44c-21.34,24.93-43.4,50.7-87.54,50.7s-66.21-25.77-87.54-50.7c-20.88-24.4-40.61-47.44-80.46-47.44s-59.58,23.04-80.46,47.44c-21.33,24.93-43.4,50.7-87.54,50.7s-66.21-25.77-87.54-50.7c-20.88-24.4-40.61-47.44-80.46-47.44s-59.58,23.04-80.46,47.44c-21.34,24.93-43.4,50.7-87.54,50.7s-66.21-25.77-87.54-50.7c-20.88-24.4-40.61-47.44-80.46-47.44s-59.58,23.04-80.46,47.44c-21.33,24.93-43.4,50.7-87.54,50.7s-66.21-25.77-87.54-50.7c-20.88-24.4-40.61-47.44-80.46-47.44v-9.32c44.15,0,66.21,25.77,87.54,50.7,20.88,24.4,40.61,47.44,80.46,47.44s59.58-23.04,80.46-47.44c21.33-24.93,43.4-50.7,87.54-50.7s66.21,25.77,87.54,50.7c20.88,24.4,40.61,47.44,80.46,47.44s59.58-23.04,80.46-47.44c21.34-24.93,43.4-50.7,87.54-50.7s66.21,25.77,87.54,50.7c20.88,24.4,40.61,47.44,80.46,47.44s59.58-23.04,80.46-47.44c21.33-24.93,43.4-50.7,87.54-50.7s66.21,25.77,87.54,50.7c20.88,24.4,40.61,47.44,80.46,47.44s59.58-23.04,80.46-47.44c21.33-24.93,43.4-50.7,87.54-50.7s66.21,25.77,87.54,50.7c20.88,24.4,40.61,47.44,80.46,47.44s59.58-23.04,80.46-47.44c21.34-24.93,43.4-50.7,87.54-50.7s66.21,25.77,87.55,50.7c20.88,24.4,40.61,47.44,80.46,47.44s59.58-23.04,80.46-47.44c21.34-24.93,43.4-50.7,87.55-50.7v9.32c-39.86,0-59.58,23.04-80.46,47.44-21.33,24.93-43.4,50.7-87.54,50.7Z"/><path d="M3869.01,1568.28c-44.15,0-66.21-25.77-87.54-50.7-20.88-24.4-40.61-47.44-80.46-47.44s-59.58,23.04-80.46,47.44c-21.33,24.93-43.4,50.7-87.54,50.7s-66.21-25.77-87.54-50.7c-20.88-24.4-40.61-47.44-80.46-47.44s-59.58,23.04-80.46,47.44c-21.34,24.93-43.4,50.7-87.54,50.7s-66.21-25.77-87.54-50.7c-20.88-24.4-40.61-47.44-80.46-47.44s-59.58,23.04-80.46,47.44c-21.33,24.93-43.4,50.7-87.54,50.7s-66.21-25.77-87.54-50.7c-20.88-24.4-40.61-47.44-80.46-47.44s-59.58,23.04-80.46,47.44c-21.34,24.93-43.4,50.7-87.54,50.7s-66.21-25.77-87.54-50.7c-20.88-24.4-40.61-47.44-80.46-47.44s-59.58,23.04-80.46,47.44c-21.33,24.93-43.4,50.7-87.54,50.7s-66.21-25.77-87.54-50.7c-20.88-24.4-40.61-47.44-80.46-47.44v-9.32c44.15,0,66.21,25.77,87.54,50.7,20.88,24.4,40.61,47.44,80.46,47.44s59.58-23.04,80.46-47.44c21.33-24.93,43.4-50.7,87.54-50.7s66.21,25.77,87.54,50.7c20.88,24.4,40.61,47.44,80.46,47.44s59.58-23.04,80.46-47.44c21.34-24.93,43.4-50.7,87.54-50.7s66.21,25.77,87.54,50.7c20.88,24.4,40.61,47.44,80.46,47.44s59.58-23.04,80.46-47.44c21.33-24.93,43.4-50.7,87.54-50.7s66.21,25.77,87.54,50.7c20.88,24.4,40.61,47.44,80.46,47.44s59.58-23.04,80.46-47.44c21.33-24.93,43.4-50.7,87.54-50.7s66.21,25.77,87.54,50.7c20.88,24.4,40.61,47.44,80.46,47.44s59.58-23.04,80.46-47.44c21.34-24.93,43.4-50.7,87.54-50.7s66.21,25.77,87.55,50.7c20.88,24.4,40.61,47.44,80.46,47.44s59.58-23.04,80.46-47.44c21.34-24.93,43.4-50.7,87.55-50.7v9.32c-39.86,0-59.58,23.04-80.46,47.44-21.33,24.93-43.4,50.7-87.54,50.7Z"/><path d="M5889.97,1568.28c-44.15,0-66.21-25.77-87.54-50.7-20.88-24.4-40.61-47.44-80.46-47.44s-59.58,23.04-80.46,47.44c-21.33,24.93-43.4,50.7-87.54,50.7s-66.21-25.77-87.54-50.7c-20.88-24.4-40.61-47.44-80.46-47.44s-59.58,23.04-80.46,47.44c-21.34,24.93-43.4,50.7-87.54,50.7s-66.21-25.77-87.54-50.7c-20.88-24.4-40.61-47.44-80.46-47.44s-59.58,23.04-80.46,47.44c-21.33,24.93-43.4,50.7-87.54,50.7s-66.21-25.77-87.54-50.7c-20.88-24.4-40.61-47.44-80.46-47.44s-59.58,23.04-80.46,47.44c-21.34,24.93-43.4,50.7-87.54,50.7s-66.21-25.77-87.54-50.7c-20.88-24.4-40.61-47.44-80.46-47.44s-59.58,23.04-80.46,47.44c-21.33,24.93-43.4,50.7-87.54,50.7s-66.21-25.77-87.54-50.7c-20.88-24.4-40.61-47.44-80.46-47.44v-9.32c44.15,0,66.21,25.77,87.54,50.7,20.88,24.4,40.61,47.44,80.46,47.44s59.58-23.04,80.46-47.44c21.33-24.93,43.4-50.7,87.54-50.7s66.21,25.77,87.54,50.7c20.88,24.4,40.61,47.44,80.46,47.44s59.58-23.04,80.46-47.44c21.34-24.93,43.4-50.7,87.54-50.7s66.21,25.77,87.54,50.7c20.88,24.4,40.61,47.44,80.46,47.44s59.58-23.04,80.46-47.44c21.33-24.93,43.4-50.7,87.54-50.7s66.21,25.77,87.54,50.7c20.88,24.4,40.61,47.44,80.46,47.44s59.58-23.04,80.46-47.44c21.33-24.93,43.4-50.7,87.54-50.7s66.21,25.77,87.54,50.7c20.88,24.4,40.61,47.44,80.46,47.44s59.58-23.04,80.46-47.44c21.34-24.93,43.4-50.7,87.54-50.7s66.21,25.77,87.55,50.7c20.88,24.4,40.61,47.44,80.46,47.44s59.58-23.04,80.46-47.44c21.34-24.93,43.4-50.7,87.55-50.7v9.32c-39.86,0-59.58,23.04-80.46,47.44-21.33,24.93-43.4,50.7-87.54,50.7Z"/><path d="M1848.05,1680.65c-44.15,0-66.21-25.77-87.54-50.7-20.88-24.4-40.61-47.44-80.46-47.44s-59.58,23.04-80.46,47.44c-21.33,24.93-43.4,50.7-87.54,50.7s-66.21-25.77-87.54-50.7c-20.88-24.4-40.61-47.44-80.46-47.44s-59.58,23.04-80.46,47.44c-21.34,24.93-43.4,50.7-87.54,50.7s-66.21-25.77-87.54-50.7c-20.88-24.4-40.61-47.44-80.46-47.44s-59.58,23.04-80.46,47.44c-21.33,24.93-43.4,50.7-87.54,50.7s-66.21-25.77-87.54-50.7c-20.88-24.4-40.61-47.44-80.46-47.44s-59.58,23.04-80.46,47.44c-21.34,24.93-43.4,50.7-87.54,50.7s-66.21-25.77-87.54-50.7c-20.88-24.4-40.61-47.44-80.46-47.44s-59.58,23.04-80.46,47.44c-21.33,24.93-43.4,50.7-87.54,50.7s-66.21-25.77-87.54-50.7c-20.88-24.4-40.61-47.44-80.46-47.44v-9.32c44.15,0,66.21,25.77,87.54,50.7,20.88,24.4,40.61,47.44,80.46,47.44s59.58-23.04,80.46-47.44c21.33-24.93,43.4-50.7,87.54-50.7s66.21,25.77,87.54,50.7c20.88,24.4,40.61,47.44,80.46,47.44s59.58-23.04,80.46-47.44c21.34-24.93,43.4-50.7,87.54-50.7s66.21,25.77,87.54,50.7c20.88,24.4,40.61,47.44,80.46,47.44s59.58-23.04,80.46-47.44c21.33-24.93,43.4-50.7,87.54-50.7s66.21,25.77,87.54,50.7c20.88,24.4,40.61,47.44,80.46,47.44s59.58-23.04,80.46-47.44c21.33-24.93,43.4-50.7,87.54-50.7s66.21,25.77,87.54,50.7c20.88,24.4,40.61,47.44,80.46,47.44s59.58-23.04,80.46-47.44c21.34-24.93,43.4-50.7,87.54-50.7s66.21,25.77,87.55,50.7c20.88,24.4,40.61,47.44,80.46,47.44s59.58-23.04,80.46-47.44c21.34-24.93,43.4-50.7,87.55-50.7v9.32c-39.86,0-59.58,23.04-80.46,47.44-21.33,24.93-43.4,50.7-87.54,50.7Z"/><path d="M3869.01,1680.65c-44.15,0-66.21-25.77-87.54-50.7-20.88-24.4-40.61-47.44-80.46-47.44s-59.58,23.04-80.46,47.44c-21.33,24.93-43.4,50.7-87.54,50.7s-66.21-25.77-87.54-50.7c-20.88-24.4-40.61-47.44-80.46-47.44s-59.58,23.04-80.46,47.44c-21.34,24.93-43.4,50.7-87.54,50.7s-66.21-25.77-87.54-50.7c-20.88-24.4-40.61-47.44-80.46-47.44s-59.58,23.04-80.46,47.44c-21.33,24.93-43.4,50.7-87.54,50.7s-66.21-25.77-87.54-50.7c-20.88-24.4-40.61-47.44-80.46-47.44s-59.58,23.04-80.46,47.44c-21.34,24.93-43.4,50.7-87.54,50.7s-66.21-25.77-87.54-50.7c-20.88-24.4-40.61-47.44-80.46-47.44s-59.58,23.04-80.46,47.44c-21.33,24.93-43.4,50.7-87.54,50.7s-66.21-25.77-87.54-50.7c-20.88-24.4-40.61-47.44-80.46-47.44v-9.32c44.15,0,66.21,25.77,87.54,50.7,20.88,24.4,40.61,47.44,80.46,47.44s59.58-23.04,80.46-47.44c21.33-24.93,43.4-50.7,87.54-50.7s66.21,25.77,87.54,50.7c20.88,24.4,40.61,47.44,80.46,47.44s59.58-23.04,80.46-47.44c21.34-24.93,43.4-50.7,87.54-50.7s66.21,25.77,87.54,50.7c20.88,24.4,40.61,47.44,80.46,47.44s59.58-23.04,80.46-47.44c21.33-24.93,43.4-50.7,87.54-50.7s66.21,25.77,87.54,50.7c20.88,24.4,40.61,47.44,80.46,47.44s59.58-23.04,80.46-47.44c21.33-24.93,43.4-50.7,87.54-50.7s66.21,25.77,87.54,50.7c20.88,24.4,40.61,47.44,80.46,47.44s59.58-23.04,80.46-47.44c21.34-24.93,43.4-50.7,87.54-50.7s66.21,25.77,87.55,50.7c20.88,24.4,40.61,47.44,80.46,47.44s59.58-23.04,80.46-47.44c21.34-24.93,43.4-50.7,87.55-50.7v9.32c-39.86,0-59.58,23.04-80.46,47.44-21.33,24.93-43.4,50.7-87.54,50.7Z"/><path d="M5889.97,1680.65c-44.15,0-66.21-25.77-87.54-50.7-20.88-24.4-40.61-47.44-80.46-47.44s-59.58,23.04-80.46,47.44c-21.33,24.93-43.4,50.7-87.54,50.7s-66.21-25.77-87.54-50.7c-20.88-24.4-40.61-47.44-80.46-47.44s-59.58,23.04-80.46,47.44c-21.34,24.93-43.4,50.7-87.54,50.7s-66.21-25.77-87.54-50.7c-20.88-24.4-40.61-47.44-80.46-47.44s-59.58,23.04-80.46,47.44c-21.33,24.93-43.4,50.7-87.54,50.7s-66.21-25.77-87.54-50.7c-20.88-24.4-40.61-47.44-80.46-47.44s-59.58,23.04-80.46,47.44c-21.34,24.93-43.4,50.7-87.54,50.7s-66.21-25.77-87.54-50.7c-20.88-24.4-40.61-47.44-80.46-47.44s-59.58,23.04-80.46,47.44c-21.33,24.93-43.4,50.7-87.54,50.7s-66.21-25.77-87.54-50.7c-20.88-24.4-40.61-47.44-80.46-47.44v-9.32c44.15,0,66.21,25.77,87.54,50.7,20.88,24.4,40.61,47.44,80.46,47.44s59.58-23.04,80.46-47.44c21.33-24.93,43.4-50.7,87.54-50.7s66.21,25.77,87.54,50.7c20.88,24.4,40.61,47.44,80.46,47.44s59.58-23.04,80.46-47.44c21.34-24.93,43.4-50.7,87.54-50.7s66.21,25.77,87.54,50.7c20.88,24.4,40.61,47.44,80.46,47.44s59.58-23.04,80.46-47.44c21.33-24.93,43.4-50.7,87.54-50.7s66.21,25.77,87.54,50.7c20.88,24.4,40.61,47.44,80.46,47.44s59.58-23.04,80.46-47.44c21.33-24.93,43.4-50.7,87.54-50.7s66.21,25.77,87.54,50.7c20.88,24.4,40.61,47.44,80.46,47.44s59.58-23.04,80.46-47.44c21.34-24.93,43.4-50.7,87.54-50.7s66.21,25.77,87.55,50.7c20.88,24.4,40.61,47.44,80.46,47.44s59.58-23.04,80.46-47.44c21.34-24.93,43.4-50.7,87.55-50.7v9.32c-39.86,0-59.58,23.04-80.46,47.44-21.33,24.93-43.4,50.7-87.54,50.7Z"/><path d="M1848.05,1793.02c-44.15,0-66.21-25.77-87.54-50.7-20.88-24.4-40.61-47.44-80.46-47.44s-59.58,23.04-80.46,47.44c-21.33,24.93-43.4,50.7-87.54,50.7s-66.21-25.77-87.54-50.7c-20.88-24.4-40.61-47.44-80.46-47.44s-59.58,23.04-80.46,47.44c-21.34,24.93-43.4,50.7-87.54,50.7s-66.21-25.77-87.54-50.7c-20.88-24.4-40.61-47.44-80.46-47.44s-59.58,23.04-80.46,47.44c-21.33,24.93-43.4,50.7-87.54,50.7s-66.21-25.77-87.54-50.7c-20.88-24.4-40.61-47.44-80.46-47.44s-59.58,23.04-80.46,47.44c-21.34,24.93-43.4,50.7-87.54,50.7s-66.21-25.77-87.54-50.7c-20.88-24.4-40.61-47.44-80.46-47.44s-59.58,23.04-80.46,47.44c-21.33,24.93-43.4,50.7-87.54,50.7s-66.21-25.77-87.54-50.7c-20.88-24.4-40.61-47.44-80.46-47.44v-9.32c44.15,0,66.21,25.77,87.54,50.7,20.88,24.4,40.61,47.44,80.46,47.44s59.58-23.04,80.46-47.44c21.33-24.93,43.4-50.7,87.54-50.7s66.21,25.77,87.54,50.7c20.88,24.4,40.61,47.44,80.46,47.44s59.58-23.04,80.46-47.44c21.34-24.93,43.4-50.7,87.54-50.7s66.21,25.77,87.54,50.7c20.88,24.4,40.61,47.44,80.46,47.44s59.58-23.04,80.46-47.44c21.33-24.93,43.4-50.7,87.54-50.7s66.21,25.77,87.54,50.7c20.88,24.4,40.61,47.44,80.46,47.44s59.58-23.04,80.46-47.44c21.33-24.93,43.4-50.7,87.54-50.7s66.21,25.77,87.54,50.7c20.88,24.4,40.61,47.44,80.46,47.44s59.58-23.04,80.46-47.44c21.34-24.93,43.4-50.7,87.54-50.7s66.21,25.77,87.55,50.7c20.88,24.4,40.61,47.44,80.46,47.44s59.58-23.04,80.46-47.44c21.34-24.93,43.4-50.7,87.55-50.7v9.32c-39.86,0-59.58,23.04-80.46,47.44-21.33,24.93-43.4,50.7-87.54,50.7Z"/><path d="M3869.01,1793.02c-44.15,0-66.21-25.77-87.54-50.7-20.88-24.4-40.61-47.44-80.46-47.44s-59.58,23.04-80.46,47.44c-21.33,24.93-43.4,50.7-87.54,50.7s-66.21-25.77-87.54-50.7c-20.88-24.4-40.61-47.44-80.46-47.44s-59.58,23.04-80.46,47.44c-21.34,24.93-43.4,50.7-87.54,50.7s-66.21-25.77-87.54-50.7c-20.88-24.4-40.61-47.44-80.46-47.44s-59.58,23.04-80.46,47.44c-21.33,24.93-43.4,50.7-87.54,50.7s-66.21-25.77-87.54-50.7c-20.88-24.4-40.61-47.44-80.46-47.44s-59.58,23.04-80.46,47.44c-21.34,24.93-43.4,50.7-87.54,50.7s-66.21-25.77-87.54-50.7c-20.88-24.4-40.61-47.44-80.46-47.44s-59.58,23.04-80.46,47.44c-21.33,24.93-43.4,50.7-87.54,50.7s-66.21-25.77-87.54-50.7c-20.88-24.4-40.61-47.44-80.46-47.44v-9.32c44.15,0,66.21,25.77,87.54,50.7,20.88,24.4,40.61,47.44,80.46,47.44s59.58-23.04,80.46-47.44c21.33-24.93,43.4-50.7,87.54-50.7s66.21,25.77,87.54,50.7c20.88,24.4,40.61,47.44,80.46,47.44s59.58-23.04,80.46-47.44c21.34-24.93,43.4-50.7,87.54-50.7s66.21,25.77,87.54,50.7c20.88,24.4,40.61,47.44,80.46,47.44s59.58-23.04,80.46-47.44c21.33-24.93,43.4-50.7,87.54-50.7s66.21,25.77,87.54,50.7c20.88,24.4,40.61,47.44,80.46,47.44s59.58-23.04,80.46-47.44c21.33-24.93,43.4-50.7,87.54-50.7s66.21,25.77,87.54,50.7c20.88,24.4,40.61,47.44,80.46,47.44s59.58-23.04,80.46-47.44c21.34-24.93,43.4-50.7,87.54-50.7s66.21,25.77,87.55,50.7c20.88,24.4,40.61,47.44,80.46,47.44s59.58-23.04,80.46-47.44c21.34-24.93,43.4-50.7,87.55-50.7v9.32c-39.86,0-59.58,23.04-80.46,47.44-21.33,24.93-43.4,50.7-87.54,50.7Z"/><path d="M5889.97,1793.02c-44.15,0-66.21-25.77-87.54-50.7-20.88-24.4-40.61-47.44-80.46-47.44s-59.58,23.04-80.46,47.44c-21.33,24.93-43.4,50.7-87.54,50.7s-66.21-25.77-87.54-50.7c-20.88-24.4-40.61-47.44-80.46-47.44s-59.58,23.04-80.46,47.44c-21.34,24.93-43.4,50.7-87.54,50.7s-66.21-25.77-87.54-50.7c-20.88-24.4-40.61-47.44-80.46-47.44s-59.58,23.04-80.46,47.44c-21.33,24.93-43.4,50.7-87.54,50.7s-66.21-25.77-87.54-50.7c-20.88-24.4-40.61-47.44-80.46-47.44s-59.58,23.04-80.46,47.44c-21.34,24.93-43.4,50.7-87.54,50.7s-66.21-25.77-87.54-50.7c-20.88-24.4-40.61-47.44-80.46-47.44s-59.58,23.04-80.46,47.44c-21.33,24.93-43.4,50.7-87.54,50.7s-66.21-25.77-87.54-50.7c-20.88-24.4-40.61-47.44-80.46-47.44v-9.32c44.15,0,66.21,25.77,87.54,50.7,20.88,24.4,40.61,47.44,80.46,47.44s59.58-23.04,80.46-47.44c21.33-24.93,43.4-50.7,87.54-50.7s66.21,25.77,87.54,50.7c20.88,24.4,40.61,47.44,80.46,47.44s59.58-23.04,80.46-47.44c21.34-24.93,43.4-50.7,87.54-50.7s66.21,25.77,87.54,50.7c20.88,24.4,40.61,47.44,80.46,47.44s59.58-23.04,80.46-47.44c21.33-24.93,43.4-50.7,87.54-50.7s66.21,25.77,87.54,50.7c20.88,24.4,40.61,47.44,80.46,47.44s59.58-23.04,80.46-47.44c21.33-24.93,43.4-50.7,87.54-50.7s66.21,25.77,87.54,50.7c20.88,24.4,40.61,47.44,80.46,47.44s59.58-23.04,80.46-47.44c21.34-24.93,43.4-50.7,87.54-50.7s66.21,25.77,87.55,50.7c20.88,24.4,40.61,47.44,80.46,47.44s59.58-23.04,80.46-47.44c21.34-24.93,43.4-50.7,87.55-50.7v9.32c-39.86,0-59.58,23.04-80.46,47.44-21.33,24.93-43.4,50.7-87.54,50.7Z"/><path d="M1848.05,1905.39c-44.15,0-66.21-25.77-87.54-50.7-20.88-24.4-40.61-47.44-80.46-47.44s-59.58,23.04-80.46,47.44c-21.33,24.93-43.4,50.7-87.54,50.7s-66.21-25.77-87.54-50.7c-20.88-24.4-40.61-47.44-80.46-47.44s-59.58,23.04-80.46,47.44c-21.34,24.93-43.4,50.7-87.54,50.7s-66.21-25.77-87.54-50.7c-20.88-24.4-40.61-47.44-80.46-47.44s-59.58,23.04-80.46,47.44c-21.33,24.93-43.4,50.7-87.54,50.7s-66.21-25.77-87.54-50.7c-20.88-24.4-40.61-47.44-80.46-47.44s-59.58,23.04-80.46,47.44c-21.34,24.93-43.4,50.7-87.54,50.7s-66.21-25.77-87.54-50.7c-20.88-24.4-40.61-47.44-80.46-47.44s-59.58,23.04-80.46,47.44c-21.33,24.93-43.4,50.7-87.54,50.7s-66.21-25.77-87.54-50.7c-20.88-24.4-40.61-47.44-80.46-47.44v-9.32c44.15,0,66.21,25.77,87.54,50.7,20.88,24.4,40.61,47.44,80.46,47.44s59.58-23.04,80.46-47.44c21.33-24.93,43.4-50.7,87.54-50.7s66.21,25.77,87.54,50.7c20.88,24.4,40.61,47.44,80.46,47.44s59.58-23.04,80.46-47.44c21.34-24.93,43.4-50.7,87.54-50.7s66.21,25.77,87.54,50.7c20.88,24.4,40.61,47.44,80.46,47.44s59.58-23.04,80.46-47.44c21.33-24.93,43.4-50.7,87.54-50.7s66.21,25.77,87.54,50.7c20.88,24.4,40.61,47.44,80.46,47.44s59.58-23.04,80.46-47.44c21.33-24.93,43.4-50.7,87.54-50.7s66.21,25.77,87.54,50.7c20.88,24.4,40.61,47.44,80.46,47.44s59.58-23.04,80.46-47.44c21.34-24.93,43.4-50.7,87.54-50.7s66.21,25.77,87.55,50.7c20.88,24.4,40.61,47.44,80.46,47.44s59.58-23.04,80.46-47.44c21.34-24.93,43.4-50.7,87.55-50.7v9.32c-39.86,0-59.58,23.04-80.46,47.44-21.33,24.93-43.4,50.7-87.54,50.7Z"/><path d="M3869.01,1905.39c-44.15,0-66.21-25.77-87.54-50.7-20.88-24.4-40.61-47.44-80.46-47.44s-59.58,23.04-80.46,47.44c-21.33,24.93-43.4,50.7-87.54,50.7s-66.21-25.77-87.54-50.7c-20.88-24.4-40.61-47.44-80.46-47.44s-59.58,23.04-80.46,47.44c-21.34,24.93-43.4,50.7-87.54,50.7s-66.21-25.77-87.54-50.7c-20.88-24.4-40.61-47.44-80.46-47.44s-59.58,23.04-80.46,47.44c-21.33,24.93-43.4,50.7-87.54,50.7s-66.21-25.77-87.54-50.7c-20.88-24.4-40.61-47.44-80.46-47.44s-59.58,23.04-80.46,47.44c-21.34,24.93-43.4,50.7-87.54,50.7s-66.21-25.77-87.54-50.7c-20.88-24.4-40.61-47.44-80.46-47.44s-59.58,23.04-80.46,47.44c-21.33,24.93-43.4,50.7-87.54,50.7s-66.21-25.77-87.54-50.7c-20.88-24.4-40.61-47.44-80.46-47.44v-9.32c44.15,0,66.21,25.77,87.54,50.7,20.88,24.4,40.61,47.44,80.46,47.44s59.58-23.04,80.46-47.44c21.33-24.93,43.4-50.7,87.54-50.7s66.21,25.77,87.54,50.7c20.88,24.4,40.61,47.44,80.46,47.44s59.58-23.04,80.46-47.44c21.34-24.93,43.4-50.7,87.54-50.7s66.21,25.77,87.54,50.7c20.88,24.4,40.61,47.44,80.46,47.44s59.58-23.04,80.46-47.44c21.33-24.93,43.4-50.7,87.54-50.7s66.21,25.77,87.54,50.7c20.88,24.4,40.61,47.44,80.46,47.44s59.58-23.04,80.46-47.44c21.33-24.93,43.4-50.7,87.54-50.7s66.21,25.77,87.54,50.7c20.88,24.4,40.61,47.44,80.46,47.44s59.58-23.04,80.46-47.44c21.34-24.93,43.4-50.7,87.54-50.7s66.21,25.77,87.55,50.7c20.88,24.4,40.61,47.44,80.46,47.44s59.58-23.04,80.46-47.44c21.34-24.93,43.4-50.7,87.55-50.7v9.32c-39.86,0-59.58,23.04-80.46,47.44-21.33,24.93-43.4,50.7-87.54,50.7Z"/><path d="M5889.97,1905.39c-44.15,0-66.21-25.77-87.54-50.7-20.88-24.4-40.61-47.44-80.46-47.44s-59.58,23.04-80.46,47.44c-21.33,24.93-43.4,50.7-87.54,50.7s-66.21-25.77-87.54-50.7c-20.88-24.4-40.61-47.44-80.46-47.44s-59.58,23.04-80.46,47.44c-21.34,24.93-43.4,50.7-87.54,50.7s-66.21-25.77-87.54-50.7c-20.88-24.4-40.61-47.44-80.46-47.44s-59.58,23.04-80.46,47.44c-21.33,24.93-43.4,50.7-87.54,50.7s-66.21-25.77-87.54-50.7c-20.88-24.4-40.61-47.44-80.46-47.44s-59.58,23.04-80.46,47.44c-21.34,24.93-43.4,50.7-87.54,50.7s-66.21-25.77-87.54-50.7c-20.88-24.4-40.61-47.44-80.46-47.44s-59.58,23.04-80.46,47.44c-21.33,24.93-43.4,50.7-87.54,50.7s-66.21-25.77-87.54-50.7c-20.88-24.4-40.61-47.44-80.46-47.44v-9.32c44.15,0,66.21,25.77,87.54,50.7,20.88,24.4,40.61,47.44,80.46,47.44s59.58-23.04,80.46-47.44c21.33-24.93,43.4-50.7,87.54-50.7s66.21,25.77,87.54,50.7c20.88,24.4,40.61,47.44,80.46,47.44s59.58-23.04,80.46-47.44c21.34-24.93,43.4-50.7,87.54-50.7s66.21,25.77,87.54,50.7c20.88,24.4,40.61,47.44,80.46,47.44s59.58-23.04,80.46-47.44c21.33-24.93,43.4-50.7,87.54-50.7s66.21,25.77,87.54,50.7c20.88,24.4,40.61,47.44,80.46,47.44s59.58-23.04,80.46-47.44c21.33-24.93,43.4-50.7,87.54-50.7s66.21,25.77,87.54,50.7c20.88,24.4,40.61,47.44,80.46,47.44s59.58-23.04,80.46-47.44c21.34-24.93,43.4-50.7,87.54-50.7s66.21,25.77,87.55,50.7c20.88,24.4,40.61,47.44,80.46,47.44s59.58-23.04,80.46-47.44c21.34-24.93,43.4-50.7,87.55-50.7v9.32c-39.86,0-59.58,23.04-80.46,47.44-21.33,24.93-43.4,50.7-87.54,50.7Z"/><path d="M1848.05,2017.76c-44.15,0-66.21-25.77-87.54-50.7-20.88-24.4-40.61-47.44-80.46-47.44s-59.58,23.04-80.46,47.44c-21.33,24.93-43.4,50.7-87.54,50.7s-66.21-25.77-87.54-50.7c-20.88-24.4-40.61-47.44-80.46-47.44s-59.58,23.04-80.46,47.44c-21.34,24.93-43.4,50.7-87.54,50.7s-66.21-25.77-87.54-50.7c-20.88-24.4-40.61-47.44-80.46-47.44s-59.58,23.04-80.46,47.44c-21.33,24.93-43.4,50.7-87.54,50.7s-66.21-25.77-87.54-50.7c-20.88-24.4-40.61-47.44-80.46-47.44s-59.58,23.04-80.46,47.44c-21.34,24.93-43.4,50.7-87.54,50.7s-66.21-25.77-87.54-50.7c-20.88-24.4-40.61-47.44-80.46-47.44s-59.58,23.04-80.46,47.44c-21.33,24.93-43.4,50.7-87.54,50.7s-66.21-25.77-87.54-50.7c-20.88-24.4-40.61-47.44-80.46-47.44v-9.32c44.15,0,66.21,25.77,87.54,50.7,20.88,24.4,40.61,47.44,80.46,47.44s59.58-23.04,80.46-47.44c21.33-24.93,43.4-50.7,87.54-50.7s66.21,25.77,87.54,50.7c20.88,24.4,40.61,47.44,80.46,47.44s59.58-23.04,80.46-47.44c21.34-24.93,43.4-50.7,87.54-50.7s66.21,25.77,87.54,50.7c20.88,24.4,40.61,47.44,80.46,47.44s59.58-23.04,80.46-47.44c21.33-24.93,43.4-50.7,87.54-50.7s66.21,25.77,87.54,50.7c20.88,24.4,40.61,47.44,80.46,47.44s59.58-23.04,80.46-47.44c21.33-24.93,43.4-50.7,87.54-50.7s66.21,25.77,87.54,50.7c20.88,24.4,40.61,47.44,80.46,47.44s59.58-23.04,80.46-47.44c21.34-24.93,43.4-50.7,87.54-50.7s66.21,25.77,87.55,50.7c20.88,24.4,40.61,47.44,80.46,47.44s59.58-23.04,80.46-47.44c21.34-24.93,43.4-50.7,87.55-50.7v9.32c-39.86,0-59.58,23.04-80.46,47.44-21.33,24.93-43.4,50.7-87.54,50.7Z"/><path d="M3869.01,2017.76c-44.15,0-66.21-25.77-87.54-50.7-20.88-24.4-40.61-47.44-80.46-47.44s-59.58,23.04-80.46,47.44c-21.33,24.93-43.4,50.7-87.54,50.7s-66.21-25.77-87.54-50.7c-20.88-24.4-40.61-47.44-80.46-47.44s-59.58,23.04-80.46,47.44c-21.34,24.93-43.4,50.7-87.54,50.7s-66.21-25.77-87.54-50.7c-20.88-24.4-40.61-47.44-80.46-47.44s-59.58,23.04-80.46,47.44c-21.33,24.93-43.4,50.7-87.54,50.7s-66.21-25.77-87.54-50.7c-20.88-24.4-40.61-47.44-80.46-47.44s-59.58,23.04-80.46,47.44c-21.34,24.93-43.4,50.7-87.54,50.7s-66.21-25.77-87.54-50.7c-20.88-24.4-40.61-47.44-80.46-47.44s-59.58,23.04-80.46,47.44c-21.33,24.93-43.4,50.7-87.54,50.7s-66.21-25.77-87.54-50.7c-20.88-24.4-40.61-47.44-80.46-47.44v-9.32c44.15,0,66.21,25.77,87.54,50.7,20.88,24.4,40.61,47.44,80.46,47.44s59.58-23.04,80.46-47.44c21.33-24.93,43.4-50.7,87.54-50.7s66.21,25.77,87.54,50.7c20.88,24.4,40.61,47.44,80.46,47.44s59.58-23.04,80.46-47.44c21.34-24.93,43.4-50.7,87.54-50.7s66.21,25.77,87.54,50.7c20.88,24.4,40.61,47.44,80.46,47.44s59.58-23.04,80.46-47.44c21.33-24.93,43.4-50.7,87.54-50.7s66.21,25.77,87.54,50.7c20.88,24.4,40.61,47.44,80.46,47.44s59.58-23.04,80.46-47.44c21.33-24.93,43.4-50.7,87.54-50.7s66.21,25.77,87.54,50.7c20.88,24.4,40.61,47.44,80.46,47.44s59.58-23.04,80.46-47.44c21.34-24.93,43.4-50.7,87.54-50.7s66.21,25.77,87.55,50.7c20.88,24.4,40.61,47.44,80.46,47.44s59.58-23.04,80.46-47.44c21.34-24.93,43.4-50.7,87.55-50.7v9.32c-39.86,0-59.58,23.04-80.46,47.44-21.33,24.93-43.4,50.7-87.54,50.7Z"/><path d="M5889.97,2017.76c-44.15,0-66.21-25.77-87.54-50.7-20.88-24.4-40.61-47.44-80.46-47.44s-59.58,23.04-80.46,47.44c-21.33,24.93-43.4,50.7-87.54,50.7s-66.21-25.77-87.54-50.7c-20.88-24.4-40.61-47.44-80.46-47.44s-59.58,23.04-80.46,47.44c-21.34,24.93-43.4,50.7-87.54,50.7s-66.21-25.77-87.54-50.7c-20.88-24.4-40.61-47.44-80.46-47.44s-59.58,23.04-80.46,47.44c-21.33,24.93-43.4,50.7-87.54,50.7s-66.21-25.77-87.54-50.7c-20.88-24.4-40.61-47.44-80.46-47.44s-59.58,23.04-80.46,47.44c-21.34,24.93-43.4,50.7-87.54,50.7s-66.21-25.77-87.54-50.7c-20.88-24.4-40.61-47.44-80.46-47.44s-59.58,23.04-80.46,47.44c-21.33,24.93-43.4,50.7-87.54,50.7s-66.21-25.77-87.54-50.7c-20.88-24.4-40.61-47.44-80.46-47.44v-9.32c44.15,0,66.21,25.77,87.54,50.7,20.88,24.4,40.61,47.44,80.46,47.44s59.58-23.04,80.46-47.44c21.33-24.93,43.4-50.7,87.54-50.7s66.21,25.77,87.54,50.7c20.88,24.4,40.61,47.44,80.46,47.44s59.58-23.04,80.46-47.44c21.34-24.93,43.4-50.7,87.54-50.7s66.21,25.77,87.54,50.7c20.88,24.4,40.61,47.44,80.46,47.44s59.58-23.04,80.46-47.44c21.33-24.93,43.4-50.7,87.54-50.7s66.21,25.77,87.54,50.7c20.88,24.4,40.61,47.44,80.46,47.44s59.58-23.04,80.46-47.44c21.33-24.93,43.4-50.7,87.54-50.7s66.21,25.77,87.54,50.7c20.88,24.4,40.61,47.44,80.46,47.44s59.58-23.04,80.46-47.44c21.34-24.93,43.4-50.7,87.54-50.7s66.21,25.77,87.55,50.7c20.88,24.4,40.61,47.44,80.46,47.44s59.58-23.04,80.46-47.44c21.34-24.93,43.4-50.7,87.55-50.7v9.32c-39.86,0-59.58,23.04-80.46,47.44-21.33,24.93-43.4,50.7-87.54,50.7Z"/><path d="M1848.05,2130.14c-44.15,0-66.21-25.77-87.54-50.7-20.88-24.4-40.61-47.44-80.46-47.44s-59.58,23.04-80.46,47.44c-21.33,24.93-43.4,50.7-87.54,50.7s-66.21-25.77-87.54-50.7c-20.88-24.4-40.61-47.44-80.46-47.44s-59.58,23.04-80.46,47.44c-21.34,24.93-43.4,50.7-87.54,50.7s-66.21-25.77-87.54-50.7c-20.88-24.4-40.61-47.44-80.46-47.44s-59.58,23.04-80.46,47.44c-21.33,24.93-43.4,50.7-87.54,50.7s-66.21-25.77-87.54-50.7c-20.88-24.4-40.61-47.44-80.46-47.44s-59.58,23.04-80.46,47.44c-21.34,24.93-43.4,50.7-87.54,50.7s-66.21-25.77-87.54-50.7c-20.88-24.4-40.61-47.44-80.46-47.44s-59.58,23.04-80.46,47.44c-21.33,24.93-43.4,50.7-87.54,50.7s-66.21-25.77-87.54-50.7c-20.88-24.4-40.61-47.44-80.46-47.44v-9.32c44.15,0,66.21,25.77,87.54,50.7,20.88,24.4,40.61,47.44,80.46,47.44s59.58-23.04,80.46-47.44c21.33-24.93,43.4-50.7,87.54-50.7s66.21,25.77,87.54,50.7c20.88,24.4,40.61,47.44,80.46,47.44s59.58-23.04,80.46-47.44c21.34-24.93,43.4-50.7,87.54-50.7s66.21,25.77,87.54,50.7c20.88,24.4,40.61,47.44,80.46,47.44s59.58-23.04,80.46-47.44c21.33-24.93,43.4-50.7,87.54-50.7s66.21,25.77,87.54,50.7c20.88,24.4,40.61,47.44,80.46,47.44s59.58-23.04,80.46-47.44c21.33-24.93,43.4-50.7,87.54-50.7s66.21,25.77,87.54,50.7c20.88,24.4,40.61,47.44,80.46,47.44s59.58-23.04,80.46-47.44c21.34-24.93,43.4-50.7,87.54-50.7s66.21,25.77,87.55,50.7c20.88,24.4,40.61,47.44,80.46,47.44s59.58-23.04,80.46-47.44c21.34-24.93,43.4-50.7,87.55-50.7v9.32c-39.86,0-59.58,23.04-80.46,47.44-21.33,24.93-43.4,50.7-87.54,50.7Z"/><path d="M3869.01,2130.14c-44.15,0-66.21-25.77-87.54-50.7-20.88-24.4-40.61-47.44-80.46-47.44s-59.58,23.04-80.46,47.44c-21.33,24.93-43.4,50.7-87.54,50.7s-66.21-25.77-87.54-50.7c-20.88-24.4-40.61-47.44-80.46-47.44s-59.58,23.04-80.46,47.44c-21.34,24.93-43.4,50.7-87.54,50.7s-66.21-25.77-87.54-50.7c-20.88-24.4-40.61-47.44-80.46-47.44s-59.58,23.04-80.46,47.44c-21.33,24.93-43.4,50.7-87.54,50.7s-66.21-25.77-87.54-50.7c-20.88-24.4-40.61-47.44-80.46-47.44s-59.58,23.04-80.46,47.44c-21.34,24.93-43.4,50.7-87.54,50.7s-66.21-25.77-87.54-50.7c-20.88-24.4-40.61-47.44-80.46-47.44s-59.58,23.04-80.46,47.44c-21.33,24.93-43.4,50.7-87.54,50.7s-66.21-25.77-87.54-50.7c-20.88-24.4-40.61-47.44-80.46-47.44v-9.32c44.15,0,66.21,25.77,87.54,50.7,20.88,24.4,40.61,47.44,80.46,47.44s59.58-23.04,80.46-47.44c21.33-24.93,43.4-50.7,87.54-50.7s66.21,25.77,87.54,50.7c20.88,24.4,40.61,47.44,80.46,47.44s59.58-23.04,80.46-47.44c21.34-24.93,43.4-50.7,87.54-50.7s66.21,25.77,87.54,50.7c20.88,24.4,40.61,47.44,80.46,47.44s59.58-23.04,80.46-47.44c21.33-24.93,43.4-50.7,87.54-50.7s66.21,25.77,87.54,50.7c20.88,24.4,40.61,47.44,80.46,47.44s59.58-23.04,80.46-47.44c21.33-24.93,43.4-50.7,87.54-50.7s66.21,25.77,87.54,50.7c20.88,24.4,40.61,47.44,80.46,47.44s59.58-23.04,80.46-47.44c21.34-24.93,43.4-50.7,87.54-50.7s66.21,25.77,87.55,50.7c20.88,24.4,40.61,47.44,80.46,47.44s59.58-23.04,80.46-47.44c21.34-24.93,43.4-50.7,87.55-50.7v9.32c-39.86,0-59.58,23.04-80.46,47.44-21.33,24.93-43.4,50.7-87.54,50.7Z"/><path d="M5889.97,2130.14c-44.15,0-66.21-25.77-87.54-50.7-20.88-24.4-40.61-47.44-80.46-47.44s-59.58,23.04-80.46,47.44c-21.33,24.93-43.4,50.7-87.54,50.7s-66.21-25.77-87.54-50.7c-20.88-24.4-40.61-47.44-80.46-47.44s-59.58,23.04-80.46,47.44c-21.34,24.93-43.4,50.7-87.54,50.7s-66.21-25.77-87.54-50.7c-20.88-24.4-40.61-47.44-80.46-47.44s-59.58,23.04-80.46,47.44c-21.33,24.93-43.4,50.7-87.54,50.7s-66.21-25.77-87.54-50.7c-20.88-24.4-40.61-47.44-80.46-47.44s-59.58,23.04-80.46,47.44c-21.34,24.93-43.4,50.7-87.54,50.7s-66.21-25.77-87.54-50.7c-20.88-24.4-40.61-47.44-80.46-47.44s-59.58,23.04-80.46,47.44c-21.33,24.93-43.4,50.7-87.54,50.7s-66.21-25.77-87.54-50.7c-20.88-24.4-40.61-47.44-80.46-47.44v-9.32c44.15,0,66.21,25.77,87.54,50.7,20.88,24.4,40.61,47.44,80.46,47.44s59.58-23.04,80.46-47.44c21.33-24.93,43.4-50.7,87.54-50.7s66.21,25.77,87.54,50.7c20.88,24.4,40.61,47.44,80.46,47.44s59.58-23.04,80.46-47.44c21.34-24.93,43.4-50.7,87.54-50.7s66.21,25.77,87.54,50.7c20.88,24.4,40.61,47.44,80.46,47.44s59.58-23.04,80.46-47.44c21.33-24.93,43.4-50.7,87.54-50.7s66.21,25.77,87.54,50.7c20.88,24.4,40.61,47.44,80.46,47.44s59.58-23.04,80.46-47.44c21.33-24.93,43.4-50.7,87.54-50.7s66.21,25.77,87.54,50.7c20.88,24.4,40.61,47.44,80.46,47.44s59.58-23.04,80.46-47.44c21.34-24.93,43.4-50.7,87.54-50.7s66.21,25.77,87.55,50.7c20.88,24.4,40.61,47.44,80.46,47.44s59.58-23.04,80.46-47.44c21.34-24.93,43.4-50.7,87.55-50.7v9.32c-39.86,0-59.58,23.04-80.46,47.44-21.33,24.93-43.4,50.7-87.54,50.7Z"/><path d="M1848.05,2242.51c-44.15,0-66.21-25.77-87.54-50.7-20.88-24.4-40.61-47.44-80.46-47.44s-59.58,23.04-80.46,47.44c-21.33,24.93-43.4,50.7-87.54,50.7s-66.21-25.77-87.54-50.7c-20.88-24.4-40.61-47.44-80.46-47.44s-59.58,23.04-80.46,47.44c-21.34,24.93-43.4,50.7-87.54,50.7s-66.21-25.77-87.54-50.7c-20.88-24.4-40.61-47.44-80.46-47.44s-59.58,23.04-80.46,47.44c-21.33,24.93-43.4,50.7-87.54,50.7s-66.21-25.77-87.54-50.7c-20.88-24.4-40.61-47.44-80.46-47.44s-59.58,23.04-80.46,47.44c-21.34,24.93-43.4,50.7-87.54,50.7s-66.21-25.77-87.54-50.7c-20.88-24.4-40.61-47.44-80.46-47.44s-59.58,23.04-80.46,47.44c-21.33,24.93-43.4,50.7-87.54,50.7s-66.21-25.77-87.54-50.7c-20.88-24.4-40.61-47.44-80.46-47.44v-9.32c44.15,0,66.21,25.77,87.54,50.7,20.88,24.4,40.61,47.44,80.46,47.44s59.58-23.04,80.46-47.44c21.33-24.93,43.4-50.7,87.54-50.7s66.21,25.77,87.54,50.7c20.88,24.4,40.61,47.44,80.46,47.44s59.58-23.04,80.46-47.44c21.34-24.93,43.4-50.7,87.54-50.7s66.21,25.77,87.54,50.7c20.88,24.4,40.61,47.44,80.46,47.44s59.58-23.04,80.46-47.44c21.33-24.93,43.4-50.7,87.54-50.7s66.21,25.77,87.54,50.7c20.88,24.4,40.61,47.44,80.46,47.44s59.58-23.04,80.46-47.44c21.33-24.93,43.4-50.7,87.54-50.7s66.21,25.77,87.54,50.7c20.88,24.4,40.61,47.44,80.46,47.44s59.58-23.04,80.46-47.44c21.34-24.93,43.4-50.7,87.54-50.7s66.21,25.77,87.55,50.7c20.88,24.4,40.61,47.44,80.46,47.44s59.58-23.04,80.46-47.44c21.34-24.93,43.4-50.7,87.55-50.7v9.32c-39.86,0-59.58,23.04-80.46,47.44-21.33,24.93-43.4,50.7-87.54,50.7Z"/><path d="M3869.01,2242.51c-44.15,0-66.21-25.77-87.54-50.7-20.88-24.4-40.61-47.44-80.46-47.44s-59.58,23.04-80.46,47.44c-21.33,24.93-43.4,50.7-87.54,50.7s-66.21-25.77-87.54-50.7c-20.88-24.4-40.61-47.44-80.46-47.44s-59.58,23.04-80.46,47.44c-21.34,24.93-43.4,50.7-87.54,50.7s-66.21-25.77-87.54-50.7c-20.88-24.4-40.61-47.44-80.46-47.44s-59.58,23.04-80.46,47.44c-21.33,24.93-43.4,50.7-87.54,50.7s-66.21-25.77-87.54-50.7c-20.88-24.4-40.61-47.44-80.46-47.44s-59.58,23.04-80.46,47.44c-21.34,24.93-43.4,50.7-87.54,50.7s-66.21-25.77-87.54-50.7c-20.88-24.4-40.61-47.44-80.46-47.44s-59.58,23.04-80.46,47.44c-21.33,24.93-43.4,50.7-87.54,50.7s-66.21-25.77-87.54-50.7c-20.88-24.4-40.61-47.44-80.46-47.44v-9.32c44.15,0,66.21,25.77,87.54,50.7,20.88,24.4,40.61,47.44,80.46,47.44s59.58-23.04,80.46-47.44c21.33-24.93,43.4-50.7,87.54-50.7s66.21,25.77,87.54,50.7c20.88,24.4,40.61,47.44,80.46,47.44s59.58-23.04,80.46-47.44c21.34-24.93,43.4-50.7,87.54-50.7s66.21,25.77,87.54,50.7c20.88,24.4,40.61,47.44,80.46,47.44s59.58-23.04,80.46-47.44c21.33-24.93,43.4-50.7,87.54-50.7s66.21,25.77,87.54,50.7c20.88,24.4,40.61,47.44,80.46,47.44s59.58-23.04,80.46-47.44c21.33-24.93,43.4-50.7,87.54-50.7s66.21,25.77,87.54,50.7c20.88,24.4,40.61,47.44,80.46,47.44s59.58-23.04,80.46-47.44c21.34-24.93,43.4-50.7,87.54-50.7s66.21,25.77,87.55,50.7c20.88,24.4,40.61,47.44,80.46,47.44s59.58-23.04,80.46-47.44c21.34-24.93,43.4-50.7,87.55-50.7v9.32c-39.86,0-59.58,23.04-80.46,47.44-21.33,24.93-43.4,50.7-87.54,50.7Z"/><path d="M5889.97,2242.51c-44.15,0-66.21-25.77-87.54-50.7-20.88-24.4-40.61-47.44-80.46-47.44s-59.58,23.04-80.46,47.44c-21.33,24.93-43.4,50.7-87.54,50.7s-66.21-25.77-87.54-50.7c-20.88-24.4-40.61-47.44-80.46-47.44s-59.58,23.04-80.46,47.44c-21.34,24.93-43.4,50.7-87.54,50.7s-66.21-25.77-87.54-50.7c-20.88-24.4-40.61-47.44-80.46-47.44s-59.58,23.04-80.46,47.44c-21.33,24.93-43.4,50.7-87.54,50.7s-66.21-25.77-87.54-50.7c-20.88-24.4-40.61-47.44-80.46-47.44s-59.58,23.04-80.46,47.44c-21.34,24.93-43.4,50.7-87.54,50.7s-66.21-25.77-87.54-50.7c-20.88-24.4-40.61-47.44-80.46-47.44s-59.58,23.04-80.46,47.44c-21.33,24.93-43.4,50.7-87.54,50.7s-66.21-25.77-87.54-50.7c-20.88-24.4-40.61-47.44-80.46-47.44v-9.32c44.15,0,66.21,25.77,87.54,50.7,20.88,24.4,40.61,47.44,80.46,47.44s59.58-23.04,80.46-47.44c21.33-24.93,43.4-50.7,87.54-50.7s66.21,25.77,87.54,50.7c20.88,24.4,40.61,47.44,80.46,47.44s59.58-23.04,80.46-47.44c21.34-24.93,43.4-50.7,87.54-50.7s66.21,25.77,87.54,50.7c20.88,24.4,40.61,47.44,80.46,47.44s59.58-23.04,80.46-47.44c21.33-24.93,43.4-50.7,87.54-50.7s66.21,25.77,87.54,50.7c20.88,24.4,40.61,47.44,80.46,47.44s59.58-23.04,80.46-47.44c21.33-24.93,43.4-50.7,87.54-50.7s66.21,25.77,87.54,50.7c20.88,24.4,40.61,47.44,80.46,47.44s59.58-23.04,80.46-47.44c21.34-24.93,43.4-50.7,87.54-50.7s66.21,25.77,87.55,50.7c20.88,24.4,40.61,47.44,80.46,47.44s59.58-23.04,80.46-47.44c21.34-24.93,43.4-50.7,87.55-50.7v9.32c-39.86,0-59.58,23.04-80.46,47.44-21.33,24.93-43.4,50.7-87.54,50.7Z"/></g></g></g></svg>