<svg xmlns="http://www.w3.org/2000/svg" viewBox="0 0 1510.527 324.826">
    <g>
        <g style="isolation:isolate">
        </g>
        <g style="isolation:isolate">
            <path d="M197.834,341.576a59.586,59.586,0,0,1-5.453,25.562,64.387,64.387,0,0,1-14.656,20.171,65.842,65.842,0,0,1-21.472,13.215,72.814,72.814,0,0,1-26.243,4.7H16.174V158.3H132.4a47.028,47.028,0,0,1,22.834,5.564,57.284,57.284,0,0,1,17.382,14.433,66.6,66.6,0,0,1,11.077,20.172,69.194,69.194,0,0,1,3.919,22.779,65.753,65.753,0,0,1-9.2,34.256,57.33,57.33,0,0,1-25.561,23.128,60.533,60.533,0,0,1,32.889,23.3Q197.829,318.973,197.834,341.576ZM39.691,179.511v91.118h83.161a36.486,36.486,0,0,0,16.53-3.825,44.224,44.224,0,0,0,13.293-10.086,45.062,45.062,0,0,0,8.69-14.433,48.556,48.556,0,0,0,3.068-17.216,53.8,53.8,0,0,0-2.9-17.736,43.592,43.592,0,0,0-8.18-14.433,40.477,40.477,0,0,0-12.611-9.738,35.065,35.065,0,0,0-15.848-3.651ZM173.976,337.4a51.483,51.483,0,0,0-3.068-17.562,46.359,46.359,0,0,0-8.69-14.955,45.394,45.394,0,0,0-13.292-10.433,35.271,35.271,0,0,0-16.53-4h-92.7v93.553H130.01a40.494,40.494,0,0,0,17.382-3.825,43.151,43.151,0,0,0,13.973-10.26,49.67,49.67,0,0,0,9.2-14.954A46.927,46.927,0,0,0,173.976,337.4Z" transform="translate(-16.174 -158.296)" style="fill:#368ca3"/>
            <path d="M244.868,461.212q1.7.342,3.408.522a34.078,34.078,0,0,0,3.41.174,42.289,42.289,0,0,0,7.327-.7,31.135,31.135,0,0,0,5.624-1.391,9.888,9.888,0,0,0,3.578-2.956,46.9,46.9,0,0,0,4.771-8q2.892-5.737,7.328-16t11.248-27.648L214.194,224.026h24.2L304.172,383.31l60.667-159.284h22.153L294.629,457.734q-5.112,12.864-13.8,19.128t-24.368,6.26a58.292,58.292,0,0,1-11.589-1.043Z" transform="translate(-16.174 -158.296)" style="fill:#368ca3"/>
            <path d="M505.256,396.525q-2.044,1.044-5.964,2.783t-9.032,3.477a102.725,102.725,0,0,1-11.588,3.13,65.01,65.01,0,0,1-13.633,1.392,48.609,48.609,0,0,1-14.314-2.087,33.084,33.084,0,0,1-11.929-6.434,31.573,31.573,0,0,1-8.181-10.955,35.973,35.973,0,0,1-3.067-15.3V242.807H403.009V224.026h24.539V162.817h23.177v61.209h40.9v18.781h-40.9V365.921q.678,10.091,6.816,14.78A23.406,23.406,0,0,0,472.2,385.4a42.718,42.718,0,0,0,17.382-3.3,75.741,75.741,0,0,0,9.543-4.7Z" transform="translate(-16.174 -158.296)" style="fill:#368ca3"/>
            <path d="M610.223,408.7a85.1,85.1,0,0,1-35.786-7.476,86.8,86.8,0,0,1-28.29-20.52,95.492,95.492,0,0,1-18.574-30.083,99.592,99.592,0,0,1-6.646-36.516,97.341,97.341,0,0,1,6.646-36,91.878,91.878,0,0,1,18.574-29.561,89.968,89.968,0,0,1,28.119-20.171,88.554,88.554,0,0,1,71.232,0,84.9,84.9,0,0,1,27.777,20.345,95.279,95.279,0,0,1,18.064,29.561,97.3,97.3,0,0,1,6.475,35.474q0,2.787-.169,5.564a18.339,18.339,0,0,1-.512,3.826H545.466a77.5,77.5,0,0,0,6.646,26.953,75.963,75.963,0,0,0,14.315,21.388,62.713,62.713,0,0,0,20.108,14.085,59.6,59.6,0,0,0,24.369,5.043,62.9,62.9,0,0,0,17.382-2.434,67.993,67.993,0,0,0,15.679-6.609,55.064,55.064,0,0,0,12.78-10.258,45.7,45.7,0,0,0,8.692-13.39l20.108,5.564a60.373,60.373,0,0,1-11.588,18.258A81.131,81.131,0,0,1,656.575,396a84.268,84.268,0,0,1-21.812,9.39A91.623,91.623,0,0,1,610.223,408.7ZM675.661,305.06a74.358,74.358,0,0,0-6.646-26.606A72.467,72.467,0,0,0,654.7,257.761a63.559,63.559,0,0,0-89.637,0,66.759,66.759,0,0,0-13.973,20.867,80.253,80.253,0,0,0-6.306,26.432Z" transform="translate(-16.174 -158.296)" style="fill:#368ca3"/>
            <path d="M952.066,224.026h22.5l-76,181.194H879.13L841.3,312.71l-37.832,92.51H784.04l-76-181.194h22.153l64.757,156.849L828.688,298.1l-30.334-73.73h19.768L841.3,283.5l22.835-59.123H883.9L853.909,298.1l33.741,82.771Z" transform="translate(-16.174 -158.296)" style="fill:#f4f4f4"/>
            <path d="M1047.155,408.7a68.52,68.52,0,0,1-24.88-4.346,57.434,57.434,0,0,1-19.256-12,54.59,54.59,0,0,1-12.441-17.737,52.138,52.138,0,0,1-4.431-21.215,47.754,47.754,0,0,1,5.454-22.779,52.064,52.064,0,0,1,15.337-17.563,74.233,74.233,0,0,1,23.687-11.3,109.521,109.521,0,0,1,30.5-4,159.172,159.172,0,0,1,27.266,2.434,118.239,118.239,0,0,1,24.88,6.956V290.8q0-24-13.463-38.082t-36.3-14.085a77.255,77.255,0,0,0-28.459,5.564,135.668,135.668,0,0,0-28.8,16l-8.18-15.65a153.286,153.286,0,0,1,33.742-17.736A99.539,99.539,0,0,1,1065.9,220.9q32.376,0,51.465,19.128t19.086,52.863v81.728q0,9.74,8.18,9.738V405.22q-2.732.342-5.112.521t-4.09.174a20.39,20.39,0,0,1-12.441-4.173q-5.623-4.173-6.3-12.52L1116,374.963a77.509,77.509,0,0,1-30.5,24.866A89.515,89.515,0,0,1,1047.155,408.7Zm5.794-18.084a74.135,74.135,0,0,0,30.5-6.782q15.162-6.78,24.028-18.606a37.184,37.184,0,0,0,4.09-6.782,16.177,16.177,0,0,0,1.7-6.782V322.1a139.389,139.389,0,0,0-24.2-6.956,129.606,129.606,0,0,0-24.539-2.435q-24.883,0-40.388,10.26t-15.507,28.343a38.678,38.678,0,0,0,2.726,14.26,35.9,35.9,0,0,0,8.351,12.52,43.527,43.527,0,0,0,13.8,9.042A49.424,49.424,0,0,0,1052.949,390.613Z" transform="translate(-16.174 -158.296)" style="fill:#f4f4f4"/>
            <path d="M1233.934,405.22l-72.255-181.194h24.2l61.008,159.284,61.348-159.284h22.5L1258.473,405.22Z" transform="translate(-16.174 -158.296)" style="fill:#f4f4f4"/>
            <path d="M1439.109,408.7a85.1,85.1,0,0,1-35.786-7.476,86.794,86.794,0,0,1-28.289-20.52,95.492,95.492,0,0,1-18.574-30.083,99.572,99.572,0,0,1-6.647-36.516,97.321,97.321,0,0,1,6.647-36,91.878,91.878,0,0,1,18.574-29.561,89.952,89.952,0,0,1,28.118-20.171,88.557,88.557,0,0,1,71.233,0,84.9,84.9,0,0,1,27.777,20.345,95.3,95.3,0,0,1,18.064,29.561,97.3,97.3,0,0,1,6.475,35.474q0,2.787-.17,5.564a18.288,18.288,0,0,1-.511,3.826H1374.353A77.5,77.5,0,0,0,1381,350.1a75.982,75.982,0,0,0,14.314,21.388,62.717,62.717,0,0,0,20.109,14.085,59.588,59.588,0,0,0,24.369,5.043,62.907,62.907,0,0,0,17.382-2.434,67.993,67.993,0,0,0,15.679-6.609,55.064,55.064,0,0,0,12.78-10.258,45.7,45.7,0,0,0,8.691-13.39l20.109,5.564a60.373,60.373,0,0,1-11.588,18.258A81.131,81.131,0,0,1,1485.462,396a84.26,84.26,0,0,1-21.813,9.39A91.618,91.618,0,0,1,1439.109,408.7Zm65.439-103.637a74.358,74.358,0,0,0-6.647-26.606,72.464,72.464,0,0,0-14.314-20.693,63.558,63.558,0,0,0-89.637,0,66.742,66.742,0,0,0-13.973,20.867,80.253,80.253,0,0,0-6.306,26.432Z" transform="translate(-16.174 -158.296)" style="fill:#f4f4f4"/>
        </g>
        <path d="M317,483H1505.3a8.706,8.706,0,0,0,8.7-8.7h0V459.7a8.706,8.706,0,0,0-8.7-8.7H330Z" transform="translate(-16.174 -158.296)" style="fill:#71acbc"/>
        <path d="M494,483H1506.6c4.1,0,7.4-3.9,7.4-8.7V459.7c0-4.8-3.3-8.7-7.4-8.7H505.1Z" transform="translate(-16.174 -158.296)" style="opacity:0.1;isolation:isolate"/>
        <path d="M671,483h836.9c3.4,0,6.1-3.9,6.1-8.7V459.7c0-4.8-2.7-8.7-6.1-8.7H680.2Z" transform="translate(-16.174 -158.296)" style="opacity:0.1;isolation:isolate"/>
    </g>
</svg>