<?xml version="1.0" encoding="UTF-8"?>
<svg xmlns="http://www.w3.org/2000/svg" viewBox="0 0 416 416">
    <g>
        <path d="M362.46,270.68c-9.44,7.26-23.38,20.06-35.73,21.82-12.91,1.85-6.65-4.12-8.02-12.85-3.67-23.31-69.15,.84-97.17,4.39-8.32,1.45-16.83,1.53-25.18,.24-5.93-.73-10.87-2.08-15.01-3.92-39.83-14.87-60.07-59.21-45.2-99.04,7.26-19.44,22.06-35.13,41.04-43.51-20.82,7.36-41.34,24.61-52.91,42.9-12.11,19.15-11.48,54.59-35.8,56.39-10.53,.79-17.89-18.79-25.62-8.25-5.81,7.91,21.36,53.22,26.14,59.92,24.18,33.86,62.07,45.3,101.86,49.92,31.79,3.67,87.87-9.91,114.58,10.34,21.35,16.18,3.2,34.88,41.48,7.05,6.41-4.67,13.87-10.04,21.72-15.93,27.09-32.84,43.41-73.23,46.71-115.68-15.68,18.04-37.11,34.06-52.89,46.2Z" style="fill:#f4f4f4;"/>
        <path d="M209.85,32.5c26.63,7.22,51.89,19.61,73.45,36.89,11.29,9.04,21.49,19.36,30.39,30.75,2.92,3.74,23.79,30.46,20.07,34.33-6.04,6.27-21.35-13.28-27.83,3.35-3.7,9.54,2.06,24.81,3.73,34.25,4.84,27.46-.53,51.9-18.52,73.72-16.49,20.01-38.12,32.29-60.32,36.05-3.03,.93-6.12,1.66-9.24,2.21,28.02-3.55,93.5-27.69,97.17-4.39,1.39,8.73-4.88,14.68,8.02,12.85,12.34-1.76,26.29-14.56,35.73-21.82,15.78-12.14,37.21-28.16,52.89-46.2,.42-5.44,.62-10.94,.62-16.49C416,93.12,322.88,0,208,0c-49.85-.07-98.05,17.83-135.77,50.42,41.72-24.1,90.11-30.8,137.62-17.92Z" style="fill:#777;"/>
        <path d="M196.36,284.27c-5.12-.79-10.15-2.11-15.01-3.92,4.15,1.85,9.09,3.2,15.01,3.92Z" style="fill:#777;"/>
        <path d="M208,416c64.71,0,122.49-29.53,160.63-75.85-7.86,5.89-15.32,11.26-21.72,15.93-38.28,27.83-20.13,9.14-41.48-7.05-26.7-20.25-82.78-6.68-114.58-10.34-39.79-4.59-77.65-16.04-101.86-49.92-4.78-6.7-31.95-52.01-26.14-59.92,7.73-10.54,15.09,9.03,25.62,8.25,24.32-1.82,23.69-37.25,35.8-56.39,11.56-18.29,32.08-35.54,52.91-42.9,38.92-17.14,84.38,.52,101.52,39.44,1.44,3.26,2.64,6.62,3.62,10.04-.61-11.9-12.23-28.15-18.11-35.73-19.48-25.16-49.36-34.36-79.81-37.44-7.86-.8-43.82,1.47-34.2-14.79,15.7-26.52-46.05-6.88-53.58-2.72-22.78,12.56-41.07,32.7-55.11,54.31C23.99,177.84,5.24,218.17,5.21,254.48c21.13,92.5,103.87,161.52,202.79,161.52Z" style="fill:#71acbc;"/>
        <path d="M41.49,150.91c14.04-21.61,32.33-41.74,55.11-54.31,7.53-4.16,69.28-23.8,53.58,2.73-9.61,16.24,26.35,13.97,34.2,14.79,30.46,3.09,60.33,12.29,79.81,37.44,5.87,7.58,17.5,23.83,18.11,35.73,11.34,40.27-11.53,82.23-51.52,94.53,22.19-3.76,43.83-16.03,60.32-36.05,17.99-21.82,23.36-46.26,18.52-73.72-1.66-9.44-7.45-24.71-3.73-34.25,6.47-16.64,21.8,2.92,27.83-3.35,3.72-3.87-17.15-30.59-20.07-34.33-8.9-11.39-19.1-21.71-30.39-30.75-21.56-17.27-46.81-29.66-73.42-36.88-47.51-12.87-95.9-6.18-137.62,17.92C28,88.57,0,145.01,0,208c0,15.64,1.74,31.23,5.21,46.48,.02-36.31,18.78-76.64,36.28-103.57Z" style="fill:#368ca3;"/>
        <path d="M131.27,208.23c-.02,37.93,27.61,70.21,65.09,76.04,8.35,1.29,16.85,1.21,25.18-.24,41.87-7.34,69.86-47.24,62.51-89.11-7.34-41.87-47.24-69.86-89.11-62.51-36.82,6.46-63.68,38.44-63.67,75.83Z" style="fill:#777;"/>
    </g>
</svg>