<svg xmlns="http://www.w3.org/2000/svg" viewBox="0 0 549.23 114.94"><g id="Layer_2" data-name="Layer 2"><g id="Layer_1-2" data-name="Layer 1"><path d="M28.15,72.35l-7.13,41H0L19.33,1.62l36,.08A41.85,41.85,0,0,1,69.5,4.46a31.78,31.78,0,0,1,11,7.13,29.21,29.21,0,0,1,6.82,11.05,34.23,34.23,0,0,1,1.58,14.42,34.88,34.88,0,0,1-4.57,15.15,37.46,37.46,0,0,1-9.86,11A43.84,43.84,0,0,1,61,70.08a52.54,52.54,0,0,1-15.62,2.34Zm3-17.49,15.35.23a24.5,24.5,0,0,0,7.67-1.34,21.62,21.62,0,0,0,6.44-3.57,19.69,19.69,0,0,0,7.13-13,23.29,23.29,0,0,0-.07-6.79,13.93,13.93,0,0,0-2.19-5.6,12.4,12.4,0,0,0-4.41-3.91,14.88,14.88,0,0,0-6.6-1.65l-17.1-.08Z"/><path d="M135.39,71.58H119.13l-7.21,41.73H90.82L110.23,1.62l35.21.08A50.56,50.56,0,0,1,159.75,4a33,33,0,0,1,11.43,6.18,26,26,0,0,1,7.28,10.2,31.18,31.18,0,0,1,1.81,14.42,37.74,37.74,0,0,1-2.38,10.82,32.91,32.91,0,0,1-5.1,8.82,34.75,34.75,0,0,1-7.56,6.86,51.18,51.18,0,0,1-9.74,5.1l15.42,45.8v1.15h-22.4ZM122.12,54.09l14.65.23a26.47,26.47,0,0,0,8-1.19,21,21,0,0,0,6.75-3.49A19.51,19.51,0,0,0,156.45,44a20.32,20.32,0,0,0,2.49-7.75q1-7.83-2.76-12.28T144.6,19.19l-16.34-.08Z"/><path d="M267.18,65.6A88.82,88.82,0,0,1,264.26,78a67.45,67.45,0,0,1-4.87,11.66,60.41,60.41,0,0,1-6.9,10.24,43.62,43.62,0,0,1-8.94,8.09,40.19,40.19,0,0,1-24,6.9,33.12,33.12,0,0,1-11.85-2.26,29,29,0,0,1-9-5.68,30.61,30.61,0,0,1-6.25-8.28,44.29,44.29,0,0,1-3.76-10.13,57.13,57.13,0,0,1-1.53-11.23,66.94,66.94,0,0,1,.54-11.59l2.53-16.26A82.06,82.06,0,0,1,193,37.18a72.7,72.7,0,0,1,4.68-11.62,57.49,57.49,0,0,1,6.63-10.28A42.91,42.91,0,0,1,213,7.11a39,39,0,0,1,10.74-5.3A39.56,39.56,0,0,1,236.65.09a34.66,34.66,0,0,1,12,2.22A30.1,30.1,0,0,1,257.86,8a31.66,31.66,0,0,1,6.55,8.29,43.47,43.47,0,0,1,4,10.12,56.08,56.08,0,0,1,1.73,11.32,64.7,64.7,0,0,1-.46,11.73Zm-18.8-16.42c.26-1.89.46-4,.62-6.21a54.91,54.91,0,0,0,0-6.79,37.15,37.15,0,0,0-.95-6.64,19.09,19.09,0,0,0-2.38-5.75,13,13,0,0,0-4.22-4.14A13.24,13.24,0,0,0,235,17.88a17.65,17.65,0,0,0-7.44,1.19,17.37,17.37,0,0,0-5.64,3.76,25.17,25.17,0,0,0-4.18,5.6,39.92,39.92,0,0,0-2.95,6.71,62,62,0,0,0-2,7.18Q212,46,211.56,49.26L209,65.75c-.26,1.79-.47,3.79-.65,6s-.26,4.45-.23,6.75a38.42,38.42,0,0,0,.65,6.75,19.32,19.32,0,0,0,2.07,5.91,12.13,12.13,0,0,0,3.95,4.26,12.28,12.28,0,0,0,6.41,1.8A17.76,17.76,0,0,0,228.67,96a19.14,19.14,0,0,0,5.87-3.72,24.63,24.63,0,0,0,4.48-5.6,42,42,0,0,0,3.26-6.79,54.46,54.46,0,0,0,2.19-7.25q.84-3.68,1.38-7Z"/><path d="M356,78.25a43.71,43.71,0,0,1-4.91,15.27,40.71,40.71,0,0,1-9.52,11.66,41.12,41.12,0,0,1-13.19,7.4,44.67,44.67,0,0,1-15.88,2.34,34.79,34.79,0,0,1-12.12-2.26,29.46,29.46,0,0,1-9.16-5.68,30.72,30.72,0,0,1-6.41-8.36A44.32,44.32,0,0,1,281,88.34a55.16,55.16,0,0,1-1.54-11.43A73.41,73.41,0,0,1,280,65.06l2.22-15a80.58,80.58,0,0,1,2.88-12.43A72.86,72.86,0,0,1,290,25.79a59.41,59.41,0,0,1,6.86-10.4,44.39,44.39,0,0,1,8.94-8.24,40.51,40.51,0,0,1,11-5.37A40,40,0,0,1,329.85,0a37.7,37.7,0,0,1,15,3,29.25,29.25,0,0,1,10.54,7.86,34.08,34.08,0,0,1,6.33,11.82,54.81,54.81,0,0,1,2.38,15l-20.87-.08a49.1,49.1,0,0,0-.57-7.67,17.07,17.07,0,0,0-2.22-6.29,12.55,12.55,0,0,0-4.57-4.34,16.25,16.25,0,0,0-7.52-1.8,18.12,18.12,0,0,0-7.74,1.27,19.54,19.54,0,0,0-5.95,3.83,24.26,24.26,0,0,0-4.45,5.72A44.1,44.1,0,0,0,307,35.26a62.46,62.46,0,0,0-2.15,7.4c-.56,2.51-1,4.91-1.3,7.21l-2.15,15.27Q301,68,300.7,71.43a67.32,67.32,0,0,0-.27,7,40.34,40.34,0,0,0,.65,6.9,18.55,18.55,0,0,0,2.15,6,12.26,12.26,0,0,0,4.14,4.3,13.23,13.23,0,0,0,6.68,1.8,19.86,19.86,0,0,0,8.2-1.15,18,18,0,0,0,6.22-3.91,20.85,20.85,0,0,0,4.29-6.1,33.06,33.06,0,0,0,2.53-7.86Z"/><path d="M425.12,90H392.67l-10.43,23.32H359.46L414.3,1.62h19.1l15.5,111.69H427.34ZM401,71.66h22.33l-3.92-40.89Z"/><path d="M504.21,71.58H487.94l-7.21,41.73H459.64L479.05,1.62l35.21.08A50.43,50.43,0,0,1,528.56,4,33,33,0,0,1,540,10.14a25.87,25.87,0,0,1,7.29,10.2,31.18,31.18,0,0,1,1.8,14.42,37.74,37.74,0,0,1-2.38,10.82,32.91,32.91,0,0,1-5.1,8.82,34.7,34.7,0,0,1-7.55,6.86,51.57,51.57,0,0,1-9.75,5.1l15.42,45.8v1.15h-22.4ZM490.94,54.09l14.65.23a26.41,26.41,0,0,0,8-1.19,21,21,0,0,0,6.75-3.49A19.36,19.36,0,0,0,525.26,44a20.16,20.16,0,0,0,2.5-7.75q1-7.83-2.77-12.28t-11.58-4.75l-16.34-.08Z"/></g></g></svg>