<?xml version="1.0" encoding="UTF-8"?><svg id="uuid-2a2ab1b0-df96-4b45-822a-2d48a1b907a2" xmlns="http://www.w3.org/2000/svg" viewBox="0 0 488.27 324.2"><g id="uuid-0f24138e-3777-4b13-bd47-e29b15597dcd"><g><path d="M450.8,141.12c2.08-3.02,4.32-5.71,6.67-8.15,3.59-3.73,8.65-5.8,13.8-5.3,.05,0,.1,.01,.15,.02,4.2,.44,8.1,2.47,10.96,5.57,.07,.08,.14,.15,.21,.23,3.87,4.31,5.72,10.04,5.68,15.83-.16,24.54-27.81,33.55-57.69,53.37-1.86,1.23-4.06-.98-2.81-2.82,4.51-6.64,10.64-13.85,18.08-22.04-2.34-1.91-4.03-4.74-5.3-8.15-.68-1.85,.09-3.92,1.8-4.9l16.6-9.55c1.21-.7,1.21-2.47-.03-3.12-2.71-1.42-5.17-3.14-7.4-5.16-1.65-1.49-1.99-3.99-.73-5.82h.01Z"/><path d="M35.53,146.93c.53-3.8,.54-7.52-.05-11.14-.51-3.15-2.72-5.76-5.75-6.76-9.08-2.98-17.2-1.41-23.32,5.35C2.09,139.15-.21,145.49,.02,151.92c.85,23.6,31.55,34.33,55.61,42.66,.06,.02,.13-.03,.13-.09l-.23-18.78c0-.55-.33-1.05-.83-1.28-2.46-1.16-5.49-2.76-8.74-4.54-2.39-1.31-3.01-4.4-1.41-6.61,2.75-3.8,4.5-8.31,5.33-13.47,.15-.91-.6-1.71-1.52-1.62-3.73,.37-7.47,.58-11.2,.61-.99,0-1.77-.88-1.63-1.86h0Z"/></g><g><g><path d="M163.17,162.97l3.34,1.97-3.34,2.25v24.83c0,3.92,1.8,4.7,4.71,4.7h4.25v4.71h-32.92v-4.71h3.02c2.8,0,4.7-.78,4.7-4.7v-24.39c-7.02-2.4-14.19-2.37-21.5,0v24.39c0,3.92,1.79,4.7,4.59,4.7h2.91v4.71h-32.7v-4.71h4.26c2.91,0,4.7-.78,4.7-4.7v-24.89l-3.25-2.19,3.25-1.92v.02l2.74-1.59v-.04l-2.74,1.61v-28.34c0-3.92-1.79-4.71-4.7-4.71h-4.26v-4.7h32.7v4.7h-2.91c-2.8,0-4.59,.79-4.59,4.71v28.02c7.23-1.68,14.39-1.68,21.5,0v-28.02c0-3.92-1.9-4.71-4.7-4.71h-3.02v-4.7h32.92v4.7h-4.25c-2.91,0-4.71,.79-4.71,4.71v28.29h0Z"/><path d="M382.8,182.28c-.12,12.09-3.37,21.05-13.67,21.05-12.21,0-14.33-7.95-14.33-19.04v-10.92l-3.04-2.04,3.04-1.79v-14.59h-7.17v-4.59c7.17,0,12.88-4.82,13.77-23.52h7.28v23.52h10.64v4.59h-10.52v31.81c0,3.69,0,8.96,4.47,8.96s4.26-8.4,4.6-13.44h4.93Z"/><path d="M227.44,174.54c0-15.9-8.85-26.09-20.61-26.09-12.9,0-20.41,9.29-22.34,21.61l-4.28,2.89,3.8,2.24c-.01,.49-.02,.98-.02,1.48,0,13.44,8.51,26.66,22.73,26.66,8.85,0,15.12-2.91,20.61-15.35l-3.92-2.57c-3.25,7.17-6.83,11.98-13.89,11.98-5.04,0-10.53-3.36-10.53-19.6h28.45v-3.25h0Zm-16.57-1.56h-11.88v-5.04c0-12.88,4.37-15.23,7.62-15.23,6.16,0,6.16,13.55,6.16,15.12,0,3.47,0,5.15-1.9,5.15h0Z"/><path d="M287.35,181.17c-.09,3.41-.46,14.41-6.62,13.66-2-.24-2.02-2.91-2.02-5.48v-14.45l4.57-3.08-4.57-2.7v-2.96l-.02-3.12c-.03-5.76-3.62-10.97-9.07-12.86-10.13-3.53-21.9-.26-26.45,3.21v-3.8h-5.71v21.09h3.81c3.02-15.65,14.32-19.07,21.77-13.74,1.27,.91,2,2.4,2.01,3.96v9.18c-20.16,3.47-26.88,12.66-26.88,21.28,0,5.27,3.47,11.76,12.65,11.76,6.16,0,10.87-2.57,15.46-7.05,1.23,4.7,4.48,7.05,8.51,7.05,16.12,.02,15.01-12.93,15.47-20.15l-2.91-1.8h0Zm-21.97,6.5c0,4.25-4.14,8.84-8.4,8.84-4.81,0-5.04-5.93-5.04-8.29,0-8.73,6.16-11.87,13.44-13.99v13.44h0Z"/><path d="M339.68,159.2c0,5.83-3.02,9.41-7.5,9.41-4.7,0-6.61-2.57-6.61-5.82s1.57-4.26,1.57-5.49c0-1.12-.45-1.57-1.46-1.57-4.25,0-6.94,8.96-6.94,14v23.75c0,2.57,.56,3.36,2.91,3.36h3.36v4.59h-26.65v-4.59h3.13c2.35,0,3.25-.79,3.25-3.36v-17.71l-3.12-2.11,3.12-1.84v-12.5c0-3.25-.67-4.37-2.8-4.37h-3.47v-4.59c6.38,0,15.79-1.35,18.25-1.91v9.63h.68c2.35-3.92,5.6-9.63,13.21-9.63,5.27,0,9.07,3.47,9.07,10.75h0Z"/></g><g><path d="M106.28,39.64v-1.12c9.3-.56,18.15-6.71,18.15-17.92,0-16.68-17.81-17.13-24.31-17.13h-33.49v4.7h4.04c3.02,0,4.92,.79,4.92,4.71v26.79l-3.3,1.94,3.3,2.22v26.39c0,3.92-1.9,4.7-4.92,4.7h-4.04v4.71h34.72c15.46,0,25.65-4.82,25.65-20.61s-12.77-19.04-20.72-19.38h0Zm-14.56-26.76c0-4.48,2.35-4.82,3.59-4.82h1.34c9.97,0,11.31,8.4,11.31,14.34,0,10.75-4.93,14.45-12.99,14.45h-3.25V12.88Zm4.82,62.16h-2.13c-1.01,0-2.69-.23-2.69-3.36v-30.02h3.25c13.22,0,13.78,9.19,13.78,16.69,0,15.45-6.5,16.69-12.21,16.69Z"/><path d="M234.07,50.4c-1.03-15.26-10.53-23.74-23.32-23.74s-22.28,8.48-23.31,23.75l-3.18,1.88,3.1,2.09c.44,16.68,10.26,27.16,23.39,27.16s22.94-10.47,23.39-27.13l3.14-2.12-3.21-1.89Zm-23.32,26.88c-8.07,0-8.29-14.78-8.29-24.08s.22-22.29,8.29-22.29,8.29,12.99,8.29,22.29-.23,24.08-8.29,24.08Z"/><path d="M299.81,75.04v4.59h-25.31v-4.59h1.12c1.9,0,2.46-.33,2.46-2.13,0-.78-.22-1.57-.67-2.35l-7.28-14.45-4.48,5.27v10.3c0,2.58,.34,3.36,2.91,3.36h1.35v4.59h-24.64v-4.59h2.91c2.46,0,3.47-.78,3.47-3.36v-17.6l-3.2-2.16,3.2-1.89V9.86c0-1.01,0-3.14-4.03-3.14h-2.24V1.57h2.69c1.57,0,8.17-.11,17.58-1.57V53.54h.56l11.54-13.11c.89-1,2.01-2.24,2.01-4.14,0-1.79-1.23-3.14-2.91-3.14h-3.58v-4.59h25.08v4.59h-1.56c-5.15,0-8.63,3.59-11.99,7.28l-4.93,5.6,1.6,3.08,4.75,2.81-2.45,1.65,7.87,15.2c2.01,3.92,4.25,6.27,7.5,6.27h.67Z"/><path d="M351.53,52.75c0-15.9-8.85-26.09-20.61-26.09-12.9,0-20.41,9.29-22.34,21.61l-4.28,2.89,3.8,2.24c-.01,.49-.02,.98-.02,1.48,0,13.44,8.51,26.66,22.73,26.66,8.85,0,15.12-2.91,20.61-15.35l-3.92-2.57c-3.25,7.17-6.83,11.98-13.89,11.98-5.04,0-10.53-3.36-10.53-19.6h28.45v-3.25h0Zm-16.57-1.56h-11.88v-5.04c0-12.88,4.37-15.23,7.62-15.23,6.16,0,6.16,13.55,6.16,15.12,0,3.47,0,5.15-1.9,5.15h0Z"/><path d="M416.4,75.04v4.59h-24.97v-4.59h1.46c2.35,0,3.24-.78,3.24-3.36v-30.58c0-6.16-2.91-6.72-4.81-6.72-3.92,0-8.51,5.83-8.51,10.76v26.54c0,2.58,.33,3.36,2.91,3.36h1.45v4.59h-24.75v-4.59h3.02c2.36,0,3.37-.78,3.37-3.36v-17.35l-3.26-2.2,3.26-1.92v-12.69c0-1.79-.12-4.37-2.8-4.37h-3.59v-4.59c7.06-.34,11.65-.67,19.82-1.9v9.07h.57c4.14-6.61,9.29-9.07,14.55-9.07,11.99,0,12.66,10.97,12.66,15.9v7.63l3.29,1.94-3.29,2.22v17.33c0,2.58,.9,3.36,3.36,3.36h3.02Z"/><path d="M179.18,37.41c0,5.83-3.02,9.41-7.5,9.41-4.7,0-6.61-2.57-6.61-5.82s1.57-4.26,1.57-5.49c0-1.12-.45-1.57-1.46-1.57-4.25,0-6.94,8.96-6.94,14v23.75c0,2.57,.56,3.36,2.91,3.36h3.36v4.59h-26.65v-4.59h3.13c2.35,0,3.25-.79,3.25-3.36v-17.71l-3.12-2.11,3.12-1.84v-12.5c0-3.25-.67-4.37-2.8-4.37h-3.47v-4.59c6.38,0,15.79-1.35,18.25-1.91v9.63h.68c2.35-3.92,5.6-9.63,13.21-9.63,5.27,0,9.07,3.47,9.07,10.75h0Z"/></g><g><path d="M115.74,298.35l-4.96,3.35c-1,12.16-8.56,22.5-22.5,22.5-6.61,0-13.11-1.9-19.27-7.5l-3.92,5.26h-4.81v-27.77h5.71c4.81,21.95,14.45,24.19,22.62,24.19,6.39,0,11.99-4.48,11.99-11.43,0-8.62-9.52-12.43-17.59-15.12-8.62-2.8-21.39-6.72-21.39-24.97,0-13.89,9.41-23.41,22.96-23.41,7.62,0,12.54,3.14,15.23,5.38l2.02-4.82h4.93v26.43h-5.6c-1.24-9.18-5.16-21.28-16.91-21.28-6.28,0-12.33,3.92-12.33,11.76,0,10.42,11.43,12.1,18.26,14.56,10.04,3.49,19.05,8,20.51,19.89l5.05,2.98h0Z"/><path d="M373.07,295.07c0-15.9-8.85-26.09-20.61-26.09-12.9,0-20.41,9.29-22.34,21.61l-4.28,2.89,3.8,2.24c-.01,.49-.02,.98-.02,1.48,0,13.44,8.51,26.66,22.73,26.66,8.85,0,15.12-2.91,20.61-15.35l-3.92-2.57c-3.25,7.17-6.83,11.98-13.89,11.98-5.04,0-10.53-3.36-10.53-19.6h28.45v-3.25h0Zm-16.57-1.56h-11.88v-5.04c0-12.88,4.37-15.23,7.62-15.23,6.16,0,6.16,13.55,6.16,15.12,0,3.47,0,5.15-1.9,5.15h0Z"/><path d="M422.75,306.83c0,8.18-5.15,17.03-17.81,17.03-2.8,0-8.62-.79-12.77-4.71l-2.57,4.71h-4.93v-18.93h6.05c2.01,9.3,6.83,14.67,14,14.67,8.17,0,8.51-6.05,8.51-7.95,0-5.93-5.71-6.72-11.87-9.07-3.75-1.44-8.5-2.74-11.98-5.64l-5.86-3.46,2.2-1.49c-.67-1.64-1.05-3.57-1.05-5.88,0-10.08,5.71-17.13,16.35-17.13,6.05,0,9.52,2.01,11.87,3.69l2.35-3.69h5.04v17.02h-5.71c-1.56-6.6-5.6-12.76-12.99-12.76-5.82,0-8.51,3.13-8.51,7.05,0,6.38,7.17,7.39,14,9.63,10.08,3.36,15.68,6.16,15.68,16.91h0Z"/><path d="M159.95,302.8c-.11,12.1-3.36,21.06-13.67,21.06-12.2,0-14.33-7.95-14.33-19.04v-8.59l-4.66-2.75,4.66-3.14v-14.87h-7.17v-4.59c7.17,0,12.88-4.81,13.78-23.52h7.28v23.52h10.64v4.59h-10.53v14.57l4.8,2.83-4.8,3.23v11.18c0,3.7,0,8.96,4.48,8.96s4.25-8.4,4.59-13.44h4.93Z"/><path d="M282.37,292.87l-4.43-2.62c-1.43-11.45-6.96-21.27-17.87-21.27-6.28,0-9.97,3.25-11.54,7.17h-.79l.68-6.5v-27.33c-9.19,1.35-15.68,1.57-18.15,1.57h-2.57v4.59h2.57c1.46,0,4.15,0,4.15,3.14v38.92l-4.37,2.94,4.37,2.58v25.89h5.48l5.27-7.84c2.69,6.16,7.06,9.75,14.34,9.75,12.88,0,18.81-12.88,18.81-27.33,0-.31,0-.61-.01-.92l4.06-2.74h0Zm-26.11,24.49c-6.28,0-8.18-9.41-8.18-20.6,0-.22,0-.45,.01-.67l4.78-3.22-4.48-2.64c.8-8,3.18-14.2,7.53-14.2,4.99,0,6.89,6.24,7.44,14.56l-4.29,2.89,4.46,2.63c.01,.22,.01,.43,.01,.65,0,11.19-1.46,20.6-7.28,20.6h0Z"/><path d="M318.54,317.37v4.59h-29.01v-4.59h3.7c2.68,0,3.8-.78,3.8-3.36v-17.94l-4.38-2.58,4.38-2.95v-38.91c0-3.14-3.13-3.14-4.48-3.14h-2.91v-4.59h2.8c2.8,0,8.85-.22,18.59-1.57v47.74l4.76,2.81-4.76,3.2v17.93c0,2.58,1.24,3.36,3.81,3.36h3.7Z"/><path d="M219.17,301.7c-.09,3.41-.46,14.41-6.62,13.66-2-.24-2.02-2.91-2.02-5.48v-14.45l4.57-3.08-4.57-2.7v-2.96l-.02-3.12c-.03-5.76-3.62-10.97-9.07-12.86-10.13-3.53-21.9-.26-26.45,3.21v-3.8h-5.71v21.09h3.81c3.02-15.65,14.32-19.07,21.77-13.74,1.27,.91,2,2.4,2.01,3.96v9.18c-20.16,3.47-26.88,12.66-26.88,21.28,0,5.27,3.47,11.76,12.65,11.76,6.16,0,10.87-2.57,15.46-7.05,1.23,4.7,4.48,7.05,8.51,7.05,16.12,.02,15.01-12.93,15.47-20.15l-2.91-1.8h0Zm-21.97,6.5c0,4.25-4.14,8.84-8.4,8.84-4.81,0-5.04-5.93-5.04-8.29,0-8.73,6.16-11.87,13.44-13.99v13.44h0Z"/></g></g></g></svg>