<svg xmlns="http://www.w3.org/2000/svg" viewBox="0 0 210.682 498"><g id="ed66bcc3-18d0-4533-a8d5-e30c914e63fb" data-name="Layer 2"><g id="a10170fc-e315-492b-8b5f-d32c793b7122" data-name="Layer 1"><polygon points="131.762 238.006 196.643 214.721 144.729 214.721 152.59 202.645 208.273 168.739 172.142 172.398 210.682 112.898 78.322 224.8 30.027 204.988 7.546 214.784 79.197 238.884 131.762 238.006" style="fill:#e4e9ed"/><path d="M67.012,199.8,84.8,209.973l54.479-47.346L199.492,56.821l-36.18,17.726L146.227,97.839,131.4,0,92.194,101.5,40.114,31.84l33.85,116.317c-16.9-15.365-37.617-33.911-36.66-31.575C38.91,120.5,67.012,199.8,67.012,199.8Z" style="fill:#e4e9ed"/><polygon points="53.44 194.659 11.267 184.009 69.147 214.01 53.44 194.659" style="fill:#e4e9ed"/><polygon points="40.465 147.186 1.586 118.776 48.155 173.638 40.465 147.186" style="fill:#c6cbcf"/><polygon points="86.102 299.18 93.487 285.649 106.128 279.322 121.811 290.746 118.538 308.612 105.111 314.377 92.073 310.256 86.102 299.18" style="fill:#c6cbcf"/><polygon points="40.522 269.913 46.384 282.142 65.568 262.192 59.984 255.023 40.522 269.913" style="fill:#c6cbcf"/><polygon points="83.985 262.192 121.586 259.237 103.17 246.676 83.985 262.192" style="fill:#c6cbcf"/><polygon points="130.243 262.546 143.84 275.492 143.84 290.748 165.327 268.842 145.761 255.856 130.243 262.546" style="fill:#c6cbcf"/><polygon points="15.099 304.282 3.478 337.366 4.179 341.252 19.526 318.347 15.099 304.282" style="fill:#c6cbcf"/><polygon points="38.249 332.762 60.778 311.769 46.243 292.176 24.441 315.968 38.249 332.762" style="fill:#c6cbcf"/><polygon points="0.946 353.049 0 394.215 11.852 374.502 0.946 353.049" style="fill:#c6cbcf"/><polygon points="1.865 407.189 7.002 435.766 12.782 425.475 1.865 407.189" style="fill:#c6cbcf"/><polygon points="44.603 452.244 34.058 432.291 32.571 417.806 22.595 429.918 41.78 455.778 44.603 452.244" style="fill:#c6cbcf"/><polygon points="172.233 310.219 153.816 293.964 144.811 301.651 141.229 318.869 156.886 331.647 172.233 310.219" style="fill:#c6cbcf"/><polygon points="39.61 479.915 55.181 490.139 61.017 492.203 65.568 486.458 44.082 468.725 39.61 479.915" style="fill:#c6cbcf"/><polygon points="197.47 325.725 188.255 302.421 182.209 310.219 192.185 331.647 197.47 325.725" style="fill:#c6cbcf"/><polygon points="205.65 368.029 194.977 349.503 184.163 373.201 197.208 391.673 205.65 368.029" style="fill:#c6cbcf"/><polygon points="179.367 433.075 171.664 423.972 156.408 452.887 159.188 455.778 179.367 433.075" style="fill:#c6cbcf"/><polygon points="99.802 472.765 77.846 486.072 103.532 495.325 121.586 484.595 99.802 472.765" style="fill:#c6cbcf"/><polygon points="134.632 486.072 144.933 493.003 166.433 477.748 158.42 466.861 134.632 486.072" style="fill:#c6cbcf"/><polygon points="189.115 435.452 197.854 442.778 207.684 411.815 201.627 404.234 189.115 435.452" style="fill:#c6cbcf"/><path d="M157.056,367.16,138.937,352l-21.866-10.457H87.082l-27.8,14.682L38.663,389.652v32.175l9.059,20.962,14.369,15.829,19.056,7.862,41.234,1.042,31.863-22.053L167.676,412.4Zm-11.083,56.858-15.982,19.13-19.856,7.991H85.92L61.947,430.314l-7.265-28.089,7.991-24.942L86.4,358.153h27.121l23.247,15.5,11.865,24.457Z" style="fill:#c6cbcf"/><polygon points="38.477 345.27 25.242 368.342 35.764 380.413 54.682 353.497 38.477 345.27" style="fill:#c6cbcf"/><polygon points="158.24 350.855 167.676 385.509 176.07 374.502 158.24 350.855" style="fill:#c6cbcf"/><polygon points="67.183 302.831 65.568 290.184 77.669 270.164 71.528 264.478 52.699 288.187 67.183 302.831" style="fill:#e4e9ed"/><polygon points="77.079 259.237 87.055 246.676 67.494 251.851 77.079 259.237" style="fill:#e4e9ed"/><polygon points="127.725 256.281 136.298 250.58 113.26 244.965 127.725 256.281" style="fill:#e4e9ed"/><polygon points="18.866 295.147 22.781 304.875 38.477 288.987 34.085 276.488 18.866 295.147" style="fill:#e4e9ed"/><polygon points="34.058 341.243 21.009 325.725 8.573 350.11 17.014 363.409 34.058 341.243" style="fill:#e4e9ed"/><polygon points="19.526 419.573 32.571 399.624 19.526 374.502 6.481 395.929 19.526 419.573" style="fill:#e4e9ed"/><polygon points="11.817 448.986 32.214 474.186 37.176 465.384 19.526 440.262 11.817 448.986" style="fill:#e4e9ed"/><polygon points="159.188 283.62 178.372 302.831 185.548 295.566 169.185 275.475 159.188 283.62" style="fill:#e4e9ed"/><polygon points="84.492 472.765 51.305 461.021 74.777 480.9 84.492 472.765" style="fill:#e4e9ed"/><polygon points="191.631 342.069 176.07 322.041 159.188 341.252 179.367 364.896 191.631 342.069" style="fill:#e4e9ed"/><polygon points="203.83 350.855 200.635 337.59 197.132 342.538 203.83 350.855" style="fill:#e4e9ed"/><polygon points="198.324 399.624 182.209 380.413 172.233 392.907 175.409 417.806 185.278 424.745 198.324 399.624" style="fill:#e4e9ed"/><polygon points="150.909 461.685 145.803 458.281 127.725 471.918 118.083 472.765 127.694 480.909 150.909 461.685" style="fill:#e4e9ed"/><polygon points="67.066 494.548 88.54 497.144 72.241 487.913 67.066 494.548" style="fill:#e4e9ed"/><polygon points="112.925 498 137.701 495.325 126.955 490.22 112.925 498" style="fill:#e4e9ed"/><polygon points="164.69 458.431 172.87 471.22 194.444 449.756 183.869 439.157 164.69 458.431" style="fill:#e4e9ed"/><polygon points="200.859 396.668 208.83 407.831 209.3 372.285 200.859 396.668" style="fill:#e4e9ed"/><polygon points="93.572 377.037 117.967 383.503 132.956 401.137 120.906 430.528 91.221 432.291 76.819 413.187 78.289 390.85 93.572 377.037" style="fill:#e4e9ed"/><path d="M135.451,278.345l-9.857-8.247-11.9-5.689H97.382L82.256,272.4,71.039,290.582v17.5l4.929,11.4,7.817,8.612,10.368,4.277,22.433.567,17.335-12,7.308-17.989Zm-4.063,32.592-9.4,11.256L110.3,326.9H96.051L81.944,314.641,77.67,298.112l4.7-14.676,13.964-11.257H112.3l13.679,9.12,6.982,14.391Z" style="fill:#e4e9ed"/><polygon points="66.947 317.077 44.603 337.427 60.778 349.503 80.531 337.044 66.947 317.077" style="fill:#e4e9ed"/><polygon points="136.011 325.725 122.949 337.014 153.154 356.174 153.432 340.397 136.011 325.725" style="fill:#e4e9ed"/><polygon points="100.004 346.058 98.888 347.061 97.886 348.133 97.208 349.101 98.92 351.865 100.314 352.949 101.166 352.175 102.317 350.643 103.159 349.503 102.317 348.133 101.331 346.982 100.004 346.058" style="fill:#e4e9ed"/><polygon points="156.229 400.788 155.112 401.791 154.111 402.863 153.432 403.831 155.144 406.595 156.538 407.679 157.39 406.905 158.542 405.373 159.383 404.234 158.542 402.863 157.555 401.712 156.229 400.788" style="fill:#e4e9ed"/><polygon points="101.48 454.835 100.364 455.839 99.363 456.911 98.684 457.879 100.396 460.643 101.79 461.727 102.642 460.953 103.794 459.42 104.635 458.281 103.794 456.911 102.807 455.76 101.48 454.835" style="fill:#e4e9ed"/><polygon points="48.608 410.915 47.492 411.918 46.491 412.99 45.812 413.958 47.524 416.722 48.918 417.806 49.77 417.032 50.922 415.499 51.763 414.36 50.922 412.99 49.935 411.839 48.608 410.915" style="fill:#e4e9ed"/></g></g></svg>