<?xml version="1.0" encoding="UTF-8"?><svg id="uuid-d7aa9576-70af-4f27-926d-8a2e230659f0" xmlns="http://www.w3.org/2000/svg" xmlns:xlink="http://www.w3.org/1999/xlink" viewBox="0 0 620 500"><defs><clipPath id="uuid-1b39a547-07b2-47b8-af51-c1baca06f78c"><rect x="40" y="40" width="528.04" height="420" style="fill:none;"/></clipPath></defs><g id="uuid-3022ccde-48cf-4825-92e3-66b33882102c"><g><rect width="620" height="500" style="fill:#fff;"/><rect x="40" y="40" width="540" height="420" style="fill:#439956;"/><g style="clip-path:url(#uuid-1b39a547-07b2-47b8-af51-c1baca06f78c);"><g><rect x="40" y="40" width="47.9" height="589.73" style="fill:#7fbb79;"/><rect x="129.9" y="40" width="47.9" height="589.73" style="fill:#7fbb79;"/><rect x="219.79" y="40" width="47.9" height="589.73" style="fill:#7fbb79;"/><rect x="309.69" y="40" width="47.9" height="589.73" style="fill:#7fbb79;"/><rect x="399.59" y="40" width="47.9" height="589.73" style="fill:#7fbb79;"/><rect x="489.48" y="40" width="47.9" height="589.73" style="fill:#7fbb79;"/></g></g><path d="M553.27,91.29c-5.89,3.45-9.34,5.8-10.35,7.05-1.01,.94-2.52,2.51-4.54,4.7-2.02,2.2-4.38,5.25-7.07,9.17-2.7,3.92-5.55,8.94-8.58,15.05-3.03,6.11-6.23,13.72-9.59,22.81-5.39,15.36-11.61,32.37-18.67,51.02-7.07,18.66-14.22,37.86-21.45,57.61-7.24,19.75-14.56,39.58-21.96,59.49-7.4,19.91-14.31,38.8-20.69,56.67l-21.2,45.14h-5.05c-9.08-22.57-17.59-44.21-25.49-64.9-7.91-20.69-15.48-40.6-22.71-59.72-7.24-19.12-14.22-37.69-20.95-55.73-6.73-18.02-13.63-35.81-20.69-53.37-5.39,14.42-11.1,29.55-17.16,45.38-6.06,15.83-12.11,31.9-18.17,48.2-6.06,16.3-12.11,32.37-18.17,48.2-6.06,15.83-11.95,31.12-17.67,45.85l-22.21,46.09h-6.06c-10.43-25.39-20.28-49.53-29.53-72.42-9.26-22.88-18.17-44.91-26.75-66.07-8.58-21.16-16.91-41.69-24.98-61.6-8.08-19.91-16.15-39.74-24.23-59.49-2.36-5.95-4.46-11.12-6.31-15.52-1.85-4.39-3.53-8.46-5.05-12.23-1.51-3.76-3.11-7.36-4.79-10.82-1.69-3.45-3.53-7.05-5.55-10.82-1.01-1.88-2.44-4.23-4.29-7.05-1.85-2.82-4.46-5.56-7.82-8.23-3.37-2.66-7.4-5.01-12.11-7.05-4.71-2.04-10.76-3.21-18.17-3.53v-5.17H187.61v4.7c-1.69,0-4.54,.32-8.58,.94-4.04,.63-8.25,1.73-12.62,3.29-4.38,1.57-8.16,3.92-11.36,7.05-3.2,3.14-4.8,7.37-4.8,12.7,0,2.82,1.77,9.33,5.3,19.52,3.53,10.19,8.15,22.57,13.88,37.15,5.72,14.58,12.03,30.49,18.93,47.73,6.89,17.25,13.79,34.26,20.69,51.02,6.89,16.78,13.38,32.45,19.43,47.03,6.06,14.58,10.93,26.57,14.64,35.98,1.01-2.51,3.53-9.01,7.57-19.52,4.04-10.5,9.08-23.67,15.14-39.5,6.06-15.83,12.78-33.7,20.19-53.61,7.4-19.91,14.8-40.68,22.21-62.31-5.05-12.54-9.59-23.59-13.63-33.15-4.04-9.56-8.41-18.88-13.12-27.98-1.35-2.51-3.11-5.17-5.3-7.99-2.19-2.82-5.22-5.56-9.08-8.23-3.87-2.66-8.67-4.86-14.38-6.58-5.73-1.72-12.62-2.74-20.69-3.06v-5.17h157.98v4.7c-2.02,.32-5.64,.79-10.85,1.41-5.22,.63-10.43,1.81-15.64,3.53-5.22,1.73-9.93,4.16-14.13,7.29-4.21,3.14-6.31,7.05-6.31,11.76,0,1.88,1.85,8.23,5.55,19.05,3.7,10.82,8.41,23.98,14.13,39.5,5.72,15.52,12.11,32.37,19.18,50.55,7.07,18.19,13.79,35.67,20.19,52.43,6.39,16.78,12.19,31.82,17.41,45.15,5.21,13.33,9,22.97,11.36,28.92,1.01-2.19,2.78-6.82,5.3-13.87,2.52-7.05,5.72-15.67,9.59-25.86,3.86-10.18,8.08-21.55,12.62-34.09,4.54-12.54,9.09-25.31,13.63-38.33,4.54-13.01,9.08-26.02,13.63-39.03,4.54-13.01,8.66-25.16,12.37-36.45,4.71-14.42,7.4-24.92,8.08-31.51,.67-6.58,1.01-11.44,1.01-14.58,0-4.7-1.51-8.54-4.54-11.52-3.03-2.98-6.74-5.48-11.1-7.52-4.38-2.04-9.08-3.6-14.13-4.7-5.05-1.09-9.59-1.8-13.63-2.12v-4.7h111.04v4.7c-8.42,.94-15.57,3.14-21.45,6.58Z" style="fill:#fff;"/></g></g></svg>