<?xml version="1.0" encoding="UTF-8"?>
<svg id="Layer_2" data-name="Layer 2" xmlns="http://www.w3.org/2000/svg" viewBox="0 0 562.91 117.13">
  <defs>
    <style>
      .cls-1 {
        fill: #06f;
      }
    </style>
  </defs>
  <g id="Layer_1-2" data-name="Layer 1">
    <g>
      <path class="cls-1" d="m69.75,65.88c0,3.58-.73,6.79-2.19,9.62-1.46,2.83-3.42,5.23-5.88,7.19-2.46,1.96-5.36,3.46-8.69,4.5-3.33,1.04-6.88,1.56-10.62,1.56H0V0h45.75c3.08,0,5.88.67,8.38,2,2.5,1.33,4.62,3.06,6.38,5.19s3.1,4.54,4.06,7.25c.96,2.71,1.44,5.44,1.44,8.19,0,4.33-1.11,8.4-3.31,12.19-2.21,3.79-5.36,6.61-9.44,8.44,5.08,1.5,9.1,4.23,12.06,8.19,2.96,3.96,4.44,8.77,4.44,14.44ZM14,12.12v26.12h25.75c1.75,0,3.35-.33,4.81-1,1.46-.67,2.75-1.56,3.88-2.69s2-2.48,2.62-4.06c.62-1.58.94-3.33.94-5.25,0-3.83-1.08-6.98-3.25-9.44-2.17-2.46-4.92-3.69-8.25-3.69H14Zm41.38,51.12c0-1.83-.31-3.58-.94-5.25-.62-1.67-1.46-3.12-2.5-4.38-1.04-1.25-2.31-2.25-3.81-3s-3.12-1.12-4.88-1.12H14v27.12h28.38c1.83,0,3.54-.35,5.12-1.06,1.58-.71,2.96-1.67,4.12-2.88,1.17-1.21,2.08-2.62,2.75-4.25.67-1.62,1-3.35,1-5.19Z"/>
      <path class="cls-1" d="m83.25,104.25c1.17.25,2.25.42,3.25.5,1,.08,1.92.12,2.75.12,1.08,0,2.04-.12,2.88-.38.83-.25,1.64-.9,2.44-1.94.79-1.04,1.67-2.65,2.62-4.81.96-2.17,2.1-5.17,3.44-9l-26.75-65.38h14.12l20.25,53.25,18-53.25h13l-29.88,80.5c-1.67,4.5-4.17,7.83-7.5,10-3.33,2.17-7.21,3.25-11.62,3.25-2.42,0-4.75-.33-7-1v-11.88Z"/>
      <path class="cls-1" d="m185.87,85.38c-1.83.83-4.27,1.77-7.31,2.81-3.04,1.04-6.36,1.56-9.94,1.56-2.17,0-4.19-.29-6.06-.88s-3.54-1.46-5-2.62c-1.46-1.17-2.61-2.69-3.44-4.56-.83-1.88-1.25-4.14-1.25-6.81v-40.88h-8.75v-10.62h8.75V1.88h13.75v21.5h14.25v10.62h-14.25v36.5c0,2.33.67,4.02,2,5.06,1.33,1.04,2.96,1.56,4.88,1.56s3.75-.33,5.5-1c1.75-.67,3.04-1.21,3.88-1.62l3,10.88Z"/>
      <path class="cls-1" d="m224.62,90c-5.08,0-9.71-.9-13.88-2.69-4.17-1.79-7.73-4.23-10.69-7.31-2.96-3.08-5.25-6.67-6.88-10.75-1.62-4.08-2.44-8.42-2.44-13s.81-8.94,2.44-13.06,3.92-7.75,6.88-10.88c2.96-3.12,6.52-5.58,10.69-7.38,4.17-1.79,8.83-2.69,14-2.69s9.69.92,13.81,2.75c4.12,1.83,7.64,4.27,10.56,7.31,2.92,3.04,5.14,6.58,6.69,10.62,1.54,4.04,2.31,8.27,2.31,12.69,0,1-.04,1.94-.12,2.81-.08.88-.17,1.61-.25,2.19h-52.38c.25,2.92.94,5.54,2.06,7.88,1.12,2.33,2.58,4.36,4.38,6.06,1.79,1.71,3.83,3.02,6.12,3.94,2.29.92,4.69,1.38,7.19,1.38,1.83,0,3.64-.23,5.44-.69,1.79-.46,3.44-1.12,4.94-2s2.83-1.94,4-3.19c1.17-1.25,2.08-2.62,2.75-4.12l11.75,3.38c-2.25,4.92-5.98,8.94-11.19,12.06-5.21,3.12-11.27,4.69-18.19,4.69Zm19.88-38.88c-.25-2.75-.94-5.29-2.06-7.62-1.12-2.33-2.56-4.31-4.31-5.94s-3.79-2.89-6.12-3.81c-2.33-.92-4.79-1.38-7.38-1.38s-5.02.46-7.31,1.38c-2.29.92-4.31,2.19-6.06,3.81s-3.17,3.61-4.25,5.94c-1.08,2.33-1.75,4.88-2,7.62h39.5Z"/>
      <path class="cls-1" d="m349.12,23.38h13.12l-27.62,65.38h-11.25l-12.25-30.38-12.12,30.38h-11.38l-27.5-65.38h13l21.12,52.12,9.5-24.25-11.38-27.75h11.25l7.5,20.5,7.5-20.5h11.25l-11.25,27.75,9.5,24.25,21-52.12Z"/>
      <path class="cls-1" d="m410,88.75v-9.5c-2.67,3.67-6.02,6.38-10.06,8.12-4.04,1.75-8.4,2.62-13.06,2.62-3.17,0-6.11-.52-8.81-1.56-2.71-1.04-5.04-2.48-7-4.31-1.96-1.83-3.5-4-4.62-6.5s-1.69-5.21-1.69-8.12c0-3.42.77-6.42,2.31-9,1.54-2.58,3.6-4.73,6.19-6.44,2.58-1.71,5.54-3,8.88-3.88,3.33-.88,6.75-1.31,10.25-1.31,3.92,0,7.35.31,10.31.94,2.96.62,5.27,1.31,6.94,2.06v-4.5c0-4.75-1.38-8.5-4.12-11.25s-6.71-4.12-11.88-4.12c-3.5,0-6.94.65-10.31,1.94-3.38,1.29-6.86,3.15-10.44,5.56l-4.25-8.75c3.92-2.58,8.04-4.64,12.38-6.19,4.33-1.54,8.96-2.31,13.88-2.31,9.25,0,16.31,2.38,21.19,7.12s7.31,11.25,7.31,19.5v39.88h-13.38Zm-3-15.75c1.75-1.58,2.62-3.17,2.62-4.75v-8.62c-5-1.92-10.04-2.88-15.12-2.88-2,0-4,.23-6,.69-2,.46-3.79,1.17-5.38,2.12-1.58.96-2.88,2.17-3.88,3.62-1,1.46-1.5,3.19-1.5,5.19,0,1.67.33,3.21,1,4.62.67,1.42,1.6,2.62,2.81,3.62,1.21,1,2.58,1.79,4.12,2.38,1.54.58,3.19.88,4.94.88,2.92,0,5.94-.56,9.06-1.69s5.56-2.85,7.31-5.19Z"/>
      <path class="cls-1" d="m453.37,88.75l-25-65.38h14.25l18.62,53.75,18.88-53.75h13l-25,65.38h-14.75Z"/>
      <path class="cls-1" d="m529.37,90c-5.08,0-9.71-.9-13.88-2.69-4.17-1.79-7.73-4.23-10.69-7.31-2.96-3.08-5.25-6.67-6.88-10.75-1.62-4.08-2.44-8.42-2.44-13s.81-8.94,2.44-13.06,3.92-7.75,6.88-10.88c2.96-3.12,6.52-5.58,10.69-7.38,4.17-1.79,8.83-2.69,14-2.69s9.69.92,13.81,2.75c4.12,1.83,7.64,4.27,10.56,7.31,2.92,3.04,5.14,6.58,6.69,10.62,1.54,4.04,2.31,8.27,2.31,12.69,0,1-.04,1.94-.12,2.81-.08.88-.17,1.61-.25,2.19h-52.38c.25,2.92.94,5.54,2.06,7.88,1.12,2.33,2.58,4.36,4.38,6.06,1.79,1.71,3.83,3.02,6.12,3.94,2.29.92,4.69,1.38,7.19,1.38,1.83,0,3.64-.23,5.44-.69,1.79-.46,3.44-1.12,4.94-2s2.83-1.94,4-3.19c1.17-1.25,2.08-2.62,2.75-4.12l11.75,3.38c-2.25,4.92-5.98,8.94-11.19,12.06-5.21,3.12-11.27,4.69-18.19,4.69Zm19.88-38.88c-.25-2.75-.94-5.29-2.06-7.62-1.12-2.33-2.56-4.31-4.31-5.94s-3.79-2.89-6.12-3.81c-2.33-.92-4.79-1.38-7.38-1.38s-5.02.46-7.31,1.38c-2.29.92-4.31,2.19-6.06,3.81s-3.17,3.61-4.25,5.94c-1.08,2.33-1.75,4.88-2,7.62h39.5Z"/>
      <path class="cls-1" d="m562.91,109.01v4.12c0,2.21-1.76,4-3.94,4H115.72c1.97-2.62,3.57-5.66,4.82-9.08l1.11-3.04h437.31c2.18,0,3.94,1.79,3.94,4Z"/>
    </g>
  </g>
</svg>