<svg xmlns="http://www.w3.org/2000/svg" viewBox="0 0 860.81 893.31">
  <path stroke-width="10px" stroke="#000" fill="none" d="M834.76,5.47C659.07,173.25,552,258,278.28,430.51c-1.66,1-5.14,9.19,1,11.9,31.09,13.71,107.19,62.08,107.19,62.08S393,522,384.3,524.13,345,535,334.1,535s-8.73-21.82-30.55-21.82-14-21.83-28.83-17.46-45.38,0-43.19,15.28,100.39,63.29,104.75,78.56S358.11,626.71,347.2,642s-23.68,41.29-39,52.2-49.26,16.93-75.43,9.24c-12.11-3.57-98.38-61.59-115.84-55-15.82,5.93-86.22,96.34-111.6,123.54-5.39,5.77-1.5,10.75-1.7,12.77-.53,5.37,453.9,108.07,463.56,106.1,14.35-2.94,16.41-13.7-2-33-30.56-32.18-73.49-65.18-74.41-106.63-.63-28.07,66.06-108.68,70.42-130.5s-6.53-34,4.38-58.05,28.48-28.72,28.48-46.18-13.37-39.73-11.93-54.65c1.92-20,20.39-57,46.14-62,10.92-2.14,72.15-.86,80.09-6.12,8.61-5.71,19.24-20.78,25-52.56,2.3-12.74,9.36-39.42,31.18-39.42s34.64,19.25,38.87,15.78c16.71-13.67,95.45-68.12,97.95-78.18,13-52.37,41.48-169.48,56.46-217.07C861.11,11.94,844.87-4.19,834.76,5.47Z"/>
</svg>
