<?xml version="1.0" encoding="UTF-8"?>
<svg id="Layer_2" data-name="Layer 2" xmlns="http://www.w3.org/2000/svg" viewBox="0 0 980 205.35">
  <defs>
    <style>
      .cls-1 {
        fill: #06f;
      }
    </style>
  </defs>
  <g id="Layer_1-2" data-name="Layer 1">
    <g>
      <g>
        <path class="cls-1" d="M271.41,194.67l27.86-143.51h-59.14l7.88-40.48h164.28l-7.88,40.48h-58.88l-27.86,143.51h-46.26Z"/>
        <path class="cls-1" d="M582.15,73.25c2.23-12.09,1.58-22.87-1.84-32.2-3.55-9.33-9.99-16.82-19.32-22.21-9.46-5.39-21.95-8.15-37.46-8.15h-85.69l-35.75,183.99h46.52l12.88-65.19h23.39c1.71,0,3.29,0,4.86-.13l27.47,65.32h50.2l-32.59-70.97c13.27-3.81,23.92-9.73,31.8-18,7.89-8.28,13.01-19.19,15.51-32.46ZM536.16,72.73c-1.58,7.89-4.86,13.67-9.86,17.22-4.99,3.55-12.09,5.39-21.16,5.39h-37.06l8.67-45.47h38.38c8.54,0,14.59,2.1,18.14,6.18,3.42,4.07,4.47,9.73,2.89,16.69Z"/>
        <path class="cls-1" d="M589.46,194.67l35.74-183.99h95.68c14.02,0,24.92,2.37,32.73,7.1,7.79,4.73,13.01,10.91,15.63,18.53,2.63,7.62,3.07,15.9,1.32,24.83-1.41,7.37-4.56,14.63-9.46,21.82-4.92,7.19-11.83,12.8-20.77,16.83v.26c5.78,1.76,10.38,4.77,13.8,9.07,3.41,4.29,5.74,9.24,6.97,14.85,1.22,5.61,1.22,11.31,0,17.08-1.94,10.69-5.97,20.07-12.1,28.12-6.13,8.07-14.49,14.34-25.09,18.8-10.61,4.47-23.53,6.7-38.77,6.7h-95.68ZM643.35,156.55h44.95c8.05,0,14.14-1.66,18.26-4.99,4.12-3.32,6.7-8.15,7.75-14.45,1.22-6.66.35-11.69-2.63-15.12-2.98-3.41-8.24-5.12-15.76-5.12h-44.96l-7.61,39.68ZM657,84.54h44.69c6.84,0,12.09-1.49,15.77-4.47s6.04-7.62,7.1-13.94c1.22-5.96.47-10.55-2.23-13.8-2.72-3.25-7.75-4.86-15.12-4.86h-43.11l-7.1,37.07Z"/>
        <path class="cls-1" d="M868.08,197.3c-19.62,0-36.05-4.38-49.28-13.14-13.23-8.77-22.43-20.77-27.59-36.01-5.17-15.25-5.83-32.59-1.98-52.04,3.68-18.4,10.42-34.13,20.24-47.18,9.82-13.05,22.29-23.13,37.46-30.23,15.14-7.1,32.8-10.65,52.95-10.65,14.54,0,27.34,2.55,38.37,7.62,11.05,5.09,19.98,12.22,26.81,21.42,6.84,9.2,11.35,19.98,13.54,32.33,2.19,12.36,1.8,25.9-1.18,40.61-3.68,18.24-10.34,33.87-19.98,46.92-9.64,13.05-21.99,23.05-37.05,29.97-15.08,6.92-32.51,10.38-52.31,10.38ZM874.12,154.19c10.87,0,20.11-1.75,27.73-5.26,7.62-3.49,13.84-8.88,18.66-16.16,4.81-7.26,8.37-16.43,10.64-27.47,2.63-12.44,2.76-22.69.4-30.75-2.36-8.06-6.83-13.98-13.4-17.75-6.57-3.76-14.95-5.65-25.1-5.65-10.87,0-20.11,1.76-27.73,5.26-7.62,3.5-13.85,8.89-18.66,16.16-4.83,7.28-8.37,16.43-10.64,27.47-2.46,12.45-2.54,22.7-.27,30.75,2.27,8.07,6.7,13.98,13.27,17.75,6.57,3.77,14.94,5.65,25.1,5.65Z"/>
      </g>
      <path class="cls-1" d="M228.17,114.08v22.82h-41.98c4.91-10.38,7.76-21.9,7.76-34.22,0-44.04-35.82-79.86-79.86-79.86H0V0h114.08c56.71,0,102.67,45.97,102.67,102.67,0,3.88-.34,7.64-.68,11.41h12.09ZM114.08,182.53c-44.04,0-79.86-35.82-79.86-79.86,0-12.21,2.85-23.84,7.87-34.22H0v22.82h12.09c-.34,3.76-.68,7.53-.68,11.41,0,56.71,45.97,102.67,102.67,102.67h114.08v-22.82h-114.08ZM169.53,104.96c-10.61,8.44-24.41,3.08-32.63-1.71v-.57c31.83-19.28,15.86-46.89,15.86-46.89,0,0-12.09-21.11-8.9,0,1.94,13.46-9.7,22.7-17.91,27.49l-.46-.23c-.8-37.42-32.74-37.42-32.74-37.42,0,0-24.3,0-4.45,7.87,12.66,5.02,14.83,19.74,14.94,29.21l-.57.34c-32.63-18.03-48.6,9.58-48.6,9.58,0,0-12.21,21.11,4.56,7.76,10.61-8.33,24.41-2.97,32.63,1.71v.57c-31.83,19.39-15.86,47-15.86,47,0,0,12.09,21.11,9.01-.11-2.05-13.35,9.7-22.59,17.91-27.49l.34.34c.8,37.31,32.74,37.31,32.74,37.31,0,0,24.3,0,4.45-7.87-12.66-5.02-14.83-19.74-14.94-29.21l.57-.23c32.63,18.03,48.6-9.7,48.6-9.7,0,0,12.21-20.99-4.56-7.76"/>
    </g>
  </g>
</svg>